<?xml version="1.0" standalone="no"?>
<!DOCTYPE svg PUBLIC "-//W3C//DTD SVG 20010904//EN"
 "http://www.w3.org/TR/2001/REC-SVG-20010904/DTD/svg10.dtd">
<svg version="1.0" xmlns="http://www.w3.org/2000/svg"
 width="218.000000pt" height="234.000000pt" viewBox="0 0 218.000000 234.000000"
 preserveAspectRatio="xMidYMid meet">

<g transform="translate(0.000000,234.000000) scale(0.100000,-0.100000)"
fill="#000000" stroke="none">
<path d="M1190 1941 c-205 -66 -337 -217 -369 -423 -16 -99 -77 -141 -150
-103 -25 13 -36 31 -55 88 -3 11 -16 17 -36 17 -27 0 -30 -3 -30 -31 0 -47 29
-98 72 -127 34 -22 37 -27 24 -40 -13 -13 -18 -13 -45 5 -45 28 -79 79 -92
139 -11 49 -15 54 -40 54 -38 0 -42 -11 -29 -74 14 -70 62 -142 119 -177 44
-28 45 -30 42 -78 -1 -27 2 -66 8 -88 14 -50 71 -117 125 -146 39 -21 51 -22
316 -22 247 0 280 2 324 19 108 41 186 150 186 257 0 68 -13 84 -62 71 -31 -8
-33 -11 -39 -63 -12 -115 -80 -182 -184 -182 -177 0 -250 222 -109 329 35 27
44 29 127 29 84 0 89 1 102 25 21 36 18 48 -13 64 -70 36 -183 27 -256 -21
l-39 -25 7 42 c17 106 94 186 200 205 47 9 65 41 47 81 -11 25 -15 26 -58 20
-109 -15 -213 -93 -262 -196 -25 -54 -26 -60 -29 -303 -3 -264 -5 -272 -51
-247 -20 10 -21 18 -21 244 0 178 4 244 15 283 22 75 88 167 153 213 57 41
161 80 213 80 36 0 54 35 39 75 -8 21 -16 25 -52 24 -24 0 -68 -8 -98 -18z
m-370 -766 c0 -117 -2 -135 -16 -135 -45 0 -104 77 -104 135 0 41 30 95 64
116 55 34 56 31 56 -116z"/>
<path d="M1457 1578 c-18 -31 -22 -47 -15 -55 17 -21 25 -16 51 31 18 32 22
47 14 55 -17 17 -23 14 -50 -31z"/>
<path d="M1541 1516 c-32 -33 -35 -56 -7 -56 21 0 69 57 63 74 -9 23 -19 20
-56 -18z"/>
<path d="M1608 1437 c-37 -22 -47 -40 -28 -52 16 -10 92 34 88 52 -5 24 -19
24 -60 0z"/>
<path d="M1640 1341 c-24 -7 -37 -47 -15 -45 46 2 85 18 85 35 0 20 -22 23
-70 10z"/>
<path d="M182 637 c-6 -7 -20 -62 -31 -122 -24 -137 -23 -138 76 -133 67 3 75
6 108 38 62 60 74 153 26 201 -27 26 -35 29 -99 29 -45 0 -73 -5 -80 -13z
m138 -62 c19 -23 6 -96 -20 -117 -13 -11 -39 -18 -62 -18 -40 0 -40 0 -34 33
3 17 8 51 12 75 7 42 7 42 49 42 26 0 48 -6 55 -15z"/>
<path d="M504 636 c-49 -22 -78 -70 -82 -141 -4 -59 -3 -63 28 -88 87 -73 220
12 220 140 0 85 -78 127 -166 89z m96 -61 c19 -23 6 -96 -20 -117 -25 -21 -70
-24 -88 -6 -19 19 -14 82 9 112 24 30 78 36 99 11z"/>
<path d="M737 628 c-23 -36 -53 -226 -38 -241 25 -25 45 7 60 97 15 96 30 99
31 6 0 -70 8 -82 51 -78 32 3 35 8 71 88 42 94 45 91 23 -23 -15 -80 -14 -97
8 -97 27 1 36 21 56 130 22 127 19 140 -34 140 -39 0 -55 -17 -86 -93 -26 -66
-27 -65 -37 24 l-7 64 -42 3 c-35 3 -44 -1 -56 -20z"/>
<path d="M1177 628 c-17 -28 -52 -222 -42 -237 3 -6 37 -11 74 -11 54 0 75 5
101 23 49 32 72 78 74 143 1 49 -2 58 -27 80 -24 20 -39 24 -97 24 -61 0 -71
-3 -83 -22z m143 -57 c13 -26 2 -81 -23 -108 -15 -17 -32 -23 -63 -23 l-42 0
8 38 c4 20 11 54 14 75 7 36 8 37 51 37 33 0 47 -5 55 -19z"/>
<path d="M1493 630 c-87 -53 -107 -197 -33 -235 96 -50 203 31 205 153 0 47
-4 57 -28 78 -35 30 -98 32 -144 4z m108 -63 c14 -31 -5 -103 -31 -117 -54
-29 -104 4 -94 61 9 49 40 79 81 79 25 0 36 -6 44 -23z"/>
<path d="M1737 635 c-8 -8 -20 -47 -27 -87 -7 -40 -16 -91 -20 -112 -10 -46
-6 -56 21 -56 24 0 27 8 49 118 l16 87 10 -85 9 -85 36 -3 36 -3 38 86 c21 47
40 84 41 82 2 -2 -4 -42 -13 -91 -12 -66 -13 -90 -4 -99 8 -8 16 -9 29 -1 19
12 54 176 50 229 -3 28 -6 30 -46 33 l-43 3 -37 -78 -37 -78 -3 65 c-2 35 -8
70 -14 77 -14 18 -73 16 -91 -2z"/>
</g>
</svg>
