<svg width="131" height="125" viewBox="0 0 131 125" fill="none" xmlns="http://www.w3.org/2000/svg">
<g clip-path="url(#clip0_13763_42875)">
<path d="M109.909 29.6271H109.226V10.8612C109.226 7.98061 108.084 5.21803 106.051 3.18116C104.017 1.1443 101.26 1.41678e-09 98.3845 1.41678e-09H58.6972C57.2735 -2.30353e-05 55.8637 0.280887 54.5483 0.82669C53.2329 1.37249 52.0378 2.1725 51.031 3.18104C50.0243 4.18957 49.2257 5.38689 48.6808 6.70462C48.1359 8.02235 47.8555 9.43468 47.8555 10.861V113.813C47.8555 116.693 48.9977 119.456 51.0309 121.493C53.0641 123.529 55.8217 124.674 58.697 124.674H98.3839C101.259 124.674 104.017 123.529 106.05 121.493C108.083 119.456 109.225 116.693 109.225 113.813V42.9851H109.908L109.909 29.6271Z" fill="#3F3D56"/>
<path d="M107.001 10.1346V114.541C107.001 116.725 106.135 118.819 104.593 120.364C103.052 121.908 100.961 122.776 98.7813 122.777H58.2798C56.0989 122.777 54.0072 121.91 52.4647 120.365C50.9222 118.821 50.0553 116.725 50.0547 114.541V10.1346C50.0553 7.94983 50.9222 5.85478 52.4646 4.31024C54.007 2.76569 56.0986 1.89816 58.2795 1.89844H63.1925C62.9513 2.49276 62.8595 3.13735 62.9252 3.77555C62.9908 4.41375 63.212 5.02602 63.5692 5.55854C63.9263 6.09107 64.4086 6.52754 64.9736 6.8296C65.5386 7.13166 66.1691 7.29006 66.8095 7.29087H89.9001C90.5405 7.29006 91.1709 7.13166 91.7359 6.8296C92.3009 6.52754 92.7832 6.09107 93.1404 5.55854C93.4976 5.02602 93.7187 4.41375 93.7844 3.77555C93.8501 3.13735 93.7582 2.49276 93.517 1.89844H98.7798C100.96 1.89881 103.05 2.76645 104.592 4.31061C106.134 5.85477 107 7.94905 107.001 10.133V10.1346Z" fill="white"/>
<path d="M78.5183 52.047C87.8568 52.047 95.4272 44.4629 95.4272 35.1075C95.4272 25.752 87.8568 18.168 78.5183 18.168C69.1797 18.168 61.6094 25.752 61.6094 35.1075C61.6094 44.4629 69.1797 52.047 78.5183 52.047Z" fill="#25793A"/>
<path d="M96.9614 70.2731H60.9711C60.7944 70.2729 60.625 70.2025 60.5001 70.0773C60.3751 69.9522 60.3049 69.7824 60.3047 69.6054V60.6618C60.3049 60.4848 60.3752 60.3151 60.5001 60.1899C60.6251 60.0648 60.7944 59.9944 60.9711 59.9941H96.9614C97.1381 59.9944 97.3075 60.0648 97.4324 60.1899C97.5574 60.3151 97.6276 60.4848 97.6279 60.6618V69.6056C97.6276 69.7826 97.5574 69.9523 97.4324 70.0775C97.3075 70.2026 97.1381 70.273 96.9614 70.2733V70.2731ZM60.9711 60.2611C60.8651 60.2612 60.7634 60.3035 60.6884 60.3786C60.6134 60.4537 60.5713 60.5556 60.5712 60.6618V69.6056C60.5713 69.7118 60.6134 69.8137 60.6884 69.8888C60.7634 69.9639 60.8651 70.0062 60.9711 70.0063H96.9614C97.0675 70.0062 97.1691 69.9639 97.2441 69.8888C97.3191 69.8137 97.3613 69.7118 97.3614 69.6056V60.6618C97.3613 60.5556 97.3191 60.4537 97.2441 60.3786C97.1691 60.3035 97.0675 60.2612 96.9614 60.2611H60.9711Z" fill="#E6E6E6"/>
<path d="M72.0994 63.2148C71.9756 63.2148 71.857 63.2641 71.7695 63.3517C71.682 63.4394 71.6328 63.5583 71.6328 63.6823C71.6328 63.8062 71.682 63.9251 71.7695 64.0128C71.857 64.1004 71.9756 64.1497 72.0994 64.1497H94.0933C94.2169 64.1544 94.3374 64.1097 94.4282 64.0255C94.519 63.9412 94.5727 63.8243 94.5775 63.7004C94.5822 63.5765 94.5376 63.4558 94.4535 63.3648C94.3694 63.2739 94.2527 63.2201 94.129 63.2153C94.1222 63.2151 94.1153 63.215 94.1085 63.215L72.0994 63.2148Z" fill="#E6E6E6"/>
<path d="M72.0994 66.0195C71.9756 66.0195 71.857 66.0688 71.7695 66.1564C71.682 66.2441 71.6328 66.363 71.6328 66.4869C71.6328 66.6109 71.682 66.7298 71.7695 66.8174C71.857 66.9051 71.9756 66.9543 72.0994 66.9543H94.0933C94.2169 66.9591 94.3374 66.9144 94.4282 66.8302C94.519 66.7459 94.5727 66.629 94.5775 66.5051C94.5822 66.3812 94.5376 66.2605 94.4535 66.1695C94.3694 66.0786 94.2527 66.0248 94.129 66.02C94.1222 66.0198 94.1153 66.0197 94.1085 66.0197L72.0994 66.0195Z" fill="#E6E6E6"/>
<path d="M96.9614 85.1793H60.9711C60.7944 85.1792 60.625 85.1087 60.5001 84.9836C60.3751 84.8584 60.3049 84.6887 60.3047 84.5117V75.568C60.3049 75.391 60.3752 75.2214 60.5001 75.0962C60.6251 74.971 60.7944 74.9006 60.9711 74.9004H96.9614C97.1381 74.9006 97.3075 74.971 97.4324 75.0962C97.5574 75.2214 97.6276 75.391 97.6279 75.568V84.5119C97.6276 84.6888 97.5573 84.8585 97.4324 84.9836C97.3074 85.1087 97.1381 85.1791 96.9614 85.1793ZM60.9711 75.1674C60.8651 75.1675 60.7634 75.2097 60.6884 75.2848C60.6134 75.3599 60.5713 75.4618 60.5712 75.568V84.5119C60.5713 84.6181 60.6134 84.72 60.6884 84.7951C60.7634 84.8702 60.8651 84.9124 60.9711 84.9125H96.9614C97.0675 84.9124 97.1691 84.8702 97.2441 84.7951C97.3191 84.72 97.3613 84.6181 97.3614 84.5119V75.568C97.3613 75.4618 97.3191 75.3599 97.2441 75.2848C97.1691 75.2097 97.0675 75.1675 96.9614 75.1674H60.9711Z" fill="#E6E6E6"/>
<path d="M72.0994 78.1699C71.9756 78.1699 71.857 78.2192 71.7695 78.3068C71.682 78.3945 71.6328 78.5134 71.6328 78.6373C71.6328 78.7613 71.682 78.8802 71.7695 78.9678C71.857 79.0555 71.9756 79.1047 72.0994 79.1047H94.0933C94.2153 79.1041 94.3321 79.0555 94.4188 78.9696C94.5056 78.8836 94.5552 78.7671 94.5572 78.6449C94.5592 78.5227 94.5134 78.4046 94.4295 78.3158C94.3456 78.2271 94.2304 78.1748 94.1085 78.1701H72.0994V78.1699Z" fill="#E6E6E6"/>
<path d="M72.0994 80.9746C71.9756 80.9746 71.857 81.0239 71.7695 81.1115C71.682 81.1992 71.6328 81.3181 71.6328 81.442C71.6328 81.566 71.682 81.6849 71.7695 81.7725C71.857 81.8602 71.9756 81.9094 72.0994 81.9094H94.0933C94.2153 81.9087 94.3321 81.8602 94.4188 81.7743C94.5056 81.6883 94.5552 81.5718 94.5572 81.4496C94.5592 81.3274 94.5134 81.2093 94.4295 81.1205C94.3456 81.0318 94.2304 80.9795 94.1085 80.9748H72.0994V80.9746Z" fill="#E6E6E6"/>
<path d="M96.9614 100.136H60.9711C60.7944 100.136 60.625 100.066 60.5001 99.9406C60.3751 99.8154 60.3049 99.6457 60.3047 99.4687V90.5251C60.3049 90.3481 60.3752 90.1784 60.5001 90.0532C60.6251 89.9281 60.7944 89.8577 60.9711 89.8574H96.9614C97.1381 89.8577 97.3075 89.9281 97.4324 90.0532C97.5574 90.1784 97.6276 90.3481 97.6279 90.5251V99.4689C97.6276 99.6459 97.5574 99.8156 97.4324 99.9407C97.3075 100.066 97.1381 100.136 96.9614 100.137V100.136ZM60.9711 90.1244C60.8651 90.1245 60.7634 90.1667 60.6884 90.2419C60.6134 90.317 60.5713 90.4188 60.5712 90.5251V99.4689C60.5713 99.5751 60.6134 99.677 60.6884 99.7521C60.7634 99.8272 60.8651 99.8695 60.9711 99.8696H96.9614C97.0675 99.8695 97.1691 99.8272 97.2441 99.7521C97.3191 99.677 97.3613 99.5751 97.3614 99.4689V90.5251C97.3613 90.4188 97.3191 90.317 97.2441 90.2419C97.1691 90.1667 97.0675 90.1245 96.9614 90.1244H60.9711Z" fill="#E6E6E6"/>
<path d="M72.0994 93.127C71.9756 93.127 71.857 93.1762 71.7695 93.2639C71.682 93.3515 71.6328 93.4704 71.6328 93.5944C71.6328 93.7183 71.682 93.8372 71.7695 93.9249C71.857 94.0125 71.9756 94.0618 72.0994 94.0618H94.0933C94.1545 94.0641 94.2156 94.0544 94.2731 94.0331C94.3306 94.0118 94.3833 93.9793 94.4282 93.9376C94.4732 93.8959 94.5095 93.8457 94.5351 93.7899C94.5607 93.7341 94.5751 93.6739 94.5775 93.6125C94.5798 93.5512 94.5701 93.49 94.5488 93.4324C94.5275 93.3748 94.4951 93.322 94.4535 93.2769C94.4119 93.2319 94.3618 93.1955 94.3061 93.1699C94.2504 93.1442 94.1903 93.1298 94.129 93.1275C94.1222 93.1272 94.1153 93.1271 94.1085 93.1271L72.0994 93.127Z" fill="#E6E6E6"/>
<path d="M72.0994 95.9316C71.9756 95.9316 71.857 95.9809 71.7695 96.0685C71.682 96.1562 71.6328 96.2751 71.6328 96.3991C71.6328 96.523 71.682 96.6419 71.7695 96.7296C71.857 96.8172 71.9756 96.8665 72.0994 96.8665H94.0933C94.1545 96.8688 94.2156 96.8591 94.2731 96.8377C94.3306 96.8164 94.3833 96.784 94.4282 96.7423C94.4732 96.7006 94.5095 96.6504 94.5351 96.5946C94.5607 96.5388 94.5751 96.4786 94.5775 96.4172C94.5798 96.3559 94.5701 96.2947 94.5488 96.2371C94.5275 96.1795 94.4951 96.1267 94.4535 96.0816C94.4119 96.0366 94.3618 96.0002 94.3061 95.9746C94.2504 95.9489 94.1903 95.9345 94.129 95.9322C94.1222 95.9319 94.1153 95.9318 94.1085 95.9318H72.0994L72.0994 95.9316Z" fill="#E6E6E6"/>
<path d="M130.161 124.999H0.839349C0.651813 124.999 0.5 124.917 0.5 124.816C0.5 124.715 0.651988 124.633 0.839349 124.633H130.161C130.348 124.633 130.5 124.715 130.5 124.816C130.5 124.917 130.348 124.999 130.161 124.999Z" fill="#E6E6E6"/>
<path d="M124.683 117.85C124.131 118.044 123.538 118.093 122.961 117.991C122.384 117.889 121.843 117.641 121.39 117.269C120.237 116.299 119.875 114.701 119.581 113.222L118.711 108.846L120.533 110.103C121.843 111.006 123.183 111.939 124.09 113.248C124.998 114.558 125.394 116.345 124.665 117.761" fill="#E6E6E6"/>
<path d="M124.402 123.452C124.632 121.778 124.868 120.083 124.707 118.391C124.564 116.889 124.106 115.421 123.175 114.218C122.68 113.581 122.079 113.034 121.397 112.604C121.219 112.492 121.055 112.774 121.232 112.886C122.412 113.633 123.325 114.736 123.838 116.036C124.405 117.481 124.497 119.057 124.398 120.593C124.339 121.521 124.214 122.444 124.088 123.365C124.078 123.407 124.084 123.451 124.105 123.488C124.126 123.525 124.161 123.553 124.202 123.566C124.243 123.577 124.288 123.571 124.325 123.55C124.363 123.529 124.39 123.493 124.402 123.452H124.402Z" fill="#F2F2F2"/>
<path d="M122.752 120.766C122.515 121.126 122.189 121.42 121.806 121.618C121.423 121.816 120.996 121.912 120.565 121.896C119.458 121.844 118.535 121.07 117.704 120.335L115.246 118.161L116.873 118.083C118.042 118.027 119.242 117.975 120.357 118.336C121.472 118.697 122.499 119.567 122.703 120.722" fill="#E6E6E6"/>
<path d="M125.052 124.414C123.949 122.457 122.668 120.282 120.379 119.587C119.743 119.394 119.076 119.325 118.414 119.383C118.205 119.401 118.258 119.724 118.467 119.706C119.576 119.613 120.684 119.907 121.603 120.537C122.488 121.14 123.176 121.978 123.759 122.868C124.116 123.411 124.436 123.98 124.755 124.547C124.857 124.728 125.156 124.597 125.052 124.414Z" fill="#F2F2F2"/>
<path d="M65.4594 67.882C67.0053 67.882 68.2586 66.6265 68.2586 65.0777C68.2586 63.529 67.0053 62.2734 65.4594 62.2734C63.9134 62.2734 62.6602 63.529 62.6602 65.0777C62.6602 66.6265 63.9134 67.882 65.4594 67.882Z" fill="#25793A"/>
<path d="M64.1208 64.5547C64.0886 64.5547 64.0625 64.764 64.0625 65.022C64.0625 65.2801 64.0886 65.4895 64.1208 65.4895H66.8733C66.9055 65.4937 66.9321 65.2879 66.9326 65.0299C66.9505 64.8692 66.9308 64.7066 66.8752 64.5549H64.1208V64.5547Z" fill="#E6E6E6"/>
<path d="M65.4594 82.8449C67.0053 82.8449 68.2586 81.5894 68.2586 80.0406C68.2586 78.4918 67.0053 77.2363 65.4594 77.2363C63.9134 77.2363 62.6602 78.4918 62.6602 80.0406C62.6602 81.5894 63.9134 82.8449 65.4594 82.8449Z" fill="#25793A"/>
<path d="M64.1208 79.5176C64.0886 79.5176 64.0625 79.7269 64.0625 79.9849C64.0625 80.2429 64.0886 80.4524 64.1208 80.4524H66.8733C66.9055 80.4566 66.9321 80.2508 66.9326 79.9928C66.9505 79.8321 66.9308 79.6695 66.8752 79.5177L64.1208 79.5176Z" fill="#E6E6E6"/>
<path d="M65.4594 97.8C67.0053 97.8 68.2586 96.5444 68.2586 94.9957C68.2586 93.4469 67.0053 92.1914 65.4594 92.1914C63.9134 92.1914 62.6602 93.4469 62.6602 94.9957C62.6602 96.5444 63.9134 97.8 65.4594 97.8Z" fill="#25793A"/>
<path d="M64.1208 94.4727C64.0886 94.4727 64.0625 94.6819 64.0625 94.94C64.0625 95.198 64.0886 95.4075 64.1208 95.4075H66.8733C66.9055 95.4117 66.9321 95.2059 66.9326 94.9479C66.9505 94.7872 66.9308 94.6246 66.8752 94.4728L64.1208 94.4727Z" fill="#E6E6E6"/>
<path d="M74.8655 30.4549L73.875 31.4473L82.1707 39.758L83.1613 38.7657L74.8655 30.4549Z" fill="white"/>
<path d="M83.1624 31.4474L82.1719 30.4551L73.8761 38.7658L74.8667 39.7582L83.1624 31.4474Z" fill="white"/>
<path d="M16.3054 80.0162C16.5481 79.9302 16.769 79.7919 16.9525 79.6111C17.1361 79.4302 17.2778 79.2113 17.3677 78.9697C17.4577 78.7281 17.4936 78.4696 17.4731 78.2125C17.4526 77.9555 17.376 77.7061 17.2488 77.4819L21.3752 72.7694L18.1541 72.3242L14.7295 76.8675C14.3676 77.1065 14.1059 77.4701 13.9938 77.8896C13.8817 78.309 13.9271 78.755 14.1214 79.1431C14.3157 79.5312 14.6453 79.8345 15.0478 79.9954C15.4503 80.1563 15.8978 80.1637 16.3054 80.0162Z" fill="#9F616A"/>
<path d="M21.2821 121.779L18.4043 121.779L17.0352 110.658L21.2826 110.658L21.2821 121.779Z" fill="#9F616A"/>
<path d="M22.014 124.574L12.7344 124.574V124.456C12.7344 123.497 13.115 122.576 13.7923 121.898C14.4697 121.219 15.3883 120.838 16.3462 120.838H16.3465L22.0141 120.838L22.014 124.574Z" fill="#2F2E41"/>
<path d="M36.3477 119.367L33.5993 120.221L29 110.008L33.0565 108.746L36.3477 119.367Z" fill="#9F616A"/>
<path d="M37.8759 121.818L29.0136 124.575L28.9788 124.462C28.6948 123.546 28.7858 122.554 29.2318 121.704C29.6779 120.855 30.4424 120.218 31.3572 119.934L31.3574 119.934L36.7702 118.25L37.8759 121.818Z" fill="#2F2E41"/>
<path d="M19.0786 70.5098L14.8164 75.4L18.1532 75.7008L19.0786 70.5098Z" fill="#E6E6E6"/>
<path d="M17.4101 76.8123C17.4101 76.8123 15.9296 77.5538 15.7445 80.891C15.5595 84.2282 16.2998 92.9424 16.2998 92.9424C16.2998 92.9424 15.5596 96.8357 16.2998 100.358C17.04 103.881 15.5596 116.672 16.4849 116.672C17.4101 116.672 22.2216 117.229 22.4067 116.672C22.5918 116.116 22.7769 107.773 22.7769 107.773C22.7769 107.773 24.2574 103.509 22.7769 100.914C22.7769 100.914 27.9461 109.957 31.2896 116.858C32.0213 118.369 37.5816 116.673 36.6563 115.004C35.7311 113.336 33.5104 105.734 33.5104 105.734C33.5104 105.734 31.8448 100.173 28.884 97.7625L30.3645 85.8972C30.3645 85.8972 33.5106 77.9252 31.6602 76.8129C29.8099 75.7005 17.4101 76.8123 17.4101 76.8123Z" fill="#2F2E41"/>
<path d="M22.9638 46.5935C25.6212 46.5935 27.7753 44.4355 27.7753 41.7733C27.7753 39.1112 25.6212 36.9531 22.9638 36.9531C20.3065 36.9531 18.1523 39.1112 18.1523 41.7733C18.1523 44.4355 20.3065 46.5935 22.9638 46.5935Z" fill="#A0616A"/>
<path d="M28.3321 46.9629L22.3506 50.4853C22.3506 50.4853 20.0602 51.7775 19.2047 54.0078C18.2927 56.3847 18.8228 59.7314 19.2047 60.4966C19.9448 61.9798 18.8942 65.6876 18.8942 65.6876L17.969 74.2157C17.969 74.2157 14.638 77.3673 17.2288 77.7382C19.8196 78.109 24.446 77.5527 27.222 77.7382C29.9979 77.9236 33.1438 78.2944 32.2185 76.4401C31.2933 74.5857 30.183 73.2883 31.2933 69.5811C32.1622 66.6796 32.1245 55.8311 32.0671 51.2496C32.0592 50.6205 31.8907 50.0038 31.5778 49.4583C31.2648 48.9128 30.8177 48.4565 30.2791 48.1329L28.3321 46.9629Z" fill="#E5E5E5"/>
<path opacity="0.1" d="M25.6478 52.8047L26.2029 64.1137L20.8226 75.0289L19.9102 74.681L25.462 64.4844L25.6478 52.8047Z" fill="black"/>
<path opacity="0.1" d="M31.7522 66.5227V65.2246L25.4609 75.607L31.7522 66.5227Z" fill="black"/>
<path d="M19.5489 37.3072L18.7541 36.9886C18.7541 36.9886 20.4176 35.1542 22.7313 35.3137L22.0804 34.5959C22.0804 34.5959 23.6712 33.9579 25.1176 35.6326C25.8779 36.513 26.7574 37.548 27.3064 38.7137H28.1582L27.8028 39.498L29.0471 40.2823L27.7699 40.142C27.8908 40.8191 27.8494 41.5153 27.649 42.1732L27.6841 42.7931C27.6841 42.7931 26.2029 40.497 26.2029 40.1785V40.9761C26.2029 40.9761 25.4074 40.2583 25.4074 39.7797L24.9735 40.3381L24.7565 39.461L22.0809 40.3381L22.5145 39.6199L20.851 39.8592L21.5019 38.9821C21.5019 38.9821 19.6218 40.0188 19.5494 40.8963C19.4771 41.7737 18.5372 42.8901 18.5372 42.8901L18.1033 42.0925C18.1033 42.0925 17.4526 38.5035 19.5489 37.3072Z" fill="#2F2E41"/>
<path d="M22.6617 80.5391C22.8853 80.4113 23.0782 80.2359 23.2267 80.0253C23.3753 79.8147 23.476 79.5741 23.5217 79.3203C23.5674 79.0665 23.557 78.8058 23.4913 78.5565C23.4255 78.3071 23.306 78.0753 23.1411 77.8772L26.367 72.5059L23.1181 72.6405L20.5529 77.7206C20.2391 78.0202 20.046 78.4246 20.01 78.8573C19.974 79.29 20.0977 79.7208 20.3577 80.0683C20.6176 80.4157 20.9957 80.6555 21.4204 80.7423C21.845 80.8291 22.2867 80.7568 22.6617 80.5391Z" fill="#9F616A"/>
<path d="M29.997 49.3737L31.3849 49.0957C31.3849 49.0957 35.5487 52.1547 34.2533 58.2727C32.9579 64.3906 27.2211 73.6604 27.2211 73.6604C27.2211 73.6604 25.9254 75.329 25.5555 75.6996C25.1857 76.0703 24.4452 75.6996 24.8154 76.2559C25.1855 76.8122 24.2601 77.1828 24.2601 77.1828C24.2601 77.1828 20.1888 77.1828 20.559 75.6996C20.9291 74.2165 27.2211 63.6482 27.2211 63.6482L26.2959 53.8224C26.2959 53.8224 25.5554 49.0029 29.997 49.3737Z" fill="#E5E5E5"/>
</g>
<defs>
<clipPath id="clip0_13763_42875">
<rect width="130" height="125" fill="white" transform="translate(0.5)"/>
</clipPath>
</defs>
</svg>
