<svg width="101" height="101" viewBox="0 0 101 101" fill="none" xmlns="http://www.w3.org/2000/svg">
<rect width="100" height="100" transform="translate(0.25 0.19043)" fill="white"/>
<g clip-path="url(#clip0_10055_6444)">
<path d="M88.75 79.9444C88.75 82.2135 87.8486 84.3897 86.2441 85.9941C84.6397 87.5986 82.4635 88.5 80.1944 88.5H20.3056C18.0365 88.5 15.8603 87.5986 14.2559 85.9941C12.6514 84.3897 11.75 82.2135 11.75 79.9444V20.0556C11.75 17.7865 12.6514 15.6103 14.2559 14.0059C15.8603 12.4014 18.0365 11.5 20.3056 11.5H80.1944C82.4635 11.5 84.6397 12.4014 86.2441 14.0059C87.8486 15.6103 88.75 17.7865 88.75 20.0556V79.9444Z" fill="#3B88C3"/>
<path d="M11.75 32.8887H88.75V69.2498H11.75V32.8887Z" fill="#BBDDF5"/>
<path d="M23.0793 40.8885C23.6611 39.3143 24.9957 38.0459 26.7432 38.0459C28.557 38.0459 29.8232 39.2458 30.405 40.8885L37.1147 59.5139C37.32 60.0615 37.3885 60.5406 37.3885 60.7823C37.3885 62.117 36.2933 63.041 35.025 63.041C33.5876 63.041 32.869 62.2881 32.5268 61.2614L31.5001 58.0424H21.982L20.9554 61.2272C20.6131 62.2881 19.8923 63.041 18.4892 63.041C17.1203 63.041 15.9568 62.0164 15.9568 60.6454C15.9568 60.0978 16.1279 59.6872 16.1963 59.5161L23.0793 40.8885ZM23.4579 53.3154H29.9622L26.7774 43.3867H26.709L23.4579 53.3154ZM42.6886 43.1814H38.9563C37.3136 43.1814 36.6291 41.9815 36.6291 40.82C36.6291 39.6201 37.4847 38.4587 38.9563 38.4587H51.5543C53.0259 38.4587 53.8836 39.6223 53.8836 40.82C53.8836 41.9836 53.1991 43.1814 51.5543 43.1814H47.822V60.3673C47.822 62.0785 46.7268 63.0367 45.2553 63.0367C43.7837 63.0367 42.6865 62.0785 42.6865 60.3673L42.6886 43.1814ZM58.8757 40.8885C59.0811 39.6565 60.4157 38.2534 62.2295 38.2534C63.9428 38.2534 65.2753 39.4854 65.6539 40.7174L69.6964 54.2736H69.7627L73.803 40.7174C74.1795 39.4854 75.5163 38.2534 77.2253 38.2534C79.0433 38.2534 80.3758 39.6565 80.5833 40.8885L83.766 59.993C83.8002 60.1984 83.8002 60.4016 83.8002 60.5727C83.8002 62.0785 82.7051 63.0367 81.3362 63.0367C79.5909 63.0367 78.9043 62.2496 78.6669 60.6411L76.6456 46.7063H76.5793L72.4684 61.0518C72.231 61.8731 71.5786 63.0367 69.7327 63.0367C67.8826 63.0367 67.2324 61.8731 66.9928 61.0518L62.8862 46.7063H62.8156L60.7986 60.6411C60.5569 62.2496 59.8725 63.0367 58.1271 63.0367C56.7582 63.0367 55.6631 62.0785 55.6631 60.5727C55.6631 60.4016 55.6631 60.1962 55.6995 59.993L58.8757 40.8885Z" fill="#226699"/>
</g>
<defs>
<clipPath id="clip0_10055_6444">
<rect width="77" height="77" fill="white" transform="translate(11.75 11.5)"/>
</clipPath>
</defs>
</svg>
