<svg width="101" height="101" viewBox="0 0 101 101" fill="none" xmlns="http://www.w3.org/2000/svg">
<rect width="100" height="100" transform="translate(0.25 0.19043)" fill="white"/>
<path d="M20.3056 22.1953C18.0365 22.1953 15.8603 23.0967 14.2559 24.7012C12.6514 26.3057 11.75 28.4818 11.75 30.7509L11.75 69.2509C11.75 71.5199 12.6514 73.6961 14.2559 75.3006C15.8603 76.905 18.0365 77.8064 20.3056 77.8064H80.1944C82.4635 77.8064 84.6397 76.905 86.2441 75.3006C87.8486 73.6961 88.75 71.5199 88.75 69.2509V30.7509C88.75 30.7509 88.75 22.1953 80.1944 22.1953H20.3056Z" fill="#FFAC33"/>
<path d="M11.75 32.8896H88.75V43.5841H11.75V32.8896Z" fill="#292F33"/>
<path d="M20.3057 52.1396H80.1945V64.973H20.3057V52.1396Z" fill="#F4F7F9"/>
<path d="M52.3894 62.8339C48.7469 62.8339 47.3823 60.2458 47.1085 58.9817C45.9385 59.0694 44.7985 59.6298 43.2478 60.6158C41.6115 61.6553 39.7571 62.8339 37.4172 62.8339C34.8569 62.8339 33.302 61.3901 33.1394 58.5561C33.133 58.4363 33.2207 58.154 33.1843 58.154C29.2103 58.154 26.3356 61.9206 26.3078 61.9591C26.1422 62.186 25.9335 62.378 25.6935 62.5241C25.4535 62.6701 25.187 62.7673 24.9093 62.81C24.6317 62.8527 24.3483 62.8402 24.0755 62.7731C23.8027 62.706 23.5459 62.5856 23.3198 62.4189C23.0932 62.2528 22.9016 62.0437 22.7558 61.8035C22.6101 61.5633 22.5131 61.2968 22.4704 61.0191C22.4277 60.7414 22.4401 60.4581 22.507 60.1852C22.5738 59.9123 22.6937 59.6553 22.8599 59.4288C23.0246 59.2042 26.958 54.2783 33.1394 54.2783C37.2824 54.2783 37.5198 57.2193 37.584 58.3165L37.599 58.5497C38.6385 58.477 39.7186 57.7925 40.957 57.0033C43.0125 55.6985 45.5621 54.0708 48.9779 54.9457C50.8408 55.4226 51.1317 57.1508 51.243 57.8032C51.2708 57.9658 51.3114 58.2096 51.3478 58.2866C51.3627 58.2866 51.66 58.4812 52.5819 58.5647C54.3358 58.7251 56.2629 57.9679 58.3034 57.168C60.4166 56.3381 62.6026 55.4825 64.9575 55.4825C72.2062 55.4825 75.1536 58.9796 75.4659 59.3774C75.6455 59.598 75.7793 59.8521 75.8595 60.125C75.9397 60.3979 75.9647 60.684 75.933 60.9667C75.9013 61.2493 75.8135 61.5228 75.6748 61.7711C75.5361 62.0195 75.3493 62.2376 75.1253 62.4129C74.9012 62.5881 74.6445 62.7169 74.3701 62.7917C74.0957 62.8665 73.8091 62.8859 73.5271 62.8486C73.2452 62.8113 72.9734 62.7182 72.7279 62.5746C72.4824 62.4311 72.2679 62.24 72.0971 62.0125C72.0458 61.9548 70.108 59.7582 64.9597 59.7582C63.4132 59.7582 61.6914 60.4319 59.867 61.1463C57.7088 61.9933 54.6609 62.8339 52.3894 62.8339Z" fill="#8899A6"/>
</svg>
