<svg width="24" height="25" viewBox="0 0 24 25" fill="none" xmlns="http://www.w3.org/2000/svg">
<path d="M1.47656 4.10938L11.8359 5.79688V20.9844H9.16406V17.9141C9.16406 17.6797 9.08203 17.4766 8.91797 17.3047C8.75391 17.1328 8.55469 17.0469 8.32031 17.0469H4.40625C4.17188 17.0469 3.96875 17.1328 3.79688 17.3047C3.625 17.4766 3.53906 17.6797 3.53906 17.9141V20.9844H1.47656V4.10938ZM13.3125 20.9844V13.1094L20.5078 14.7031V20.9844H13.3125ZM13.3125 11.5625V5.25781C13.3125 5.03906 13.2461 4.84766 13.1133 4.68359C12.9805 4.51953 12.8047 4.42188 12.5859 4.39062L0.984375 2.51562C0.71875 2.46875 0.488281 2.53125 0.292969 2.70312C0.0976563 2.875 0 3.09375 0 3.35938V22.5078H21.9844V14.1875C21.9844 13.9844 21.9219 13.8047 21.7969 13.6484C21.6719 13.4922 21.5156 13.3906 21.3281 13.3438L13.3125 11.5625ZM7.6875 20.9844H5.01562V18.5469H7.6875V20.9844ZM3.79688 7.90625C3.79688 7.79688 3.83594 7.70312 3.91406 7.625C3.99219 7.54688 4.08594 7.50781 4.19531 7.50781H5.39062C5.5 7.50781 5.59375 7.54688 5.67188 7.625C5.75 7.70312 5.78906 7.79688 5.78906 7.90625V9.10156C5.78906 9.21094 5.75 9.30469 5.67188 9.38281C5.59375 9.46094 5.5 9.5 5.39062 9.5H4.19531C4.08594 9.5 3.99219 9.46094 3.91406 9.38281C3.83594 9.30469 3.79688 9.21094 3.79688 9.10156V7.90625ZM6.79688 10.9062C6.79688 10.7969 6.83594 10.7031 6.91406 10.625C6.99219 10.5469 7.08594 10.5078 7.19531 10.5078H8.39062C8.5 10.5078 8.59375 10.5469 8.67188 10.625C8.75 10.7031 8.78906 10.7969 8.78906 10.9062V12.1016C8.78906 12.2109 8.75 12.3047 8.67188 12.3828C8.59375 12.4609 8.5 12.5 8.39062 12.5H7.19531C7.08594 12.5 6.99219 12.4609 6.91406 12.3828C6.83594 12.3047 6.79688 12.2109 6.79688 12.1016V10.9062ZM3.79688 10.9062C3.79688 10.7969 3.83594 10.7031 3.91406 10.625C3.99219 10.5469 4.08594 10.5078 4.19531 10.5078H5.39062C5.5 10.5078 5.59375 10.5469 5.67188 10.625C5.75 10.7031 5.78906 10.7969 5.78906 10.9062V12.1016C5.78906 12.2109 5.75 12.3047 5.67188 12.3828C5.59375 12.4609 5.5 12.5 5.39062 12.5H4.19531C4.08594 12.5 3.99219 12.4609 3.91406 12.3828C3.83594 12.3047 3.79688 12.2109 3.79688 12.1016V10.9062ZM6.79688 13.9062C6.79688 13.7969 6.83594 13.7031 6.91406 13.625C6.99219 13.5469 7.08594 13.5078 7.19531 13.5078H8.39062C8.5 13.5078 8.59375 13.5469 8.67188 13.625C8.75 13.7031 8.78906 13.7969 8.78906 13.9062V15.1016C8.78906 15.2109 8.75 15.3047 8.67188 15.3828C8.59375 15.4609 8.5 15.5 8.39062 15.5H7.19531C7.08594 15.5 6.99219 15.4609 6.91406 15.3828C6.83594 15.3047 6.79688 15.2109 6.79688 15.1016V13.9062ZM3.79688 13.9062C3.79688 13.7969 3.83594 13.7031 3.91406 13.625C3.99219 13.5469 4.08594 13.5078 4.19531 13.5078H5.39062C5.5 13.5078 5.59375 13.5469 5.67188 13.625C5.75 13.7031 5.78906 13.7969 5.78906 13.9062V15.1016C5.78906 15.2109 5.75 15.3047 5.67188 15.3828C5.59375 15.4609 5.5 15.5 5.39062 15.5H4.19531C4.08594 15.5 3.99219 15.4609 3.91406 15.3828C3.83594 15.3047 3.79688 15.2109 3.79688 15.1016V13.9062ZM16.9922 17.8906C16.9922 17.7812 17.0312 17.6875 17.1094 17.6094C17.1875 17.5312 17.2812 17.4922 17.3906 17.4922H18.5859C18.6953 17.4922 18.7891 17.5312 18.8672 17.6094C18.9453 17.6875 18.9844 17.7812 18.9844 17.8906V19.1094C18.9844 19.2188 18.9453 19.3125 18.8672 19.3906C18.7891 19.4688 18.6953 19.5078 18.5859 19.5078H17.3906C17.2812 19.5078 17.1875 19.4688 17.1094 19.3906C17.0312 19.3125 16.9922 19.2188 16.9922 19.1094V17.8906ZM13.9922 17.8906C13.9922 17.7812 14.0312 17.6875 14.1094 17.6094C14.1875 17.5312 14.2812 17.4922 14.3906 17.4922H15.5859C15.6953 17.4922 15.7891 17.5312 15.8672 17.6094C15.9453 17.6875 15.9844 17.7812 15.9844 17.8906V19.1094C15.9844 19.2188 15.9453 19.3125 15.8672 19.3906C15.7891 19.4688 15.6953 19.5078 15.5859 19.5078H14.3906C14.2812 19.5078 14.1875 19.4688 14.1094 19.3906C14.0312 19.3125 13.9922 19.2188 13.9922 19.1094V17.8906Z" fill="black"/>
</svg>
