<svg width="6" height="11" viewBox="0 0 6 11" fill="none" xmlns="http://www.w3.org/2000/svg">
<path d="M0.540538 0.659839L0.210698 0.987403C0.107689 1.09049 0.0509402 1.22765 0.0509402 1.37423C0.0509402 1.52074 0.107689 1.65806 0.210698 1.76115L3.94748 5.49776L0.206551 9.23869C0.103542 9.34162 0.046875 9.47893 0.046875 9.62544C0.046875 9.77195 0.103542 9.90934 0.206551 10.0124L0.534359 10.34C0.747531 10.5533 1.09477 10.5533 1.30794 10.34L5.77798 5.88598C5.88091 5.78305 5.95343 5.6459 5.95343 5.49809V5.49638C5.95343 5.3498 5.88082 5.21264 5.77798 5.10971L1.32006 0.659839C1.21713 0.556748 1.07583 0.500163 0.929321 0.5C0.782735 0.5 0.643384 0.556748 0.540538 0.659839Z" fill="#0D263B"/>
</svg>
