<svg width="16" height="16" viewBox="0 0 16 16" fill="none" xmlns="http://www.w3.org/2000/svg">
<g clip-path="url(#clip0_2345_1925)">
<path d="M4.875 8C4.875 8.34519 5.15481 8.625 5.5 8.625H7.375V10.5C7.375 10.8452 7.65481 11.125 8 11.125C8.34519 11.125 8.625 10.8452 8.625 10.5V8.625H10.5C10.8452 8.625 11.125 8.34519 11.125 8C11.125 7.65481 10.8452 7.375 10.5 7.375H8.625V5.5C8.625 5.15481 8.34519 4.875 8 4.875C7.65481 4.875 7.375 5.15481 7.375 5.5V7.375H5.5C5.15481 7.375 4.875 7.65481 4.875 8Z" fill="#25793A"/>
<path d="M5.01282 1.93107L5.82122 1.59619C6.1401 1.46407 6.29156 1.09848 6.15944 0.779569C6.02732 0.460663 5.66175 0.309132 5.34282 0.441351L4.53441 0.776226C4.21553 0.908351 4.06406 1.27394 4.19619 1.59285C4.32788 1.91069 4.69288 2.06351 5.01282 1.93107Z" fill="#25793A"/>
<path d="M8 0C7.65481 0 7.375 0.279813 7.375 0.625C7.375 0.970187 7.65481 1.25 8 1.25C11.7306 1.25 14.75 4.269 14.75 8C14.75 11.7306 11.731 14.75 8 14.75C4.26944 14.75 1.25 11.731 1.25 8C1.25 7.65481 0.970187 7.375 0.625 7.375C0.279813 7.375 0 7.65481 0 8C0 12.4213 3.57803 16 8 16C12.4213 16 16 12.422 16 8C16 3.57866 12.422 0 8 0Z" fill="#25793A"/>
<path d="M2.91756 3.53627L3.53628 2.91755C3.78038 2.67346 3.78038 2.27771 3.53628 2.03364C3.29219 1.78958 2.89644 1.78955 2.65237 2.03364L2.03366 2.65236C1.78956 2.89646 1.78956 3.2922 2.03366 3.53627C2.27769 3.7803 2.67347 3.78036 2.91756 3.53627Z" fill="#25793A"/>
<path d="M0.77977 6.15946C1.09936 6.29184 1.46458 6.1394 1.5964 5.82124L1.93127 5.0128C2.0634 4.6939 1.91193 4.3283 1.59305 4.19618C1.27408 4.06408 0.908551 4.21552 0.776426 4.5344L0.441551 5.34281C0.309426 5.66174 0.460895 6.02734 0.77977 6.15946Z" fill="#25793A"/>
</g>
<defs>
<clipPath id="clip0_2345_1925">
<rect width="16" height="16" fill="white"/>
</clipPath>
</defs>
</svg>
