<svg width="24" height="25" viewBox="0 0 24 25" fill="none" xmlns="http://www.w3.org/2000/svg">
<path d="M19.9994 19.7601H10.9294C10.4794 19.7601 10.1094 19.3901 10.1094 18.9401C10.1094 18.4901 10.4794 18.1201 10.9294 18.1201H19.9994C20.4494 18.1201 20.8194 18.4901 20.8194 18.9401C20.8194 19.4001 20.4494 19.7601 19.9994 19.7601Z" fill="#25793A"/>
<path d="M19.9994 13.4701H10.9294C10.4794 13.4701 10.1094 13.1001 10.1094 12.6501C10.1094 12.2001 10.4794 11.8301 10.9294 11.8301H19.9994C20.4494 11.8301 20.8194 12.2001 20.8194 12.6501C20.8194 13.1001 20.4494 13.4701 19.9994 13.4701Z" fill="#25793A"/>
<path d="M19.9994 7.17027H10.9294C10.4794 7.17027 10.1094 6.80027 10.1094 6.35027C10.1094 5.90027 10.4794 5.53027 10.9294 5.53027H19.9994C20.4494 5.53027 20.8194 5.90027 20.8194 6.35027C20.8194 6.80027 20.4494 7.17027 19.9994 7.17027Z" fill="#25793A"/>
<path d="M4.90969 8.52992C4.68969 8.52992 4.47969 8.43992 4.32969 8.28992L3.41969 7.37992C3.09969 7.05992 3.09969 6.53992 3.41969 6.21992C3.73969 5.89992 4.25969 5.89992 4.57969 6.21992L4.90969 6.54992L7.04969 4.40992C7.36969 4.08992 7.88969 4.08992 8.20969 4.40992C8.52969 4.72992 8.52969 5.24992 8.20969 5.56992L5.48969 8.28992C5.32969 8.43992 5.12969 8.52992 4.90969 8.52992Z" fill="#25793A"/>
<path d="M4.90969 14.8297C4.69969 14.8297 4.48969 14.7497 4.32969 14.5897L3.41969 13.6797C3.09969 13.3597 3.09969 12.8397 3.41969 12.5197C3.73969 12.1997 4.25969 12.1997 4.57969 12.5197L4.90969 12.8497L7.04969 10.7097C7.36969 10.3897 7.88969 10.3897 8.20969 10.7097C8.52969 11.0297 8.52969 11.5497 8.20969 11.8697L5.48969 14.5897C5.32969 14.7497 5.11969 14.8297 4.90969 14.8297Z" fill="#25793A"/>
<path d="M4.90969 20.8297C4.69969 20.8297 4.48969 20.7497 4.32969 20.5897L3.41969 19.6797C3.09969 19.3597 3.09969 18.8397 3.41969 18.5197C3.73969 18.1997 4.25969 18.1997 4.57969 18.5197L4.90969 18.8497L7.04969 16.7097C7.36969 16.3897 7.88969 16.3897 8.20969 16.7097C8.52969 17.0297 8.52969 17.5497 8.20969 17.8697L5.48969 20.5897C5.32969 20.7497 5.11969 20.8297 4.90969 20.8297Z" fill="#25793A"/>
</svg>
