<svg width="20" height="21" viewBox="0 0 20 21" fill="none" xmlns="http://www.w3.org/2000/svg">
<g clip-path="url(#clip0_1340_5499)">
<path d="M4.79102 19.6665C4.44602 19.6665 4.16602 19.3865 4.16602 19.0415V5.2915C4.16602 4.9465 4.44602 4.6665 4.79102 4.6665C5.13602 4.6665 5.41602 4.9465 5.41602 5.2915V19.0415C5.41602 19.3865 5.13602 19.6665 4.79102 19.6665Z" fill="#25793A"/>
<path d="M19.3743 10.0835H4.79102C4.44602 10.0835 4.16602 9.8035 4.16602 9.4585C4.16602 9.1135 4.44602 8.8335 4.79102 8.8335H19.3743C19.7193 8.8335 19.9993 9.1135 19.9993 9.4585C19.9993 9.8035 19.7193 10.0835 19.3743 10.0835Z" fill="#25793A"/>
<path d="M19.3743 15.0835H4.79102C4.44602 15.0835 4.16602 14.8035 4.16602 14.4585C4.16602 14.1135 4.44602 13.8335 4.79102 13.8335H19.3743C19.7193 13.8335 19.9993 14.1135 19.9993 14.4585C19.9993 14.8035 19.7193 15.0835 19.3743 15.0835Z" fill="#25793A"/>
<path d="M17.7083 19.6668H2.29167C1.0275 19.6668 0 18.6393 0 17.3752V3.62516C0 2.361 1.0275 1.3335 2.29167 1.3335H17.7083C18.9725 1.3335 20 2.361 20 3.62516V17.3752C20 18.6393 18.9725 19.6668 17.7083 19.6668ZM2.29167 2.5835C1.7175 2.5835 1.25 3.051 1.25 3.62516V17.3752C1.25 17.9493 1.7175 18.4168 2.29167 18.4168H17.7083C18.2825 18.4168 18.75 17.9493 18.75 17.3752V3.62516C18.75 3.051 18.2825 2.5835 17.7083 2.5835H2.29167Z" fill="#25793A"/>
<path d="M19.375 5.5H0.625C0.28 5.5 0 5.22 0 4.875C0 4.53 0.28 4.25 0.625 4.25H19.375C19.72 4.25 20 4.53 20 4.875C20 5.22 19.72 5.5 19.375 5.5Z" fill="#25793A"/>
</g>
<defs>
<clipPath id="clip0_1340_5499">
<rect width="20" height="20" fill="white" transform="translate(0 0.5)"/>
</clipPath>
</defs>
</svg>
