<svg width="16" height="17" viewBox="0 0 16 17" fill="none" xmlns="http://www.w3.org/2000/svg">
<g clip-path="url(#clip0_2174_1935)">
<path d="M8 16.5C12.4183 16.5 16 12.9183 16 8.5C16 4.08172 12.4183 0.5 8 0.5C3.58172 0.5 0 4.08172 0 8.5C0 12.9183 3.58172 16.5 8 16.5Z" fill="#F0F0F0"/>
<path d="M1.65379 3.62891C1.02538 4.4465 0.551541 5.38884 0.275635 6.41256H4.43745L1.65379 3.62891Z" fill="#0052B4"/>
<path d="M15.7245 6.41253C15.4486 5.38884 14.9747 4.4465 14.3463 3.62891L11.5627 6.41253H15.7245Z" fill="#0052B4"/>
<path d="M0.275635 10.5869C0.551572 11.6106 1.02542 12.5529 1.65379 13.3705L4.43735 10.5869H0.275635Z" fill="#0052B4"/>
<path d="M12.8705 2.15358C12.0529 1.52517 11.1106 1.05133 10.0869 0.775391V4.93717L12.8705 2.15358Z" fill="#0052B4"/>
<path d="M3.12939 14.8461C3.94699 15.4745 4.88933 15.9483 5.91302 16.2242V12.0625L3.12939 14.8461Z" fill="#0052B4"/>
<path d="M5.91299 0.775391C4.8893 1.05133 3.94696 1.52517 3.12939 2.15355L5.91299 4.93714V0.775391Z" fill="#0052B4"/>
<path d="M10.0869 16.2242C11.1106 15.9483 12.0529 15.4745 12.8705 14.8461L10.0869 12.0625V16.2242Z" fill="#0052B4"/>
<path d="M11.5627 10.5869L14.3463 13.3705C14.9747 12.553 15.4486 11.6106 15.7245 10.5869H11.5627Z" fill="#0052B4"/>
<path d="M15.9323 7.45653H9.04353H9.0435V0.567719C8.70191 0.52325 8.35366 0.5 8 0.5C7.64628 0.5 7.29809 0.52325 6.95653 0.567719V7.45647V7.4565H0.0677188C0.02325 7.79809 0 8.14634 0 8.5C0 8.85372 0.02325 9.20191 0.0677188 9.54347H6.95647H6.9565V16.4323C7.29809 16.4768 7.64628 16.5 8 16.5C8.35366 16.5 8.70191 16.4768 9.04347 16.4323V9.54353V9.5435H15.9323C15.9768 9.20191 16 8.85372 16 8.5C16 8.14634 15.9768 7.79809 15.9323 7.45653Z" fill="#D80027"/>
<path d="M10.0869 10.5869L13.6568 14.1568C13.821 13.9927 13.9776 13.8211 14.127 13.6432L11.0707 10.5869H10.0869V10.5869Z" fill="#D80027"/>
<path d="M5.91292 10.5869H5.91286L2.34302 14.1568C2.50714 14.3209 2.67874 14.4776 2.85661 14.627L5.91292 11.5706V10.5869Z" fill="#D80027"/>
<path d="M5.91293 6.41274V6.41268L2.34305 2.84277C2.17887 3.0069 2.02224 3.17849 1.8728 3.35637L4.92915 6.41271H5.91293V6.41274Z" fill="#D80027"/>
<path d="M10.0869 6.4132L13.6568 2.84327C13.4927 2.67908 13.3211 2.52245 13.1432 2.37305L10.0869 5.42939V6.4132Z" fill="#D80027"/>
</g>
<defs>
<clipPath id="clip0_2174_1935">
<rect width="16" height="16" fill="white" transform="translate(0 0.5)"/>
</clipPath>
</defs>
</svg>
