<svg width="16" height="13" viewBox="0 0 16 13" fill="none" xmlns="http://www.w3.org/2000/svg">
<path fill-rule="evenodd" clip-rule="evenodd" d="M9.125 5.21582C9.125 4.90516 9.37684 4.65332 9.6875 4.65332H12.5C12.8107 4.65332 13.0625 4.90516 13.0625 5.21582C13.0625 5.52648 12.8107 5.77832 12.5 5.77832H9.6875C9.37684 5.77832 9.125 5.52648 9.125 5.21582Z" fill="black"/>
<path fill-rule="evenodd" clip-rule="evenodd" d="M9.125 7.46582C9.125 7.15516 9.37684 6.90332 9.6875 6.90332H12.5C12.8107 6.90332 13.0625 7.15516 13.0625 7.46582C13.0625 7.77648 12.8107 8.02832 12.5 8.02832H9.6875C9.37684 8.02832 9.125 7.77648 9.125 7.46582Z" fill="black"/>
<path fill-rule="evenodd" clip-rule="evenodd" d="M5.47589 4.65332C4.85457 4.65332 4.35089 5.157 4.35089 5.77832C4.35089 6.39964 4.85457 6.90332 5.47589 6.90332C6.09721 6.90332 6.60089 6.39964 6.60089 5.77832C6.60089 5.157 6.09721 4.65332 5.47589 4.65332ZM3.22589 5.77832C3.22589 4.53568 4.23325 3.52832 5.47589 3.52832C6.71853 3.52832 7.72589 4.53568 7.72589 5.77832C7.72589 7.02096 6.71853 8.02832 5.47589 8.02832C4.23325 8.02832 3.22589 7.02096 3.22589 5.77832Z" fill="black"/>
<path fill-rule="evenodd" clip-rule="evenodd" d="M5.47575 8.02393C5.10106 8.02393 4.73702 8.14863 4.44102 8.37839C4.14503 8.60814 3.93393 8.92987 3.84099 9.29286C3.76393 9.59381 3.45749 9.77532 3.15654 9.69826C2.85559 9.6212 2.67409 9.31477 2.75114 9.01381C2.90604 8.40884 3.25789 7.87262 3.7512 7.48969C4.24452 7.10677 4.85126 6.89893 5.47575 6.89893C6.10025 6.89893 6.70698 7.10677 7.2003 7.48969C7.69362 7.87262 8.04546 8.40884 8.20036 9.01381C8.27742 9.31477 8.09591 9.6212 7.79496 9.69826C7.49401 9.77532 7.18757 9.59381 7.11052 9.29286C7.01758 8.92987 6.80647 8.60814 6.51048 8.37839C6.21449 8.14863 5.85045 8.02393 5.47575 8.02393Z" fill="black"/>
<path fill-rule="evenodd" clip-rule="evenodd" d="M0.6875 1.27832C0.6875 0.657 1.19118 0.15332 1.8125 0.15332H14.1875C14.8088 0.15332 15.3125 0.657 15.3125 1.27832V11.4033C15.3125 12.0246 14.8088 12.5283 14.1875 12.5283H1.8125C1.19118 12.5283 0.6875 12.0246 0.6875 11.4033V1.27832ZM14.1875 1.27832H1.8125V11.4033H14.1875V1.27832Z" fill="black"/>
</svg>
