<svg width="53" height="57" viewBox="0 0 53 57" fill="none" xmlns="http://www.w3.org/2000/svg">
<path d="M51.8 10.9C51.4 10.1 50.5 9.60001 49.5 9.60001H16.5V5.60001C16.5 5.10001 16.4 4.70001 16.2 4.20001L14.9 1.70001C14.5 0.900012 13.8 0.5 13 0.5C12.2 0.5 11.5 0.999988 11 1.79999L9.69997 4.29999C9.49997 4.69999 9.39997 5.20001 9.39997 5.70001V9.70001H3.29997C2.29997 9.70001 1.39997 10.2 0.99997 11C0.59997 11.7 0.599969 12.5 1.09997 13.2L2.69997 15.9C3.19997 16.6 3.99997 17.1 4.99997 17.1H9.49997V54.6H6.69997V56.6H9.49997H16.8H21V54.6H16.8V17H23.1V20.6H21.9C20.8 20.6 19.9 21.5 19.9 22.6V38.3C19.9 39.4 20.8 40.3 21.9 40.3H44C45.1 40.3 46 39.4 46 38.3V22.6C46 21.5 45.1 20.6 44 20.6H42.8V17H47.8C48.8 17 49.6 16.5 50.1 15.8L51.7 13.1C52.1 12.4 52.1 11.6 51.8 10.9ZM11.2 5.60001C11.2 5.40001 11.2 5.30001 11.3 5.20001L12.6 2.70001C12.7 2.60001 12.8 2.5 12.8 2.5C12.9 2.5 13 2.60001 13 2.70001L14.3 5.20001C14.4 5.30001 14.4 5.50001 14.4 5.60001V9.60001H11.1L11.2 5.60001ZM14.5 54.5H11.2V17H14.5V54.5ZM44 38.3H21.7V22.6H44V38.3ZM40.8 20.6H24.8V17H40.8V20.6ZM50 12L48.4 14.7C48.3 14.8 48.1 15 47.8 15H4.69997C4.39997 15 4.19997 14.9 4.09997 14.7L2.49997 12C2.49997 11.9 2.49997 11.9 2.49997 11.9C2.59997 11.8 2.79997 11.6 3.09997 11.6H49.4C49.7 11.6 50 11.7 50 11.9C50.1 12 50.1 12 50 12Z" fill="#58595B"/>
<path d="M26.2 54.5H22.9V56.5H26.2V54.5Z" fill="#58595B"/>
<path d="M4.2 54.5H0V56.5H4.2V54.5Z" fill="#58595B"/>
<path d="M27 29.9004V27.8004H28.7C29 27.8004 29 26.9004 28.7 26.9004H27V25.4004H28.9C29.1 25.4004 29.1 25.0004 29.1 24.9004C29.1 24.8004 29.1 24.4004 28.9 24.4004H26.2C26 24.4004 25.9 24.6004 25.9 24.8004V30.0004C25.9 30.2004 27 30.2004 27 29.9004Z" fill="#58595B"/>
<path d="M32.3 30.2008C34.1 30.2008 35 28.9008 35 27.2008C35 25.5008 34.1 24.3008 32.4 24.3008C30.6 24.3008 29.7 25.6008 29.7 27.3008C29.6 29.0008 30.5 30.2008 32.3 30.2008ZM32.4 25.2008C33.5 25.2008 33.9 26.2008 33.9 27.2008C33.9 28.1008 33.6 29.1008 32.5 29.2008C31.3 29.3008 30.9 28.3008 30.9 27.3008C30.8 26.3008 31.2 25.2008 32.4 25.2008Z" fill="#58595B"/>
<path d="M37.2 29.8999V27.6999H37.6C38.2 27.6999 38.4 28.1999 38.5 28.5999L39 29.8999C39.1 30.1999 40.2 30.1999 40.2 29.8999C40.2 29.7999 40.1 29.5999 40.1 29.4999L39.6 28.3999C39.4 27.9999 39.2 27.5999 38.8 27.3999C40.5 26.8999 40.1 24.5999 38.4 24.3999C37.7 24.2999 37 24.3999 36.3 24.3999C36.1 24.3999 36 24.5999 36 24.7999V29.9999C36 30.1999 37.2 30.1999 37.2 29.8999ZM37.2 25.1999H37.7C37.9 25.1999 38 25.1999 38.2 25.1999C38.6 25.2999 38.7 25.5999 38.7 25.9999C38.7 26.5999 38.2 26.7999 37.7 26.7999H37.1L37.2 25.1999Z" fill="#58595B"/>
<path d="M24.7 36.8003V34.6003H25.1C25.7 34.6003 25.9 35.1003 26 35.5003L26.5 36.8003C26.6 37.1003 27.7 37.1003 27.7 36.8003C27.7 36.7003 27.6 36.5003 27.6 36.4003L27.1 35.3003C26.9 34.9003 26.7 34.5003 26.3 34.3003C28 33.8003 27.6 31.5003 25.9 31.3003C25.2 31.2003 24.5 31.3003 23.8 31.3003C23.6 31.3003 23.5 31.5003 23.5 31.7003V36.9003C23.5 37.0003 24.7 37.0003 24.7 36.8003ZM24.7 32.1003H25.2C25.4 32.1003 25.5 32.1003 25.7 32.1003C26.1 32.2003 26.2 32.5003 26.2 32.9003C26.2 33.5003 25.7 33.7003 25.2 33.7003H24.6L24.7 32.1003Z" fill="#58595B"/>
<path d="M31.8 32.0992C32.1 32.0992 32.1 31.1992 31.8 31.1992H29C28.8 31.1992 28.7 31.3992 28.7 31.5992V36.5992C28.7 36.7992 28.8 36.9992 29 36.9992H31.9C32.1 36.9992 32.1 36.5992 32.1 36.4992C32.1 36.3992 32.1 35.9992 31.9 35.9992H29.9V34.3992H31.6C31.9 34.3992 31.9 33.4992 31.6 33.4992H29.9V32.0992H31.8Z" fill="#58595B"/>
<path d="M34 31.2008H33.4C33.2 31.2008 33 31.4008 33 31.6008V36.8008C33 37.1008 34 37.1008 34 36.8008C34 35.4008 34 33.9008 34 32.5008C34.3 33.4008 34.8 34.2008 35.2 35.0008C35.5 35.6008 36 37.0008 36.7 37.0008H37.2C37.4 37.0008 37.6 36.8008 37.6 36.6008V31.4008C37.6 31.1008 36.6 31.1008 36.6 31.4008C36.6 32.7008 36.6 34.1008 36.6 35.4008C36.3 34.6008 35.9 33.9008 35.5 33.1008C35.2 32.5008 34.8 31.2008 34 31.2008Z" fill="#58595B"/>
<path d="M38.5 32.0996H40V36.6996C40 36.9996 41.2 36.9996 41.2 36.6996V32.0996H42.6C42.8 32.0996 42.8 31.6996 42.8 31.5996C42.8 31.4996 42.8 31.0996 42.6 31.0996H38.6C38.3 31.1996 38.3 32.0996 38.5 32.0996Z" fill="#58595B"/>
</svg>
