<svg width="24" height="24" viewBox="0 0 24 24" fill="none" xmlns="http://www.w3.org/2000/svg">
<path d="M5.625 22.5C6.24632 22.5 6.75 21.9963 6.75 21.375C6.75 20.7537 6.24632 20.25 5.625 20.25C5.00368 20.25 4.5 20.7537 4.5 21.375C4.5 21.9963 5.00368 22.5 5.625 22.5Z" fill="black"/>
<path d="M8.25 19.875C8.87132 19.875 9.375 19.3713 9.375 18.75C9.375 18.1287 8.87132 17.625 8.25 17.625C7.62868 17.625 7.125 18.1287 7.125 18.75C7.125 19.3713 7.62868 19.875 8.25 19.875Z" fill="black"/>
<path d="M2.625 19.5C3.24632 19.5 3.75 18.9963 3.75 18.375C3.75 17.7537 3.24632 17.25 2.625 17.25C2.00368 17.25 1.5 17.7537 1.5 18.375C1.5 18.9963 2.00368 19.5 2.625 19.5Z" fill="black"/>
<path d="M5.25 16.875C5.87132 16.875 6.375 16.3713 6.375 15.75C6.375 15.1287 5.87132 14.625 5.25 14.625C4.62868 14.625 4.125 15.1287 4.125 15.75C4.125 16.3713 4.62868 16.875 5.25 16.875Z" fill="black"/>
<path d="M23.25 3H20.5566C20.16 3 19.7869 3.15375 19.5037 3.435L16.8891 6.04969L5.06156 8.01656C4.24594 8.15156 3.69187 8.925 3.82687 9.74156C3.87937 10.0575 4.0275 10.3425 4.25063 10.5619L13.4334 19.7447C13.7147 20.0306 14.0897 20.19 14.49 20.1937C14.4947 20.1937 14.4994 20.1937 14.5041 20.1937C14.8997 20.1937 15.2719 20.0419 15.555 19.7634C15.7837 19.5394 15.9319 19.2534 15.9834 18.9384L17.9503 7.11L20.5594 4.5H23.25C23.6644 4.5 24 4.16438 24 3.75C24 3.33562 23.6644 3 23.25 3ZM14.4994 18.6881L5.30719 9.49594L16.3378 7.66219L14.4994 18.6881Z" fill="black"/>
</svg>
