<svg width="18" height="16" viewBox="0 0 18 16" fill="none" xmlns="http://www.w3.org/2000/svg">
<g clip-path="url(#clip0_1096_61202)">
<path d="M2.89476 2.5C2.60705 2.5 2.37378 2.72383 2.37378 2.99998V4.4999C2.37378 4.77604 2.60705 4.99988 2.89476 4.99988C3.18247 4.99988 3.41574 4.77604 3.41574 4.4999V2.99998C3.41574 2.72383 3.18247 2.5 2.89476 2.5Z" fill="#696969"/>
<path d="M2.89476 8.5C2.60705 8.5 2.37378 8.72383 2.37378 8.99997V10.4999C2.37378 10.776 2.60705 10.9999 2.89476 10.9999C3.18247 10.9999 3.41574 10.776 3.41574 10.4999V8.99997C3.41574 8.72383 3.18247 8.5 2.89476 8.5Z" fill="#696969"/>
<path d="M12.4916 13.704C12.8512 13.704 13.1428 13.4242 13.1428 13.0791C13.1428 12.7339 12.8512 12.4541 12.4916 12.4541C12.1319 12.4541 11.8403 12.7339 11.8403 13.0791C11.8403 13.4242 12.1319 13.704 12.4916 13.704Z" fill="#696969"/>
<path d="M10.9263 11.5764C10.7228 11.7717 10.7228 12.0882 10.9263 12.2835C11.1298 12.4788 11.4596 12.4787 11.663 12.2835C12.1201 11.8449 12.8638 11.8449 13.3208 12.2835C13.4226 12.3811 13.5559 12.43 13.6892 12.43C14.1492 12.43 14.3867 11.8923 14.0576 11.5764C13.1943 10.748 11.7896 10.7479 10.9263 11.5764Z" fill="#696969"/>
<path d="M15.1627 10.5156C13.6867 9.0991 11.2973 9.09882 9.82104 10.5156C9.6176 10.7109 9.6176 11.0274 9.82104 11.2227C10.0245 11.4179 10.3543 11.4179 10.5578 11.2227C11.6267 10.1969 13.3569 10.1968 14.4258 11.2227C14.6292 11.4179 14.9591 11.418 15.1626 11.2227C15.3661 11.0274 15.3661 10.7109 15.1627 10.5156Z" fill="#696969"/>
<path d="M10.4499 7.469C10.4499 7.24719 10.4499 1.47139 10.4499 1.24994C10.4499 0.560722 9.86558 0 9.14741 0H1.85371C1.13555 0 0.55127 0.560722 0.55127 1.24994V15.4992C0.55127 15.7754 0.784537 15.9992 1.07225 15.9992H9.92887C10.2062 15.9992 10.4322 15.7911 10.4483 15.5289C13.6083 17.0143 17.2226 14.8003 17.2226 11.4994C17.2226 8.15646 13.5434 5.99001 10.4499 7.469ZM1.59323 1.24994C1.59323 1.1121 1.71009 0.999949 1.85371 0.999949H9.14741C9.29104 0.999949 9.4079 1.1121 9.4079 1.24994V6.49967H1.59323V1.24994ZM9.4079 14.9992H1.59323V7.49962H9.4079V8.14802C7.32438 9.9404 7.32359 13.0577 9.4079 14.8508V14.9992ZM12.5338 14.9992C10.5228 14.9992 8.88692 13.4293 8.88692 11.4994C8.88692 9.56951 10.5228 7.99959 12.5338 7.99959C14.5447 7.99959 16.1806 9.56951 16.1806 11.4994C16.1806 13.4293 14.5447 14.9992 12.5338 14.9992Z" fill="#696969"/>
</g>
<defs>
<clipPath id="clip0_1096_61202">
<rect width="16.6721" height="16" fill="white" transform="translate(0.550781)"/>
</clipPath>
</defs>
</svg>
