<svg width="18" height="19" viewBox="0 0 18 19" fill="none" xmlns="http://www.w3.org/2000/svg">
<g clip-path="url(#clip0_3905_6780)">
<path d="M8.99991 4.82227C7.1573 4.82227 5.6582 6.32136 5.6582 8.16397C5.6582 10.0066 7.1573 11.5057 8.99991 11.5057C10.8425 11.5057 12.3416 10.0066 12.3416 8.16397C12.3416 6.32136 10.8426 4.82227 8.99991 4.82227ZM8.99991 10.0987C7.93313 10.0987 7.06523 9.23075 7.06523 8.16397C7.06523 7.09719 7.93313 6.22929 8.99991 6.22929C10.0667 6.22929 10.9346 7.09719 10.9346 8.16397C10.9346 9.23075 10.0667 10.0987 8.99991 10.0987Z" fill="#0C1419"/>
<path d="M9.00014 0.953125C5.02393 0.953125 1.78906 4.18803 1.78906 8.1642V8.36354C1.78906 10.3745 2.94198 12.7178 5.21588 15.3284C6.86429 17.221 8.48967 18.5406 8.55801 18.5959L9.00014 18.9531L9.44226 18.5959C9.51064 18.5406 11.136 17.221 12.7844 15.3285C15.0583 12.7178 16.2112 10.3745 16.2112 8.36357V8.16423C16.2112 4.18803 12.9763 0.953125 9.00014 0.953125ZM14.8042 8.36357C14.8042 11.7619 10.4254 15.8758 9.00014 17.1246C7.57444 15.8754 3.19609 11.7617 3.19609 8.36357V8.16423C3.19609 4.96389 5.79979 2.36018 9.00014 2.36018C12.2005 2.36018 14.8042 4.96389 14.8042 8.16423V8.36357Z" fill="#0C1419"/>
</g>
<defs>
<clipPath id="clip0_3905_6780">
<rect width="18" height="18" fill="white" transform="translate(0 0.953125)"/>
</clipPath>
</defs>
</svg>
