<svg width="10" height="10" viewBox="0 0 10 10" fill="none" xmlns="http://www.w3.org/2000/svg">
<path d="M5 0.125C4.03582 0.125 3.09329 0.410914 2.2916 0.946586C1.48991 1.48226 0.865067 2.24363 0.496089 3.13442C0.127112 4.02521 0.030571 5.00541 0.218674 5.95107C0.406777 6.89672 0.871076 7.76536 1.55286 8.44715C2.23464 9.12893 3.10328 9.59323 4.04894 9.78133C4.99459 9.96943 5.97479 9.87289 6.86558 9.50391C7.75637 9.13494 8.51774 8.51009 9.05342 7.7084C9.58909 6.90671 9.875 5.96418 9.875 5C9.87351 3.70753 9.35941 2.46842 8.4455 1.5545C7.53158 0.640588 6.29247 0.126494 5 0.125V0.125ZM6.76514 6.23486C6.80002 6.26967 6.8277 6.31101 6.84659 6.35651C6.86548 6.40202 6.87522 6.45081 6.87524 6.50008C6.87527 6.54936 6.86559 6.59815 6.84674 6.64368C6.8279 6.68921 6.80026 6.73058 6.76542 6.76542C6.73058 6.80026 6.68921 6.82789 6.64368 6.84674C6.59816 6.86558 6.54936 6.87527 6.50009 6.87524C6.45081 6.87522 6.40203 6.86548 6.35652 6.84659C6.31101 6.82769 6.26967 6.80002 6.23487 6.76514L5 5.53027L3.76514 6.76514C3.69479 6.83533 3.59946 6.87473 3.50008 6.87468C3.40071 6.87462 3.30542 6.83512 3.23515 6.76485C3.16488 6.69458 3.12538 6.59929 3.12532 6.49992C3.12527 6.40054 3.16467 6.30521 3.23487 6.23486L4.46973 5L3.23487 3.76514C3.16467 3.69479 3.12527 3.59946 3.12532 3.50008C3.12538 3.40071 3.16488 3.30542 3.23515 3.23515C3.30542 3.16488 3.40071 3.12538 3.50008 3.12532C3.59946 3.12527 3.69479 3.16467 3.76514 3.23486L5 4.46973L6.23487 3.23486C6.30521 3.16467 6.40054 3.12527 6.49992 3.12532C6.5993 3.12538 6.69459 3.16488 6.76486 3.23515C6.83513 3.30542 6.87463 3.40071 6.87468 3.50008C6.87473 3.59946 6.83533 3.69479 6.76514 3.76514L5.53028 5L6.76514 6.23486Z" fill="#F70000"/>
</svg>
