<svg width="8" height="13" viewBox="0 0 8 13" fill="none" xmlns="http://www.w3.org/2000/svg">
<path d="M2.84408 6.50254L7.33325 2.01317C7.45686 1.88985 7.52486 1.72498 7.52486 1.54917C7.52486 1.37327 7.45686 1.20849 7.33325 1.08498L6.93988 0.691805C6.81647 0.568098 6.65149 0.5 6.47569 0.5C6.29988 0.5 6.1351 0.568098 6.01159 0.691805L0.666515 6.03678C0.542515 6.16068 0.474612 6.32624 0.4751 6.50224C0.474612 6.67902 0.542417 6.84439 0.666515 6.96839L6.00661 12.3082C6.13012 12.4319 6.2949 12.5 6.47081 12.5C6.64661 12.5 6.81139 12.4319 6.935 12.3082L7.32827 11.915C7.58417 11.6591 7.58417 11.2425 7.32827 10.9867L2.84408 6.50254Z" fill="#0D263B"/>
</svg>
