<svg width="17" height="17" viewBox="0 0 17 17" fill="none" xmlns="http://www.w3.org/2000/svg">
<g clip-path="url(#clip0_2429_29992)">
<path d="M16.1481 0.146667L0.146617 16.1481C-0.166826 16.4616 0.0555315 17 0.499447 17H16.5009C16.7765 17 16.9999 16.7766 16.9999 16.501V0.499531C16.9999 0.0562469 16.462 -0.167208 16.1481 0.146667ZM16.0019 16.002H1.70418L4.24202 13.4641L4.93711 14.1592C5.03454 14.2567 5.16226 14.3054 5.28994 14.3054C5.73053 14.3054 5.95804 13.7688 5.64277 13.4535L4.94769 12.7584L6.37108 11.335L7.06616 12.0301C7.1636 12.1276 7.29132 12.1763 7.41899 12.1763C7.85958 12.1763 8.0871 11.6397 7.77182 11.3244L7.07678 10.6294L8.50017 9.20596L9.19526 9.90104C9.29269 9.99848 9.42041 10.0472 9.54809 10.0472C9.98868 10.0472 10.2162 9.51058 9.90092 9.19531L9.20587 8.50026L10.6293 7.07686L11.3243 7.77195C11.4218 7.86939 11.5495 7.91809 11.6772 7.91809C12.1178 7.91809 12.3453 7.38149 12.03 7.06622L11.335 6.37117L12.7584 4.94777L13.4534 5.64285C13.5509 5.74029 13.6786 5.789 13.8063 5.789C14.2469 5.789 14.4744 5.2524 14.1591 4.93713L13.4641 4.24208L16.0019 1.70423V16.002H16.0019Z" fill="#696969"/>
<path d="M12.9209 8.39667L8.39662 12.921C8.08317 13.2344 8.30553 13.7729 8.74945 13.7729H13.2738C13.5493 13.7729 13.7728 13.5494 13.7728 13.2738V8.74953C13.7728 8.30625 13.2348 8.08279 12.9209 8.39667ZM12.7748 12.7748H9.95418L12.7748 9.95423V12.7748Z" fill="#696969"/>
</g>
<defs>
<clipPath id="clip0_2429_29992">
<rect width="17" height="17" fill="white"/>
</clipPath>
</defs>
</svg>
