<svg width="57" height="43" viewBox="0 0 57 43" fill="none" xmlns="http://www.w3.org/2000/svg">
<path d="M52.7 12.0992L45.5 9.49922V0.199219H37.4V6.49922L24.7 1.89922C24.2 1.69922 23.6 1.99922 23.4 2.49922C23.2 2.99922 23.5 3.59922 24 3.79922L25.5 4.39922V11.7992L5.20001 19.1992C4.70001 19.3992 4.4 19.9992 4.6 20.4992C4.7 20.8992 5.1 21.1992 5.6 21.1992C5.7 21.1992 5.79999 21.1992 5.89999 21.0992L7.49999 20.4992V40.1992H5.6V42.1992H7.49999H8.49999H12.4H22.3H25.6H27.6H30H38.5H47H50.4H51.4H52.9V40.1992H51.4V13.7992L52.1 14.0992C52.2 14.0992 52.3 14.1992 52.4 14.1992C52.8 14.1992 53.2 13.8992 53.4 13.4992C53.5 12.8992 53.3 12.2992 52.7 12.0992ZM39.4 2.29922H43.5V8.79922L39.4 7.29922V2.29922ZM14.3 40.1992V29.4992H20.1V40.1992H14.3ZM22.2 40.1992V29.4992C22.2 28.3992 21.3 27.4992 20.2 27.4992H14.4C13.3 27.4992 12.4 28.3992 12.4 29.4992V40.1992H9.49999V19.7992L25.6 13.8992V40.1992H22.2ZM37.4 33.2992V40.2992H31.9V33.2992H37.4ZM39.4 40.1992V33.1992H44.9V40.1992H39.4ZM49.3 40.1992H46.9V33.1992C46.9 32.0992 46 31.1992 44.9 31.1992H38.4H32C30.9 31.1992 30 32.0992 30 33.1992V40.1992H27.6V10.9992V5.09922L49.3 12.9992V40.1992Z" fill="#58595B"/>
<path d="M32.9 24.8H44C45.1 24.8 46 23.9 46 22.8V17.5C46 16.4 45.1 15.5 44 15.5H32.9C31.8 15.5 30.9 16.4 30.9 17.5V22.8C30.9 23.9 31.8 24.8 32.9 24.8ZM32.9 22.8V21.1H44V22.8H32.9ZM43.9 17.5V19.2H32.8V17.5H43.9Z" fill="#58595B"/>
<path d="M3.79996 40.1992H0.599976V42.1992H3.79996V40.1992Z" fill="#58595B"/>
<path d="M56.6 40.1992H54.6V42.1992H56.6V40.1992Z" fill="#58595B"/>
</svg>
