<svg width="57" height="54" viewBox="0 0 57 54" fill="none" xmlns="http://www.w3.org/2000/svg">
<path d="M19.4 53.8988H16C14.3 53.8988 12.9 52.5988 12.9 50.8988V45.5988C12.9 45.0988 13.3 44.7988 13.7 44.7988C14.1 44.7988 14.5 45.1988 14.5 45.5988V50.8988C14.5 51.5988 15.1 52.1988 15.9 52.1988H19.4C20.2 52.1988 20.5 51.4988 20.5 50.8988V49.4988C20.5 48.9988 20.9 48.6988 21.3 48.6988C21.7 48.6988 22.1 49.0988 22.1 49.4988V50.8988C22.3 52.5988 21.1 53.8988 19.4 53.8988Z" fill="#000000"/>
<path d="M49.7001 53.898H46.2001C44.5001 53.898 43.2001 52.598 43.2001 50.898V49.498C43.2001 48.998 43.6001 48.698 44.0001 48.698C44.4001 48.698 44.8 49.098 44.8 49.498V50.898C44.8 51.598 45.3001 52.198 46.1001 52.198H49.6001C50.4001 52.198 50.7001 51.498 50.7001 50.898V45.798C50.7001 45.298 51.1001 44.998 51.5001 44.998C51.9001 44.998 52.3 45.398 52.3 45.798V50.898C52.6 52.598 51.4001 53.898 49.7001 53.898Z" fill="#000000"/>
<path d="M45.9 49.6988H20C18.9 49.6988 17.8 49.3988 16.5 48.6988L15.7 48.1988C13.1 46.7988 11.6 44.1988 11.6 41.2988V38.9988C11.6 37.6988 12.1 36.2988 13 35.1988L14.5 33.4988H12C10.6 33.4988 9.40002 32.2988 9.40002 30.8988V29.9988C9.40002 28.6988 10.5 27.5988 11.8 27.5988H14.8C15.7 27.5988 16.5 28.1988 16.7 29.0988L16.8 29.2988C16.8 29.2988 16.8 29.2988 16.8 29.3988H16.9L17.1 29.0988C19.2 25.1988 23.1 22.7988 27.5 22.7988H38.6C42.9 22.7988 46.9 25.1988 49 29.0988L49.2 29.3988H49.4L49.5 29.0988C49.7 28.1988 50.5 27.6988 51.4 27.6988H54.4C55.5 27.6988 56.5 28.5988 56.5 29.7988V31.2988C56.5 32.4988 55.5 33.5988 54.2 33.5988H51.5L52.9 35.2988C53.8 36.3988 54.2 37.6988 54.2 39.1988V41.4988C54.2 44.3988 52.7 47.0988 50.2 48.3988L49.5 48.8988C48 49.3988 46.9 49.6988 45.9 49.6988ZM17.3 47.2988C18.3 47.7988 19.2 48.0988 19.9 48.0988H45.8C46.6 48.0988 47.4 47.7988 48.4 47.2988L49.1 46.7988C51.1 45.6988 52.3 43.5988 52.3 41.2988V38.9988C52.3 37.8988 52 36.9988 51.4 36.1988L49.4 33.7988C49.4 33.6988 49.3 33.6988 49.3 33.5988L49 32.9988C48.9 32.6988 48.9 32.3988 49 32.1988C49.2 31.9988 49.4 31.7988 49.7 31.7988H53.9C54.2 31.7988 54.5 31.4988 54.5 31.1988V29.6988C54.5 29.4988 54.3 29.2988 54.1 29.2988H51.1C51 29.2988 50.9 29.2988 50.8 29.3988L50.7 29.6988C50.5 30.4988 49.8 30.9988 49.1 30.9988H48.4C48.1 30.9988 47.8 30.7988 47.6 30.4988L47.2 29.6988C45.4 26.3988 42 24.2988 38.3 24.2988H27.2C23.5 24.2988 20.1 26.3988 18.3 29.6988L17.9 30.4988C17.8 30.7988 17.5 30.9988 17.1 30.9988H16.5C15.8 30.9988 15.1 30.3988 14.9 29.6988L14.8 29.4988C14.8 29.3988 14.6 29.2988 14.5 29.2988H11.5C11.1 29.2988 10.8 29.5988 10.8 29.9988V30.8988C10.8 31.3988 11.2 31.7988 11.7 31.7988H15.8C16.1 31.7988 16.4 31.9988 16.5 32.1988C16.7 32.4988 16.7 32.7988 16.5 32.9988L16.2 33.6988C16.2 33.7988 16.1 33.7988 16.1 33.8988L14 36.3988C13.3 37.2988 13 38.1988 13 39.1988V41.4988C13 43.6988 14.3 45.7988 16.3 46.8988L17.3 47.2988Z" fill="#000000"/>
<path d="M40.3 46.0979C39.8 46.0979 39.5 45.6979 39.5 45.2979C39.5 44.7979 39.9 44.4979 40.3 44.4979C40.6 44.4979 41.7 44.2979 42.7 44.0979C41.6 43.8979 39.6 43.5979 38.5 43.5979H27.4C26.2 43.5979 24.1 43.8979 23.1 44.0979C24 44.2979 25.2 44.4979 25.6 44.4979C26.1 44.4979 26.4 44.8979 26.4 45.2979C26.4 45.7979 26 46.0979 25.6 46.0979C24.8 46.0979 22.6 45.6979 22.4 45.5979C21.5 45.3979 20.9 44.7979 20.9 44.0979C20.9 43.3979 21.4 42.7979 22.2 42.4979H22.3C22.4 42.4979 25.8 41.8979 27.5 41.8979H38.6C40.3 41.8979 43.7 42.4979 43.8 42.5979H43.9C44.7 42.7979 45.2 43.4979 45.2 44.1979C45.2 44.8979 44.6 45.4979 43.7 45.6979C43.1 45.5979 41 46.0979 40.3 46.0979ZM18.9 42.3979C18.7 42.3979 18.6 42.3979 18.4 42.2979L15.8 41.5979C15.1 41.3979 14.5 40.9979 14 40.4979C13.7 40.1979 13.7 39.5979 14.1 39.2979C14.4 38.9979 15 38.9979 15.3 39.3979C15.6 39.6979 15.9 39.8979 16.3 39.9979L18.9 40.6979C19 40.6979 19.1 40.6979 19.1 40.5979L19.5 40.0979C19.5 39.9979 19.5 39.9979 19.5 39.8979C19.5 39.8979 19.5 39.7979 19.4 39.7979L15.6 37.0979C15.2 36.7979 15.1 36.2979 15.4 35.8979C15.7 35.4979 16.2 35.3979 16.6 35.6979L20.4 38.3979C20.8 38.6979 21.1 39.0979 21.2 39.6979C21.3 40.1979 21.2 40.6979 20.8 41.0979L20.4 41.5979C20 42.0979 19.5 42.3979 18.9 42.3979ZM47 42.3979C46.4 42.3979 45.8 42.0979 45.5 41.5979L45.1 41.0979C44.8 40.6979 44.7 40.1979 44.7 39.6979C44.8 39.1979 45.1 38.6979 45.5 38.3979L49.2 35.7979C49.6 35.4979 50.1 35.5979 50.4 35.9979C50.7 36.3979 50.6 36.8979 50.2 37.1979L46.5 39.7979C46.4 39.7979 46.4 39.8979 46.4 39.8979C46.4 39.8979 46.4 39.9979 46.4 40.0979L46.8 40.5979C46.9 40.6979 46.9 40.6979 47 40.6979L49.6 39.9979C49.9 39.8979 50.2 39.6979 50.5 39.4979C50.8 39.1979 51.4 39.1979 51.7 39.4979C52 39.7979 52 40.3979 51.7 40.6979C51.3 41.0979 50.7 41.3979 50.2 41.5979L47.6 42.2979C47.3 42.3979 47.2 42.3979 47 42.3979ZM32.9 33.5979C24.4 33.5979 20.3 32.2979 19.3 31.8979C19.1 31.7979 19 31.6979 18.9 31.5979C18.8 31.3979 18.7 31.0979 18.8 30.8979C19.4 29.0979 20.9 27.6979 22.5 26.4979C22.9 26.1979 23.4 26.2979 23.7 26.5979C24 26.9979 23.9 27.4979 23.6 27.7979C22.9 28.3979 21.5 29.3979 20.8 30.5979C22.4 31.0979 26.3 31.8979 33 31.8979C34.4 31.8979 41.1 31.7979 45.3 30.5979C44.6 29.3979 43.3 28.3979 42.3 27.5979C41.9 27.2979 41.8 26.7979 42.1 26.3979C42.4 25.9979 42.9 25.8979 43.3 26.1979C44.7 27.1979 46.7 28.7979 47.2 30.7979C47.3 30.9979 47.2 31.2979 47.1 31.4979C47 31.6979 46.8 31.7979 46.7 31.7979C45.5 32.2979 41.4 33.5979 32.9 33.5979Z" fill="#000000"/>
<path d="M13.9 18.3996H3.50003C1.80003 18.3996 0.400024 16.9996 0.400024 15.2996V3.6996C0.400024 1.9996 1.80003 0.599609 3.50003 0.599609H13.9C15.6 0.599609 17 1.9996 17 3.6996V15.2996C17.1 16.9996 15.7 18.3996 13.9 18.3996ZM3.50003 2.29961C2.70003 2.29961 2.00003 2.99961 2.00003 3.79961V15.3996C2.00003 16.1996 2.70003 16.8996 3.50003 16.8996H13.9C14.7 16.8996 15.4 16.1996 15.4 15.3996V3.79961C15.4 2.99961 14.7 2.29961 13.9 2.29961H3.50003Z" fill="#000000"/>
<path d="M11.2 10.0996C10.7 10.4996 10 10.6996 9.00003 10.6996H7.20004V13.7996H5.40002V5.09961H9.10004C10 5.09961 10.6 5.29961 11.2 5.79961C11.7 6.19961 12 6.8996 12 7.8996C12 8.8996 11.7 9.69961 11.2 10.0996ZM9.80002 6.9996C9.60002 6.7996 9.20002 6.6996 8.80002 6.6996H7.20004V9.29961H8.80002C9.20002 9.29961 9.50002 9.1996 9.80002 8.9996C10 8.7996 10.1 8.4996 10.1 7.9996C10.2 7.4996 10.1 7.0996 9.80002 6.9996Z" fill="#000000"/>
<path d="M8.70004 49.9992C8.20004 49.9992 7.90002 49.5992 7.90002 49.1992V34.4992C7.90002 33.9992 8.30004 33.6992 8.70004 33.6992C9.10004 33.6992 9.50003 34.0992 9.50003 34.4992V49.1992C9.60003 49.5992 9.20004 49.9992 8.70004 49.9992Z" fill="#000000"/>
<path d="M8.70004 27.4C8.20004 27.4 7.90002 27 7.90002 26.6V17.8C7.90002 17.3 8.30004 17 8.70004 17C9.10004 17 9.50003 17.4 9.50003 17.8V26.6C9.60003 27 9.20004 27.4 8.70004 27.4Z" fill="#000000"/>
<path d="M10.6 53.7996H2.80002C1.80002 53.7996 1.10004 52.9996 1.10004 52.0996V50.2996C1.10004 49.2996 1.90002 48.5996 2.80002 48.5996H10C10.5 48.5996 10.8 48.9996 10.8 49.3996C10.8 49.8996 10.4 50.1996 10 50.1996H2.80002V51.9996H10.6C11.1 51.9996 11.4 52.3996 11.4 52.7996C11.4 53.3996 11.1 53.7996 10.6 53.7996Z" fill="#000000"/>
</svg>
