<svg width="17" height="14" viewBox="0 0 17 14" fill="none" xmlns="http://www.w3.org/2000/svg">
<path d="M15.1659 2.5H12.4564L12.1071 0.753656C12.0198 0.316969 11.6332 0 11.1879 0H5.95642C5.51111 0 5.12446 0.316969 5.03714 0.753656L4.68786 2.5H1.97839C1.20299 2.5 0.572144 3.13084 0.572144 3.90625V12.0312C0.572144 12.8067 1.20299 13.4375 1.97839 13.4375H15.1659C15.9413 13.4375 16.5721 12.8067 16.5721 12.0312V3.90625C16.5721 3.13084 15.9413 2.5 15.1659 2.5ZM5.95642 0.9375H11.1879L11.5004 2.5H5.64392L5.95642 0.9375ZM15.6346 12.0312C15.6346 12.2897 15.4244 12.5 15.1659 12.5H1.97839C1.71992 12.5 1.50964 12.2897 1.50964 12.0312V3.90625C1.50964 3.64778 1.71992 3.4375 1.97839 3.4375H15.1659C15.4244 3.4375 15.6346 3.64778 15.6346 3.90625V12.0312Z" fill="white"/>
<path d="M8.57214 4.5C6.65946 4.5 5.10339 6.05606 5.10339 7.96875C5.10339 9.88144 6.65946 11.4375 8.57214 11.4375C10.4848 11.4375 12.0409 9.88144 12.0409 7.96875C12.0409 6.05606 10.4848 4.5 8.57214 4.5ZM8.57214 10.5C7.17639 10.5 6.04089 9.36447 6.04089 7.96875C6.04089 6.57303 7.17639 5.4375 8.57214 5.4375C9.96789 5.4375 11.1034 6.57303 11.1034 7.96875C11.1034 9.36447 9.96789 10.5 8.57214 10.5Z" fill="white"/>
<path d="M4.57214 4.5H3.07214C2.81327 4.5 2.60339 4.70987 2.60339 4.96875C2.60339 5.22763 2.81327 5.4375 3.07214 5.4375H4.57214C4.83102 5.4375 5.04089 5.22763 5.04089 4.96875C5.04089 4.70987 4.83102 4.5 4.57214 4.5Z" fill="white"/>
</svg>
