<svg width="18" height="19" viewBox="0 0 18 19" fill="none" xmlns="http://www.w3.org/2000/svg">
<path d="M9 15.1655C7.035 15.1655 5.4375 13.568 5.4375 11.603C5.4375 9.63803 7.035 8.04053 9 8.04053C10.965 8.04053 12.5625 9.63803 12.5625 11.603C12.5625 13.568 10.965 15.1655 9 15.1655ZM9 9.16553C7.6575 9.16553 6.5625 10.2605 6.5625 11.603C6.5625 12.9455 7.6575 14.0405 9 14.0405C10.3425 14.0405 11.4375 12.9455 11.4375 11.603C11.4375 10.2605 10.3425 9.16553 9 9.16553Z" fill="#0C1419"/>
<path d="M8.58016 12.8256C8.34016 12.8256 8.10016 12.7356 7.92016 12.5556L7.43266 12.0681C7.21516 11.8506 7.21516 11.4906 7.43266 11.2731C7.65016 11.0556 8.01016 11.0556 8.22766 11.2731L8.58766 11.6331L9.79516 10.5231C10.0202 10.3131 10.3802 10.3281 10.5902 10.5531C10.8002 10.7781 10.7852 11.1381 10.5602 11.3481L9.22516 12.5781C9.03766 12.7431 8.81266 12.8256 8.58016 12.8256Z" fill="#0C1419"/>
<path d="M12.0002 18.0154H6.00017C2.53517 18.0154 1.89017 16.4029 1.72517 14.8354L1.16267 8.82795C1.08017 8.04045 1.05767 6.87795 1.83767 6.00795C2.51267 5.25795 3.63017 4.89795 5.25017 4.89795H12.7502C14.3777 4.89795 15.4952 5.26545 16.1627 6.00795C16.9427 6.87795 16.9202 8.04045 16.8377 8.83545L16.2752 14.8279C16.1102 16.4029 15.4652 18.0154 12.0002 18.0154ZM5.25017 6.01545C3.98267 6.01545 3.11267 6.26295 2.67017 6.75795C2.30267 7.16295 2.18267 7.78545 2.28017 8.71545L2.84267 14.7229C2.97017 15.9079 3.29267 16.8904 6.00017 16.8904H12.0002C14.7002 16.8904 15.0302 15.9079 15.1577 14.7154L15.7202 8.72295C15.8177 7.78545 15.6977 7.16295 15.3302 6.75795C14.8877 6.26295 14.0177 6.01545 12.7502 6.01545H5.25017Z" fill="#0C1419"/>
<path d="M12 6.01562C11.6925 6.01562 11.4375 5.76062 11.4375 5.45312V4.85312C11.4375 3.51812 11.4375 3.01562 9.6 3.01562H8.4C6.5625 3.01562 6.5625 3.51812 6.5625 4.85312V5.45312C6.5625 5.76062 6.3075 6.01562 6 6.01562C5.6925 6.01562 5.4375 5.76062 5.4375 5.45312V4.85312C5.4375 3.53312 5.4375 1.89062 8.4 1.89062H9.6C12.5625 1.89062 12.5625 3.53312 12.5625 4.85312V5.45312C12.5625 5.76062 12.3075 6.01562 12 6.01562Z" fill="#0C1419"/>
<path d="M12.0074 11.7455C11.7524 11.7455 11.5274 11.573 11.4599 11.318C11.3849 11.018 11.5649 10.7105 11.8649 10.6355C13.3274 10.268 14.6849 9.63049 15.8999 8.74549C16.1474 8.56549 16.4999 8.61799 16.6874 8.87299C16.8674 9.12049 16.8149 9.47298 16.5599 9.66048C15.2249 10.628 13.7399 11.3255 12.1349 11.7305C12.0974 11.738 12.0524 11.7455 12.0074 11.7455Z" fill="#0C1419"/>
<path d="M6.00005 11.768C5.95505 11.768 5.91005 11.7605 5.86505 11.753C4.35755 11.3855 2.94005 10.748 1.64255 9.86298C1.38755 9.69048 1.32005 9.33798 1.49255 9.08298C1.66505 8.82798 2.01755 8.76048 2.27255 8.93298C3.45755 9.74298 4.74755 10.3205 6.12755 10.658C6.42755 10.733 6.61505 11.033 6.54005 11.3405C6.48755 11.5955 6.25505 11.768 6.00005 11.768Z" fill="#0C1419"/>
</svg>
