<svg width="39" height="57" viewBox="0 0 39 57" fill="none" xmlns="http://www.w3.org/2000/svg">
<path d="M35.7 17.8004C36.6 16.1004 37.1 14.3004 37.1 12.3004C37.1 5.80039 31.8 0.400391 25.2 0.400391C18.6 0.400391 13.3 5.70039 13.3 12.3004C13.3 13.5004 13.5 14.7004 13.8 15.8004C12.7 16.5004 11.8 17.3004 11.1 18.3004C8.70002 21.6004 8.50002 26.0004 10.6 29.5004L8.00002 33.5004L7.80002 34.1004L8.20003 35.9004L6.60002 36.2004C6.00002 36.3004 5.60003 36.9004 5.70003 37.5004L6.00002 39.1004L4.40003 39.4004C3.80003 39.5004 3.40002 40.1004 3.60002 40.7004L3.90003 42.3004L2.30002 42.6004L1.70003 42.8004L0.800024 44.3004C0.500024 44.7004 0.400025 45.2004 0.500025 45.7004L1.10002 49.4004C1.20002 49.9004 1.50002 50.4004 2.00002 50.7004C2.30002 50.9004 2.70002 51.0004 3.10002 51.0004C3.30002 51.0004 3.40002 51.0004 3.60002 50.9004L7.30002 50.0004C7.80002 49.9004 8.20003 49.6004 8.40003 49.2004L18.1 34.3004C19.9 34.5004 21.6 34.2004 23.2 33.6004C23.4 33.7004 23.5 33.8004 23.7 33.9004V38.7004V39.2004L25.2 40.7004L24.1 41.8004C23.7 42.2004 23.7 42.9004 24.1 43.4004L25.2 44.5004L24.1 45.6004L23.8 46.0004V46.9004L25.2 48.3004L24 49.5004L23.7 49.9004V51.8004C23.7 52.3004 23.9 52.8004 24.2 53.1004L26.7 55.9004C27.1 56.3004 27.6 56.5004 28.1 56.5004C28.6 56.5004 29.2 56.3004 29.5 55.9004L32 53.1004C32.3 52.7004 32.5 52.3004 32.5 51.8004V34.1004C36 32.4004 38.3 28.9004 38.3 24.9004C38.5 22.2004 37.5 19.7004 35.7 17.8004ZM25.1 2.50039C30.6 2.50039 35 6.90038 35 12.4004C35 13.8004 34.7 15.2004 34.1 16.5004C32.3 15.3004 30.2 14.6004 27.9 14.7004C26.7 14.7004 25.5 15.0004 24.4 15.5004C21.8 14.0004 18.5 13.9004 15.5 15.0004C15.3 14.1004 15.1 13.3004 15.1 12.4004C15.2 6.90038 19.6 2.50039 25.1 2.50039ZM18.4 32.5004C17.6 32.4004 16.9 32.7004 16.5 33.4004L6.80002 48.3004L3.20003 49.3004L2.60002 45.6004L3.20003 44.7004L5.40003 44.2004C6.00003 44.1004 6.40002 43.5004 6.20003 42.9004L5.90003 41.3004L7.50002 41.0004C8.10002 40.9004 8.50003 40.3004 8.40003 39.7004L8.10002 38.1004L9.70003 37.8004L9.90003 37.7004C10.4 37.5004 10.7 37.0004 10.6 36.4004L10.1 34.3004L12.5 30.6004C12.9 30.0004 12.9 29.1004 12.5 28.5004C10.8 25.7004 11 22.1004 12.9 19.5004C13.5 18.6004 14.4 17.9004 15.5 17.3004L15.7 17.2004C17.9 16.1004 20.5 15.9004 22.6 16.7004C20.2 18.5004 18.4 21.3004 18.3 24.3004C18.2 27.3004 19.4 30.2004 21.5 32.2004C20.3 32.5004 19.3 32.6004 18.4 32.5004ZM31.9 32.2004C31.2 32.5004 30.8 33.2004 30.8 34.0004V51.7004L28.3 54.5004L25.8 51.7004V50.7004L27.4 49.2004C27.6 49.0004 27.7 48.7004 27.7 48.4004V47.9004L26.3 46.5004L27.4 45.4004C27.8 45.0004 27.8 44.3004 27.4 43.8004L26.3 42.7004L27.4 41.6004C27.6 41.4004 27.7 41.1004 27.7 40.8004V40.3004L25.9 38.5004V34.0004C25.9 33.3004 25.5 32.6004 24.8 32.2004C21.8 30.8004 20 27.7004 20.2 24.4004C20.4 20.4004 24.2 16.7004 28.2 16.6004C30.1 16.6004 31.8 17.1004 33.3 18.2004C32.8 18.8004 32.3 19.4004 31.6 19.9004C30.8 19.0004 29.7 18.4004 28.4 18.4004C26.1 18.4004 24.3 20.3004 24.3 22.5004C24.3 24.8004 26.2 26.6004 28.4 26.6004C30.7 26.6004 32.5 24.7004 32.5 22.5004C32.5 22.2004 32.5 22.0004 32.4 21.7004C33.2 21.1004 34 20.3004 34.6 19.5004C35.9 21.0004 36.5 22.8004 36.5 24.8004C36.5 28.0004 34.7 30.8004 31.9 32.2004ZM30.4 22.6004C30.4 23.8004 29.4 24.7004 28.3 24.7004C27.1 24.7004 26.2 23.7004 26.2 22.6004C26.2 21.5004 27.2 20.5004 28.3 20.5004C29.4 20.4004 30.4 21.4004 30.4 22.6004Z" fill="#000000"/>
</svg>
