<svg width="18" height="16" viewBox="0 0 18 16" fill="none" xmlns="http://www.w3.org/2000/svg">
<g clip-path="url(#clip0_1096_61177)">
<path d="M16.3254 6.4375H15.9998V5.03125C15.9998 4.34192 15.4153 3.78125 14.6973 3.78125C14.4462 3.78125 14.2114 3.84973 14.0124 3.96838C13.8792 3.41406 13.3605 3 12.7435 3H12.7431C12.0252 3 11.4406 3.56067 11.4406 4.25V6.4375H6.49181V4.25C6.49181 3.56067 5.90721 3 5.18892 3C4.57188 3 4.05316 3.41406 3.91999 3.96838C3.72105 3.84973 3.48624 3.78125 3.23515 3.78125C2.51711 3.78125 1.93264 4.34192 1.93264 5.03125V6.4375H1.60701C1.06845 6.4375 0.630127 6.85815 0.630127 7.375V8.625C0.630127 9.14185 1.06845 9.5625 1.60701 9.5625H1.93264V10.9688C1.93264 11.6581 2.51711 12.2188 3.23515 12.2188C3.48624 12.2188 3.72105 12.1503 3.91999 12.0316C4.05316 12.5859 4.57188 13 5.18892 13H5.1893C5.90721 13 6.49181 12.4393 6.49181 11.75V9.5625H11.4406V11.75C11.4406 12.4393 12.0252 13 12.7435 13C13.3605 13 13.8792 12.5859 14.0124 12.0316C14.2114 12.1503 14.4462 12.2188 14.6973 12.2188C15.4153 12.2188 15.9998 11.6581 15.9998 10.9688V9.5625H16.3254C16.8639 9.5625 17.3023 9.14185 17.3023 8.625V7.375C17.3023 6.85815 16.8639 6.4375 16.3254 6.4375ZM1.93264 8.9375H1.60701C1.42753 8.9375 1.28138 8.79724 1.28138 8.625V7.375C1.28138 7.20276 1.42753 7.0625 1.60701 7.0625H1.93264V8.9375ZM3.88641 10.9688C3.88641 11.1412 3.81352 11.2975 3.69561 11.4106C3.57769 11.5238 3.41488 11.5938 3.23515 11.5938C2.87594 11.5938 2.58389 11.3135 2.58389 10.9688V5.03125C2.58389 4.68652 2.87594 4.40625 3.23515 4.40625C3.59436 4.40625 3.88641 4.68652 3.88641 5.03125V10.9688ZM5.84055 11.75C5.84055 12.0947 5.54813 12.375 5.1893 12.375H5.18892C4.83009 12.375 4.53766 12.0947 4.53766 11.75V4.25C4.53766 3.90527 4.83009 3.625 5.1893 3.625C5.54813 3.625 5.84055 3.90527 5.84055 4.25V11.75ZM11.4387 7.6875H9.16158C8.98184 7.6875 8.83595 7.82751 8.83595 8C8.83595 8.17249 8.98184 8.3125 9.16158 8.3125H11.4387V8.9375H6.49016V7.0625H11.4387V7.6875ZM13.3947 11.75C13.3947 12.0947 13.1023 12.375 12.7431 12.375C12.3843 12.375 12.0918 12.0947 12.0918 11.75V8.01599C12.0916 8.02283 12.091 8.02966 12.0899 8.03625V7.96375C12.091 7.97034 12.0916 7.97717 12.0918 7.98401V4.25C12.0918 3.90527 12.3843 3.625 12.7431 3.625H12.7435C13.1023 3.625 13.3947 3.90527 13.3947 4.25V11.75ZM15.3485 10.9688C15.3485 11.3135 15.0565 11.5938 14.6973 11.5938C14.338 11.5938 14.046 11.3135 14.046 10.9688V5.03125C14.046 4.68652 14.338 4.40625 14.6973 4.40625C15.0565 4.40625 15.3485 4.68652 15.3485 5.03125V10.9688ZM16.651 8.625C16.651 8.79724 16.5049 8.9375 16.3254 8.9375H15.9998V7.0625H16.3254C16.5049 7.0625 16.651 7.20276 16.651 7.375V8.625Z" fill="#696969"/>
<path d="M7.86018 8.3125C7.68032 8.3125 7.53442 8.17261 7.53442 8C7.53442 7.82739 7.68007 7.6875 7.85992 7.6875H7.86018C8.04004 7.6875 8.18581 7.82739 8.18581 8C8.18581 8.17261 8.04004 8.3125 7.86018 8.3125Z" fill="#696969"/>
</g>
<defs>
<clipPath id="clip0_1096_61177">
<rect width="16.6721" height="16" fill="white" transform="translate(0.630127)"/>
</clipPath>
</defs>
</svg>
