<svg width="6" height="10" viewBox="0 0 6 10" fill="none" xmlns="http://www.w3.org/2000/svg">
<path d="M0.493662 0.159839L0.163822 0.487403C0.0608132 0.590493 0.00406476 0.727648 0.00406477 0.874234C0.00406477 1.02074 0.0608132 1.15806 0.163822 1.26115L3.9006 4.99776L0.159676 8.73869C0.0566671 8.84162 -4.46322e-08 8.97893 -3.82282e-08 9.12544C-3.18243e-08 9.27195 0.0566672 9.40934 0.159676 9.51235L0.487484 9.84C0.700656 10.0533 1.04789 10.0533 1.26107 9.84L5.7311 5.38598C5.83403 5.28305 5.90655 5.1459 5.90655 4.99809L5.90655 4.99638C5.90655 4.8498 5.83395 4.71264 5.7311 4.60971L1.27318 0.159839C1.17025 0.0567483 1.02895 0.000163033 0.882446 -3.85729e-08C0.735859 -3.21654e-08 0.596508 0.0567484 0.493662 0.159839Z" fill="#0D263B"/>
</svg>
