<svg width="15" height="13" viewBox="0 0 15 13" fill="none" xmlns="http://www.w3.org/2000/svg">
<path d="M13.7576 1.36542C12.1263 -0.186851 9.47125 -0.186851 7.8395 1.36506L7.50021 1.68733L7.16128 1.36521C5.52935 -0.186909 2.87462 -0.186733 1.24269 1.36521C0.441423 2.12734 0.000183105 3.13823 0.000183105 4.21137C0.000183105 5.28487 0.441423 6.29558 1.24281 7.05803L7.1379 12.6547C7.23929 12.7512 7.36984 12.7993 7.50018 12.7993C7.63053 12.7993 7.7609 12.751 7.86247 12.6545L13.7576 7.05803C14.5588 6.29576 15.0002 5.2849 15.0002 4.21155C15.0002 3.13823 14.5588 2.12751 13.7576 1.36542ZM13.0323 6.29488L7.50018 11.5472L1.96826 6.29505C1.3779 5.73367 1.05282 4.99366 1.05282 4.21155C1.05282 3.42944 1.3779 2.68943 1.96826 2.12804C2.58405 1.54208 3.39282 1.24928 4.20177 1.24928C5.01089 1.24928 5.82001 1.54243 6.4358 2.12839L7.13755 2.7949C7.34069 2.98805 7.65947 2.98805 7.86264 2.7949L8.56457 2.12804C9.79633 0.956284 11.8003 0.956284 13.0321 2.12804C13.6223 2.68946 13.9475 3.42944 13.9475 4.21155C13.9475 4.99366 13.6223 5.73349 13.0323 6.29488Z" fill="white"/>
</svg>
