<svg width="17" height="16" viewBox="0 0 17 16" fill="none" xmlns="http://www.w3.org/2000/svg">
<g clip-path="url(#clip0_1096_61242)">
<path d="M0.219636 5.43754C1.31771 6.22798 2.31849 7.13841 3.16307 8.11088C2.34809 7.83944 1.44572 7.68757 0.582709 7.68757H0.415011C0.271508 7.68757 0.144937 7.77772 0.103354 7.9095C0.0617718 8.04132 0.114979 8.18369 0.234386 8.26006C0.400033 8.40075 2.46343 9.41309 3.05698 11.4873C2.12895 11.6785 1.41905 12.4061 1.28483 13.3125H0.415044C0.235201 13.3125 0.0894175 13.4524 0.0894175 13.625C0.0894175 13.7976 0.235201 13.9375 0.415044 13.9375H4.19231C4.37216 13.9375 4.51794 13.7976 4.51794 13.625C4.51794 13.4524 4.37216 13.3125 4.19231 13.3125H1.94542C2.09052 12.6221 2.70736 12.0961 3.46841 12.0641C3.90993 12.0451 4.33764 12.197 4.66004 12.49C4.81432 12.6302 5.06545 12.5932 5.16867 12.4148C5.62018 11.634 6.47951 11.125 7.44858 11.125C8.27036 11.125 9.00276 11.4871 9.4841 12.0654C9.22269 12.3707 9.07671 12.7553 9.07671 13.1563C9.07671 13.2087 9.07932 13.2608 9.0842 13.3125H7.12298C6.94314 13.3125 6.79736 13.4524 6.79736 13.625C6.79736 13.7976 6.94314 13.9375 7.12298 13.9375H16.4359C16.6157 13.9375 16.7615 13.7976 16.7615 13.625C16.7615 13.4524 16.6157 13.3125 16.4359 13.3125H15.5661C15.4318 12.406 14.7218 11.6783 13.7939 11.4872C14.3872 9.41393 16.447 8.40397 16.6165 8.26003C16.7359 8.18366 16.7891 8.04128 16.7475 7.90947C16.7059 7.77769 16.5794 7.68754 16.4359 7.68754H16.2682C15.4949 7.68754 14.6736 7.80913 13.9348 8.02482C15.1095 6.39513 16.4437 5.59276 16.6312 5.43757C16.7529 5.35001 16.7952 5.19329 16.7331 5.06001C16.6711 4.92673 16.5212 4.85248 16.372 4.88108C14.4499 5.24992 12.6885 6.17079 11.352 7.43685C11.5408 6.04985 11.9671 4.7132 12.6242 3.4523C12.6869 3.33199 12.6623 3.18668 12.5632 3.09158C12.4641 2.99649 12.3127 2.97287 12.1873 3.03302C10.458 3.8628 9.08648 5.33583 8.45737 7.20363C7.45014 5.09373 5.79156 3.3063 3.70856 2.10706C3.58039 2.03324 3.41641 2.05265 3.31078 2.15406C3.20511 2.25546 3.18495 2.41284 3.2618 2.53577C4.36662 4.39111 5.09052 5.20111 5.64461 6.85423C4.22598 5.5697 2.28228 4.87498 0.415011 4.87498C0.274862 4.87498 0.15044 4.96105 0.10609 5.08864C0.0618043 5.21633 0.107522 5.35683 0.219636 5.43754ZM4.80286 11.8028C4.4801 11.5964 4.10798 11.4729 3.71794 11.4441C3.42983 10.3149 2.6465 9.20981 1.55155 8.37841C2.43106 8.49606 3.29479 8.76691 3.98899 9.15131C4.49462 9.85153 4.92103 10.5772 5.25903 11.3123C5.08889 11.4605 4.9363 11.6243 4.80286 11.8028ZM14.9055 13.3125H9.73965C9.73203 13.2611 9.72797 13.209 9.72797 13.1563C9.72797 12.8393 9.87117 12.5381 10.1209 12.33C10.3279 12.1575 10.5931 12.0625 10.8677 12.0625C11.203 12.0625 11.5198 12.2033 11.7369 12.4488C11.737 12.4489 11.7371 12.449 11.7372 12.4491C11.8564 12.5835 12.07 12.5964 12.2058 12.4765C12.2059 12.4764 12.2059 12.4764 12.206 12.4763C12.5253 12.1936 12.9465 12.0456 13.3829 12.0641C14.1436 12.0961 14.7604 12.6221 14.9055 13.3125ZM13.133 11.4441C12.8751 11.4632 12.6247 11.5239 12.3912 11.6226C12.5487 10.687 12.8801 9.77093 13.3792 8.89025C13.9423 8.64394 14.6168 8.46566 15.3017 8.37669C14.2055 9.20828 13.4213 10.3141 13.133 11.4441ZM14.9749 5.92382C13.2833 7.43379 12.0646 9.44656 11.7285 11.6492C11.4678 11.512 11.1727 11.4376 10.8677 11.4376C10.555 11.4376 10.2503 11.5163 9.98218 11.6627C9.87248 11.5324 9.75222 11.4106 9.62175 11.2983C9.79742 10.9287 10.085 9.821 11.1885 8.53356C12.1735 7.38404 13.5048 6.47454 14.9749 5.92382ZM11.6062 4.09383C11.047 5.40704 10.7162 6.78901 10.6191 8.21534C10.116 8.81603 9.70432 9.46634 9.39231 10.1539C9.2786 9.48296 9.10244 8.82169 8.86815 8.18147C9.19316 6.52641 10.1884 5.05705 11.6062 4.09383ZM4.59772 3.45783C6.24343 4.7148 7.50885 6.39792 8.22552 8.31053C8.50862 9.06565 8.70494 9.85299 8.80895 10.6507L8.82748 10.7929C8.3999 10.6004 7.93305 10.5 7.44858 10.5C7.2281 10.5 7.01042 10.5215 6.79733 10.563V9.91874C6.79733 6.3336 4.9437 4.09711 4.59772 3.45783ZM5.98625 8.17744C6.09195 8.75019 6.14607 9.33559 6.14607 9.91878V10.7606C6.02556 10.8112 5.90853 10.8685 5.7955 10.9326C4.81843 8.86969 3.2649 7.04941 1.44634 5.57617C3.27085 5.8446 4.97606 6.80548 5.98625 8.17744Z" fill="#696969"/>
<path d="M5.65693 13.9375C5.83677 13.9375 5.98255 13.7976 5.98255 13.625C5.98255 13.4524 5.83677 13.3125 5.65693 13.3125C5.47709 13.3125 5.3313 13.4524 5.3313 13.625C5.3313 13.7976 5.47709 13.9375 5.65693 13.9375Z" fill="#696969"/>
</g>
<defs>
<clipPath id="clip0_1096_61242">
<rect width="16.6721" height="16" fill="white" transform="translate(0.090332)"/>
</clipPath>
</defs>
</svg>
