<svg width="16" height="15" viewBox="0 0 16 15" fill="none" xmlns="http://www.w3.org/2000/svg">
<g clip-path="url(#clip0_1096_61171)">
<path d="M3.86331 4.82012C4.60172 4.82012 5.20246 4.23948 5.20246 3.52578C5.20246 2.81208 4.60172 2.23145 3.86331 2.23145C3.1249 2.23145 2.52417 2.81208 2.52417 3.52578C2.52417 4.23948 3.1249 4.82012 3.86331 4.82012ZM3.86331 3.05762C4.1304 3.05762 4.34769 3.26763 4.34769 3.52578C4.34769 3.78393 4.1304 3.99395 3.86331 3.99395C3.59623 3.99395 3.37894 3.78393 3.37894 3.52578C3.37894 3.26763 3.59623 3.05762 3.86331 3.05762Z" fill="#696969"/>
<path d="M12.3396 1.57209L10.07 1.35274C3.48498 0.409807 3.91219 0.468493 3.86327 0.468493C2.10366 0.468493 0.672119 1.83977 0.672119 3.52533C0.672119 4.12612 0.8541 4.68693 1.16789 5.15999C1.17561 5.19224 1.54877 6.45243 2.99645 11.3498C3.04887 11.5271 3.21658 11.6494 3.40739 11.6494H3.66382V13.2191C3.66382 13.4472 3.85518 13.6322 4.09121 13.6322C4.32724 13.6322 4.5186 13.4472 4.5186 13.2191V11.6494H5.00297C5.239 11.6494 5.43036 11.4644 5.43036 11.2363V6.36229L10.07 5.69791L12.3395 5.47856C12.558 5.45744 12.7244 5.27973 12.7244 5.06752V1.98314C12.7244 1.77093 12.5581 1.59322 12.3396 1.57209ZM3.83307 1.29486L9.59025 2.11921V4.93142L3.83307 5.7558C2.5586 5.74035 1.52689 4.74569 1.52689 3.52533C1.52689 2.30496 2.5586 1.31031 3.83307 1.29486ZM4.57558 10.8232H3.72976L2.37101 6.22663C2.8166 6.45342 3.32451 6.58216 3.86327 6.58216C3.90815 6.58216 3.8743 6.58508 4.57558 6.48468V10.8232ZM11.8696 4.69367L10.445 4.83137V2.21929L11.8696 2.35698V4.69367Z" fill="#696969"/>
<path d="M14.1205 3.05762H14.8328C15.0688 3.05762 15.2602 2.87266 15.2602 2.64453C15.2602 2.4164 15.0688 2.23145 14.8328 2.23145H14.1205C13.8845 2.23145 13.6931 2.4164 13.6931 2.64453C13.6931 2.87266 13.8845 3.05762 14.1205 3.05762Z" fill="#696969"/>
<path d="M14.8328 3.99316H14.1205C13.8845 3.99316 13.6931 4.17812 13.6931 4.40625C13.6931 4.63438 13.8845 4.81934 14.1205 4.81934H14.8328C15.0688 4.81934 15.2602 4.63438 15.2602 4.40625C15.2602 4.17812 15.0688 3.99316 14.8328 3.99316Z" fill="#696969"/>
</g>
<defs>
<clipPath id="clip0_1096_61171">
<rect width="14.5881" height="14.1" fill="white" transform="translate(0.672119)"/>
</clipPath>
</defs>
</svg>
