<svg width="30" height="30" viewBox="0 0 30 30" fill="none" xmlns="http://www.w3.org/2000/svg">
<g clip-path="url(#clip0_1096_97331)">
<path d="M20.3448 17.6503L16.162 14.5132V8.12285C16.162 7.48031 15.6426 6.96094 15 6.96094C14.3575 6.96094 13.8381 7.48031 13.8381 8.12285V15.0942C13.8381 15.4602 14.0101 15.8053 14.3029 16.0237L18.9504 19.5094C19.1596 19.6663 19.4036 19.7418 19.6464 19.7418C20.0008 19.7418 20.3494 19.5826 20.5771 19.2759C20.963 18.7634 20.8584 18.0349 20.3448 17.6503Z" fill="#25793A"/>
<path d="M15 0C6.7285 0 0 6.7285 0 15C0 23.2715 6.7285 30 15 30C23.2715 30 30 23.2715 30 15C30 6.7285 23.2715 0 15 0ZM15 27.6762C8.01123 27.6762 2.32377 21.9888 2.32377 15C2.32377 8.01123 8.01123 2.32377 15 2.32377C21.9899 2.32377 27.6762 8.01123 27.6762 15C27.6762 21.9888 21.9888 27.6762 15 27.6762Z" fill="#25793A"/>
</g>
<defs>
<clipPath id="clip0_1096_97331">
<rect width="30" height="30" fill="white"/>
</clipPath>
</defs>
</svg>
