<svg width="21" height="21" viewBox="0 0 21 21" fill="none" xmlns="http://www.w3.org/2000/svg">
<path d="M19.8059 1.44998C19.7717 1.40238 19.7341 1.35858 19.6936 1.31754C19.6918 1.31555 19.6903 1.31342 19.6883 1.31159C19.6866 1.30991 19.6846 1.30838 19.6829 1.3067C19.4566 1.0827 19.1419 0.960938 18.7775 0.960938C18.5707 0.960938 18.3487 1 18.1178 1.07706L1.1215 6.74235C0.222297 7.04219 0.0584177 7.56557 0.04087 7.85075C0.0231698 8.13609 0.121284 8.67564 0.976388 9.08397L5.24428 11.1222L3.33433 15.8386C3.3296 15.85 3.32533 15.8616 3.32152 15.8732C3.10927 16.51 3.19472 17.0825 3.5562 17.4438C3.78706 17.6747 4.10399 17.7929 4.46883 17.7929C4.67513 17.7929 4.89668 17.7551 5.12663 17.6785C5.13838 17.6745 5.14983 17.6704 5.16127 17.6657L9.87777 15.7557L11.9159 20.0235C12.3055 20.8391 12.8189 20.961 13.0904 20.961C13.3328 20.961 13.9319 20.8554 14.2575 19.8784L19.923 2.88202C20.1096 2.32218 20.0681 1.8136 19.8059 1.44998ZM1.30811 7.92934C1.3545 7.90584 1.41523 7.8799 1.49214 7.85426L17.7295 2.44165L8.56887 11.6024C8.2347 11.3214 7.88528 11.0849 7.55385 10.9266L1.4813 8.02638C1.40821 7.99144 1.3513 7.95833 1.30811 7.92934ZM4.73998 16.5721C4.5378 16.6369 4.4232 16.6258 4.38658 16.6134C4.37422 16.5767 4.36308 16.4622 4.42793 16.26L6.3037 11.6282L7.04879 11.9842C7.75802 12.3228 8.67706 13.242 9.0158 13.9511L9.37179 14.6963L4.73998 16.5721ZM13.1458 19.5079C13.1201 19.5849 13.0942 19.6455 13.0707 19.6919C13.0415 19.6487 13.0083 19.5918 12.9733 19.5184L10.0732 13.446C9.915 13.1146 9.67849 12.7653 9.39742 12.431L18.5584 3.27021L13.1458 19.5079Z" fill="white"/>
</svg>
