<svg width="28" height="28" viewBox="0 0 28 28" fill="none" xmlns="http://www.w3.org/2000/svg">
<path d="M7 6H11L13 11L10.5 12.5C11.571 14.6715 13.3285 16.429 15.5 17.5L17 15L22 17V21C22 21.5304 21.7893 22.0391 21.4142 22.4142C21.0391 22.7893 20.5304 23 20 23C16.0993 22.763 12.4202 21.1065 9.65683 18.3432C6.8935 15.5798 5.23705 11.9007 5 8C5 7.46957 5.21071 6.96086 5.58579 6.58579C5.96086 6.21071 6.46957 6 7 6" stroke="#444444" stroke-width="1.5" stroke-linecap="round" stroke-linejoin="round"/>
<path d="M17 9C17.5304 9 18.0391 9.21071 18.4142 9.58579C18.7893 9.96086 19 10.4696 19 11" stroke="#444444" stroke-width="1.5" stroke-linecap="round" stroke-linejoin="round"/>
<path d="M17 5C18.5913 5 20.1174 5.63214 21.2426 6.75736C22.3679 7.88258 23 9.4087 23 11" stroke="#444444" stroke-width="1.5" stroke-linecap="round" stroke-linejoin="round"/>
</svg>
