<svg width="17" height="16" viewBox="0 0 17 16" fill="none" xmlns="http://www.w3.org/2000/svg">
<g clip-path="url(#clip0_1096_61180)">
<path d="M14.5421 0H2.33479C1.53761 0 0.88916 0.621094 0.88916 1.38464V14.6154C0.88916 15.3789 1.53761 16 2.33479 16H14.5421C15.3393 16 15.9877 15.3789 15.9877 14.6154V1.38464C15.9877 0.621094 15.3393 0 14.5421 0V0ZM1.85292 1.38464C1.85292 1.13013 2.06907 0.923096 2.33479 0.923096H14.5421C14.8078 0.923096 15.024 1.13013 15.024 1.38464V3.23071H1.85292V1.38464ZM15.024 14.6154C15.024 14.8699 14.8078 15.0769 14.5421 15.0769H2.33479C2.06907 15.0769 1.85292 14.8699 1.85292 14.6154V4.15381H15.024V14.6154Z" fill="#696969"/>
<path d="M11.6514 1.61523H10.6879C10.4218 1.61523 10.2061 1.8219 10.2061 2.07678C10.2061 2.33167 10.4218 2.53833 10.6879 2.53833H11.6514C11.9175 2.53833 12.1333 2.33167 12.1333 2.07678C12.1333 1.8219 11.9175 1.61523 11.6514 1.61523Z" fill="#696969"/>
<path d="M14.221 1.61523H13.2575C12.9914 1.61523 12.7756 1.8219 12.7756 2.07678C12.7756 2.33167 12.9914 2.53833 13.2575 2.53833H14.221C14.4871 2.53833 14.7028 2.33167 14.7028 2.07678C14.7028 1.8219 14.4871 1.61523 14.221 1.61523Z" fill="#696969"/>
<path d="M3.78174 9.61584C3.78174 12.0759 5.87124 14.0774 8.43968 14.0774C11.0083 14.0774 13.0978 12.0759 13.0978 9.61584C13.0978 9.49609 13.0927 9.37744 13.083 9.26013C13.083 9.25952 13.0828 9.25891 13.0828 9.25842C12.8921 6.96484 10.8826 5.1543 8.43968 5.1543C5.9969 5.1543 3.98744 6.96484 3.79665 9.25842C3.79652 9.25891 3.79652 9.25952 3.79652 9.26013C3.78684 9.37744 3.78174 9.49609 3.78174 9.61584ZM8.43968 13.1543C6.48541 13.1543 4.88097 11.6932 4.75378 9.85181C4.85778 9.89282 4.94992 9.94702 5.05506 10.0089C5.33927 10.1765 5.69319 10.3851 6.35159 10.3851C7.00998 10.3851 7.36377 10.1766 7.64811 10.009C7.88376 9.87012 8.0539 9.76978 8.43955 9.76978C8.82521 9.76978 8.99548 9.87012 9.23113 10.009C9.51546 10.1765 9.86939 10.3851 10.5278 10.3851C11.1862 10.3851 11.5401 10.1766 11.8244 10.009C11.9296 9.94702 12.0217 9.89282 12.1256 9.85181C11.9985 11.6932 10.3941 13.1543 8.43968 13.1543ZM8.43968 6.07739C10.2227 6.07739 11.7147 7.29346 12.0592 8.90515C11.7336 8.97913 11.5104 9.11023 11.3194 9.22278C11.0837 9.36169 10.9134 9.46204 10.5278 9.46204C10.1421 9.46204 9.97185 9.36169 9.7362 9.22278C9.45187 9.05518 9.09807 8.84656 8.43955 8.84656C7.78116 8.84656 7.42737 9.05518 7.14303 9.22278C6.90738 9.36169 6.73711 9.46204 6.35159 9.46204C5.96593 9.46204 5.79566 9.36169 5.56001 9.22278C5.36897 9.11011 5.14593 8.979 4.82031 8.90515C5.1648 7.29346 6.65682 6.07739 8.43968 6.07739Z" fill="#696969"/>
</g>
<defs>
<clipPath id="clip0_1096_61180">
<rect width="16.6721" height="16" fill="white" transform="translate(0.090332)"/>
</clipPath>
</defs>
</svg>
