<svg width="18" height="23" viewBox="0 0 18 23" fill="none" xmlns="http://www.w3.org/2000/svg">
<path d="M15.8906 2.99902H2.10938C0.946266 2.99902 0 4.18594 0 5.64485V16.9337C0 18.3926 0.946266 19.5795 2.10938 19.5795H15.8906C17.0537 19.5795 18 18.3926 18 16.9337V5.64485C18 4.18594 17.0537 2.99902 15.8906 2.99902ZM16.5938 16.9337C16.5938 17.42 16.2783 17.8157 15.8906 17.8157H2.10938C1.72167 17.8157 1.40625 17.42 1.40625 16.9337V5.64485C1.40625 5.15855 1.72167 4.76291 2.10938 4.76291H15.8906C16.2783 4.76291 16.5938 5.15855 16.5938 5.64485V16.9337Z" fill="#0C1419"/>
<path d="M16.4746 4.09863L9.0002 11.072L1.52584 4.09863L0.686523 5.51393L9.0002 13.2703L17.3139 5.51393L16.4746 4.09863Z" fill="#0C1419"/>
</svg>
