<svg width="17" height="16" viewBox="0 0 17 16" fill="none" xmlns="http://www.w3.org/2000/svg">
<g clip-path="url(#clip0_1096_61185)">
<path d="M6.045 12.4062C5.91009 12.4062 5.80078 12.5112 5.80078 12.6406V13.6508C5.80078 13.7802 5.91009 13.8852 6.045 13.8852H10.6501C10.785 13.8852 10.8943 13.7802 10.8943 13.6508V12.6406C10.8943 12.5112 10.785 12.4062 10.6501 12.4062H6.045ZM10.4059 13.4164H6.28922V12.875H10.4059V13.4164Z" fill="#696969"/>
<path d="M9.90765 3.54125V2.75978C9.90765 2.63034 9.79833 2.52541 9.66343 2.52541H9.11823V1.47891H10.4529C10.8778 1.47891 11.2234 1.14719 11.2234 0.739438C11.2234 0.331688 10.8778 0 10.4529 0H6.27182C6.06596 0 5.87244 0.0769063 5.72698 0.216594L4.87791 1.03147C4.73069 1.17272 4.64967 1.3605 4.64967 1.56022C4.64967 1.75994 4.73069 1.94775 4.87787 2.08897C5.02506 2.23019 5.22069 2.30797 5.42884 2.30797C5.63698 2.30797 5.83261 2.23019 5.97983 2.08897L6.61549 1.47891H7.57716V2.52541H7.03196C6.89706 2.52541 6.78774 2.63034 6.78774 2.75978V3.54125C5.32164 3.62741 4.15625 4.79887 4.15625 6.22719V12.5956C4.15625 12.7251 4.26556 12.83 4.40047 12.83C4.53538 12.83 4.64469 12.7251 4.64469 12.5956V6.22719C4.64469 5.00153 5.68374 4.00437 6.96088 4.00437H9.73458C11.0117 4.00437 12.0508 5.00153 12.0508 6.22719V7.13906C12.0508 7.2685 12.1601 7.37344 12.295 7.37344C12.4299 7.37344 12.5392 7.2685 12.5392 7.13906V6.22719C12.5392 4.79891 11.3738 3.62744 9.90765 3.54125ZM6.51431 1.01016C6.44955 1.01016 6.38745 1.03484 6.3416 1.07881L5.63444 1.7575C5.5795 1.81022 5.50646 1.83922 5.42884 1.83922C5.35121 1.83922 5.27817 1.81019 5.22327 1.75747C5.16837 1.70478 5.13815 1.63472 5.13815 1.56019C5.13815 1.48566 5.1684 1.41559 5.2233 1.36291L6.07241 0.548C6.12568 0.496906 6.1965 0.46875 6.27185 0.46875H10.4529C10.6085 0.46875 10.735 0.590187 10.735 0.739469C10.735 0.88875 10.6085 1.01019 10.4529 1.01019H6.51431V1.01016ZM8.0656 1.47891H8.62979V2.52541H8.0656V1.47891ZM9.41921 2.99416V3.53562H7.27619V2.99416H9.41921Z" fill="#696969"/>
<path d="M12.295 8.00195C12.1601 8.00195 12.0508 8.10689 12.0508 8.23633V14.8191C12.0508 15.212 11.7176 15.5316 11.308 15.5316H5.38745C4.97791 15.5316 4.64469 15.212 4.64469 14.8191V13.6929C4.64469 13.5635 4.53538 13.4585 4.40047 13.4585C4.26556 13.4585 4.15625 13.5635 4.15625 13.6929V14.8191C4.15625 15.4705 4.70855 16.0004 5.38745 16.0004H11.308C11.9869 16.0004 12.5392 15.4705 12.5392 14.8191V8.23633C12.5392 8.10689 12.4299 8.00195 12.295 8.00195Z" fill="#696969"/>
<path d="M8.34765 6.43945C6.83452 6.43945 5.60352 7.62086 5.60352 9.07295C5.60352 10.525 6.83455 11.7065 8.34765 11.7065C9.86074 11.7065 11.0918 10.5251 11.0918 9.07295C11.0918 7.62083 9.86077 6.43945 8.34765 6.43945ZM8.34765 11.2377C7.10385 11.2377 6.09196 10.2666 6.09196 9.07298C6.09196 7.87933 7.10385 6.90823 8.34765 6.90823C9.59145 6.90823 10.6033 7.87936 10.6033 9.07298C10.6033 10.2666 9.59145 11.2377 8.34765 11.2377Z" fill="#696969"/>
<path d="M8.36371 7.5127C8.29598 7.5127 8.23127 7.5397 8.18507 7.58726C7.99835 7.77948 7.06689 8.76973 7.06689 9.3886C7.06689 10.0748 7.64863 10.6331 8.36371 10.6331C9.07879 10.6331 9.66052 10.0748 9.66052 9.3886C9.66052 8.76973 8.72909 7.77948 8.54235 7.58726C8.49614 7.53973 8.43144 7.5127 8.36371 7.5127ZM8.36371 10.1644C7.91799 10.1644 7.55534 9.81635 7.55534 9.3886C7.55534 9.11263 7.98318 8.52657 8.36371 8.09941C8.74427 8.52657 9.17208 9.11263 9.17208 9.3886C9.17208 9.81638 8.80943 10.1644 8.36371 10.1644Z" fill="#696969"/>
</g>
<defs>
<clipPath id="clip0_1096_61185">
<rect width="16.6721" height="16" fill="white" transform="translate(0.0107422)"/>
</clipPath>
</defs>
</svg>
