<svg width="17" height="16" viewBox="0 0 17 16" fill="none" xmlns="http://www.w3.org/2000/svg">
<g clip-path="url(#clip0_1096_61229)">
<path d="M8.34353 11.3223C7.54669 11.3223 6.89844 11.9424 6.89844 12.7042C6.89844 13.4662 7.54669 14.0866 8.34353 14.0866C9.14064 14.0866 9.78889 13.4662 9.78889 12.7042C9.78889 11.9424 9.14051 11.3223 8.34353 11.3223Z" fill="#696969"/>
<path d="M11.8697 9.43864C10.9289 8.53625 9.67654 8.03906 8.34387 8.03906C7.01633 8.03906 5.76742 8.53297 4.82686 9.42968C4.44698 9.79248 4.44632 10.3836 4.82528 10.747C5.00937 10.9239 5.25447 11.0211 5.51535 11.0211C5.77505 11.0211 6.01923 10.9244 6.20305 10.749C6.77544 10.2031 7.53572 9.9024 8.34387 9.9024C9.15504 9.9024 9.91743 10.205 10.4902 10.7542C10.6743 10.9306 10.9193 11.028 11.1799 11.028C11.4398 11.028 11.6839 10.9314 11.8679 10.7559C12.2483 10.3931 12.2489 9.80233 11.8697 9.43864Z" fill="#696969"/>
<path d="M16.3983 5.10691C14.2474 3.04776 11.3865 1.91406 8.34325 1.91406C5.30408 1.91406 2.4461 3.04511 0.295817 5.09937C-0.0840634 5.46217 -0.0843264 6.05324 0.295291 6.41667C0.479248 6.59271 0.723954 6.6895 0.984308 6.6895C1.24453 6.6895 1.48897 6.59309 1.67293 6.41718C3.4553 4.71461 5.82413 3.77676 8.34325 3.77676C10.8661 3.77676 13.2372 4.71651 15.02 6.42361C15.204 6.59977 15.4491 6.69694 15.7093 6.69694C15.9694 6.69694 16.2138 6.60003 16.3976 6.42437C16.7777 6.06129 16.7781 5.46999 16.3983 5.10691Z" fill="#696969"/>
<path d="M14.0773 7.32691C12.5462 5.86095 10.5102 5.05371 8.34425 5.05371C6.18226 5.05371 4.14927 5.85843 2.61949 7.31921C2.43527 7.495 2.33389 7.72883 2.3335 7.9778C2.3335 8.22653 2.43448 8.46061 2.61844 8.63665C2.8024 8.81281 3.04723 8.90997 3.30759 8.90997C3.56755 8.90997 3.81199 8.81306 3.99621 8.63765C5.15834 7.52806 6.70258 6.91679 8.34425 6.91679C9.98935 6.91679 11.5357 7.5302 12.6986 8.64359C12.8828 8.82 13.1275 8.91717 13.388 8.91717C13.6481 8.91717 13.8927 8.82025 14.0764 8.64459C14.2603 8.46881 14.362 8.23498 14.3621 7.98601C14.3624 7.73703 14.2611 7.5032 14.0773 7.32691Z" fill="#696969"/>
</g>
<defs>
<clipPath id="clip0_1096_61229">
<rect width="16.6721" height="16" fill="white" transform="translate(0.0107422)"/>
</clipPath>
</defs>
</svg>
