<svg width="24" height="25" viewBox="0 0 24 25" fill="none" xmlns="http://www.w3.org/2000/svg">
<path d="M0 2.49219C0 2.28906 0.0742188 2.11328 0.222656 1.96484C0.371094 1.81641 0.546875 1.74219 0.75 1.74219H6.46875C6.67188 1.74219 6.84766 1.81641 6.99609 1.96484C7.14453 2.11328 7.21875 2.28906 7.21875 2.49219C7.21875 2.71094 7.14453 2.89062 6.99609 3.03125C6.84766 3.17188 6.67188 3.24219 6.46875 3.24219H2.55469L10.9453 11.6562C11.0078 11.7188 11.0586 11.7969 11.0977 11.8906C11.1367 11.9844 11.1562 12.0781 11.1562 12.1719V22.5078C11.1562 22.7109 11.0859 22.8867 10.9453 23.0352C10.8047 23.1836 10.625 23.2578 10.4062 23.2578C10.2031 23.2578 10.0273 23.1836 9.87891 23.0352C9.73047 22.8867 9.65625 22.7109 9.65625 22.5078V12.5L1.5 4.32031V7.69531C1.5 7.89844 1.42969 8.07422 1.28906 8.22266C1.14844 8.37109 0.96875 8.44531 0.75 8.44531C0.546875 8.44531 0.371094 8.37109 0.222656 8.22266C0.0742188 8.07422 0 7.89844 0 7.69531V2.49219ZM14.2969 2.49219C14.2969 2.28906 14.3711 2.11328 14.5195 1.96484C14.668 1.81641 14.8438 1.74219 15.0469 1.74219H20.7656C20.9688 1.74219 21.1445 1.81641 21.293 1.96484C21.4414 2.11328 21.5156 2.28906 21.5156 2.49219V7.69531C21.5156 7.89844 21.4414 8.07422 21.293 8.22266C21.1445 8.37109 20.9688 8.44531 20.7656 8.44531C20.5469 8.44531 20.3672 8.37109 20.2266 8.22266C20.0859 8.07422 20.0156 7.89844 20.0156 7.69531V4.17969L14.3672 9.28906C14.2109 9.41406 14.0312 9.47266 13.8281 9.46484C13.625 9.45703 13.4531 9.375 13.3125 9.21875C13.1719 9.0625 13.1055 8.88281 13.1133 8.67969C13.1211 8.47656 13.2031 8.30469 13.3594 8.16406L18.7969 3.24219H15.0469C14.8438 3.24219 14.668 3.17188 14.5195 3.03125C14.3711 2.89062 14.2969 2.71094 14.2969 2.49219Z" fill="black"/>
</svg>
