<svg width="17" height="16" viewBox="0 0 17 16" fill="none" xmlns="http://www.w3.org/2000/svg">
<g clip-path="url(#clip0_1096_61154)">
<path d="M16.1944 13.1875H14.7291V8.4375H15.2176C15.4873 8.4375 15.706 8.22762 15.706 7.96875C15.706 7.53575 15.706 3.41772 15.706 2.73187C16.2745 2.53837 16.6829 2.01734 16.6829 1.40625C16.6829 0.630844 16.0255 0 15.2176 0H1.47607C0.668087 0 0.0107422 0.630844 0.0107422 1.40625C0.0107422 2.01734 0.419112 2.53837 0.987626 2.73187C0.987626 2.99656 0.987626 7.72394 0.987626 7.96875C0.987626 8.22762 1.20632 8.4375 1.47607 8.4375H1.96451V13.1875H0.499184C0.229434 13.1875 0.0107422 13.3974 0.0107422 13.6562V15.5312C0.0107422 15.7901 0.229434 16 0.499184 16H16.1944C16.4642 16 16.6829 15.7901 16.6829 15.5312V13.6562C16.6829 13.3974 16.4642 13.1875 16.1944 13.1875ZM14.7291 7.5C13.9756 7.5 2.97031 7.5 2.45295 7.5H1.96451V6.5625H14.7291V7.5ZM10.789 9.45562C10.2205 9.64912 9.81214 10.1702 9.81214 10.7812C9.81214 11.5567 10.4695 12.1875 11.2775 12.1875C12.0854 12.1875 12.7428 11.5567 12.7428 10.7812C12.7428 10.1702 12.3344 9.64912 11.7659 9.45562V8.4375H13.7522V13.1875H8.83526V8.4375H10.789V9.45562ZM11.2775 10.3125C11.5468 10.3125 11.7659 10.5228 11.7659 10.7812C11.7659 11.0397 11.5468 11.25 11.2775 11.25C11.0081 11.25 10.789 11.0397 10.789 10.7812C10.789 10.5228 11.0081 10.3125 11.2775 10.3125ZM7.85837 8.4375V13.1875H2.94139V8.4375H7.85837ZM14.7291 5.625H1.96451V4.6875H14.7291V5.625ZM14.7291 3.75H1.96451V2.8125H14.7291V3.75ZM1.47607 1.875C1.20674 1.875 0.987626 1.66472 0.987626 1.40625C0.987626 1.14778 1.20674 0.9375 1.47607 0.9375H15.2176C15.4869 0.9375 15.706 1.14778 15.706 1.40625C15.706 1.66472 15.4869 1.875 15.2176 1.875H1.47607ZM15.706 15.0625H0.987626V14.125C2.29137 14.125 13.8212 14.125 15.706 14.125V15.0625Z" fill="#696969"/>
</g>
<defs>
<clipPath id="clip0_1096_61154">
<rect width="16.6721" height="16" fill="white" transform="translate(0.0107422)"/>
</clipPath>
</defs>
</svg>
