<svg width="20" height="18" viewBox="0 0 20 18" fill="none" xmlns="http://www.w3.org/2000/svg">
<g clip-path="url(#clip0_1096_61144)">
<path d="M16.3203 6.82031H11.6147C11.4124 6.82031 11.2484 6.97771 11.2484 7.17187C11.2484 7.36604 11.4124 7.52343 11.6147 7.52343H14.8751V9.03514C14.8751 9.82991 14.2013 10.4765 13.3731 10.4765H6.55938C5.73122 10.4765 5.05742 9.82991 5.05742 9.03514V7.52343H8.31776C8.52008 7.52343 8.68409 7.36604 8.68409 7.17187C8.68409 6.97771 8.52008 6.82031 8.31776 6.82031H3.61218C3.40986 6.82031 3.24585 6.97771 3.24585 7.17187C3.24585 7.36604 3.40986 7.52343 3.61218 7.52343H4.32476V9.03514C4.32476 10.0767 5.1027 10.9469 6.13018 11.1395L4.66838 17.5734C4.64475 17.6774 4.6715 17.786 4.74099 17.8689C4.81052 17.9517 4.91543 17.9999 5.02629 17.9999H6.61568C6.788 17.9999 6.93699 17.8847 6.97362 17.7231L7.80761 14.0449H12.1248L12.9588 17.7231C12.9955 17.8847 13.1445 17.9999 13.3168 17.9999H14.9062C15.017 17.9999 15.1219 17.9518 15.1915 17.8689C15.261 17.786 15.2877 17.6774 15.2641 17.5734L13.8022 11.1395C14.8297 10.9469 15.6077 10.0767 15.6077 9.03514V7.52343H16.3202C16.5226 7.52343 16.6866 7.36604 16.6866 7.17187C16.6866 6.97771 16.5226 6.82031 16.3203 6.82031ZM6.32049 17.2968H5.48108L6.87094 11.1797H7.70746L6.32049 17.2968ZM7.96704 13.3418L8.45726 11.1797H11.4752L11.9655 13.3418H7.96704ZM13.612 17.2968L12.225 11.1797H13.0616L14.4514 17.2968H13.612Z" fill="#696969"/>
<path d="M17.184 4.49972C16.9817 4.49972 16.8177 4.65711 16.8177 4.85128C16.8177 5.0839 16.6205 5.27315 16.3781 5.27315C16.1357 5.27315 15.9385 5.0839 15.9385 4.85128C15.9385 4.65711 15.7745 4.49972 15.5722 4.49972H14.9328C14.7785 4.05109 14.3379 3.72629 13.8195 3.72629C13.5747 3.72629 13.3473 3.79874 13.1591 3.92235C13.0288 3.80124 12.8517 3.72629 12.6564 3.72629H11.7589C11.5636 3.72629 11.3864 3.80124 11.2561 3.92235C11.0679 3.79874 10.8405 3.72629 10.5958 3.72629C10.3523 3.72629 10.1259 3.79797 9.93827 3.92042C9.80771 3.79769 9.62927 3.72171 9.43251 3.72171H8.53501C8.33829 3.72171 8.15988 3.79769 8.02932 3.92035C7.84173 3.79793 7.61537 3.72629 7.37191 3.72629C7.12841 3.72629 6.90205 3.79797 6.71442 3.92038C6.58386 3.79765 6.40542 3.72168 6.2087 3.72168H5.31119C4.91226 3.72168 4.58769 4.03316 4.58769 4.41601V4.49968H2.75036C2.54804 4.49968 2.38403 4.65708 2.38403 4.85124C2.38403 5.04541 2.54804 5.2028 2.75036 5.2028H4.58765V5.27733C4.58765 5.66018 4.91222 5.97166 5.31116 5.97166H6.20866C6.40256 5.97166 6.57847 5.89769 6.70852 5.77809C6.89733 5.90293 7.12581 5.97623 7.37191 5.97623C7.61797 5.97623 7.84645 5.90293 8.03522 5.77816C8.16523 5.89769 8.34114 5.97166 8.53501 5.97166H9.43251C9.62641 5.97166 9.80232 5.89769 9.93237 5.77809C10.1212 5.90293 10.3497 5.97623 10.5958 5.97623C10.8405 5.97623 11.0679 5.90378 11.2561 5.78017C11.3864 5.90128 11.5635 5.97623 11.7589 5.97623H12.6564C12.8517 5.97623 13.0288 5.90128 13.1591 5.78017C13.3473 5.90378 13.5747 5.97623 13.8195 5.97623C14.3379 5.97623 14.7785 5.65143 14.9328 5.2028H15.2644C15.4186 5.6515 15.8596 5.97623 16.3781 5.97623C17.0245 5.97623 17.5503 5.47157 17.5503 4.85124C17.5503 4.65711 17.3863 4.49972 17.184 4.49972ZM6.19954 5.26854H5.32035V4.4248H6.19954V5.26854ZM7.37191 5.27315C7.12951 5.27315 6.93231 5.0839 6.93231 4.85128C6.93231 4.61865 7.12951 4.4294 7.37191 4.4294C7.61431 4.4294 7.8115 4.61865 7.8115 4.85128C7.8115 5.0839 7.61431 5.27315 7.37191 5.27315ZM9.42336 5.26854H8.54416V4.4248H9.42336V5.26854ZM10.5958 5.27315C10.3534 5.27315 10.1562 5.0839 10.1562 4.85128C10.1562 4.61865 10.3534 4.4294 10.5958 4.4294C10.8382 4.4294 11.0354 4.61865 11.0354 4.85128C11.0354 5.0839 10.8382 5.27315 10.5958 5.27315ZM12.6472 5.27315H11.768V4.4294H12.6472V5.27315ZM13.8195 5.27315C13.5771 5.27315 13.3799 5.0839 13.3799 4.85128C13.3799 4.61865 13.5771 4.4294 13.8195 4.4294C14.0619 4.4294 14.2591 4.61865 14.2591 4.85128C14.2591 5.0839 14.0619 5.27315 13.8195 5.27315Z" fill="#696969"/>
<path d="M12.7811 2.37115C12.6889 2.54401 12.7602 2.7558 12.9403 2.84428C12.9937 2.87051 13.0507 2.88296 13.1068 2.88296C13.24 2.88296 13.3684 2.81307 13.4332 2.69149C13.6687 2.25 13.6687 1.72283 13.4332 1.28134C13.3048 1.04042 13.3048 0.752733 13.4332 0.511807C13.5254 0.338944 13.4541 0.127163 13.274 0.0386747C13.094 -0.0497785 12.8732 0.0186356 12.7811 0.191464C12.5456 0.632956 12.5456 1.16012 12.7811 1.60162C12.9095 1.84254 12.9095 2.13023 12.7811 2.37115Z" fill="#696969"/>
<path d="M9.64655 2.37115C9.55438 2.54401 9.62567 2.7558 9.80576 2.84428C9.85921 2.87051 9.91618 2.88296 9.97234 2.88296C10.1055 2.88296 10.2339 2.81307 10.2987 2.69149C10.5342 2.25 10.5342 1.72283 10.2987 1.28134C10.1703 1.04042 10.1703 0.752733 10.2987 0.511807C10.3909 0.338944 10.3196 0.127163 10.1395 0.0386747C9.95952 -0.0497785 9.73872 0.0186356 9.64655 0.191464C9.41111 0.632956 9.41111 1.16012 9.64655 1.60162C9.77503 1.84254 9.77503 2.13023 9.64655 2.37115Z" fill="#696969"/>
<path d="M6.50914 2.37115C6.41697 2.54401 6.48826 2.7558 6.66834 2.84428C6.72179 2.87051 6.77875 2.88296 6.83491 2.88296C6.96807 2.88296 7.09651 2.81307 7.16131 2.69149C7.39675 2.25 7.39675 1.72283 7.16131 1.28134C7.03284 1.04042 7.03284 0.752733 7.16131 0.511807C7.25348 0.338944 7.18219 0.127163 7.00211 0.0386747C6.82205 -0.0497785 6.6013 0.0186356 6.5091 0.191464C6.27366 0.632956 6.27366 1.16012 6.5091 1.60162C6.63761 1.84254 6.63761 2.13023 6.50914 2.37115Z" fill="#696969"/>
<path d="M10.2264 7.42043C10.2945 7.35504 10.3337 7.26434 10.3337 7.17188C10.3337 7.07941 10.2945 6.98871 10.2264 6.92332C10.1583 6.85793 10.0638 6.82031 9.96741 6.82031C9.87106 6.82031 9.77655 6.85793 9.70841 6.92332C9.64027 6.98871 9.60107 7.07941 9.60107 7.17188C9.60107 7.26434 9.64027 7.35504 9.70841 7.42043C9.77655 7.48582 9.87106 7.52344 9.96741 7.52344C10.0638 7.52344 10.1583 7.48579 10.2264 7.42043Z" fill="#696969"/>
</g>
<defs>
<clipPath id="clip0_1096_61144">
<rect width="18.7562" height="18" fill="white" transform="translate(0.588135)"/>
</clipPath>
</defs>
</svg>
