<svg width="57" height="55" viewBox="0 0 57 55" fill="none" xmlns="http://www.w3.org/2000/svg">
<path d="M49.6 25.6016C49 25.6016 48.6 26.0016 48.6 26.6016V49.5016C48.6 51.2016 47.2 52.7016 45.4 52.7016H11.8C9.99996 52.7016 8.59998 51.3016 8.59998 49.5016V26.6016C8.59998 26.0016 8.19998 25.6016 7.59998 25.6016C6.99998 25.6016 6.59998 26.0016 6.59998 26.6016V49.5016C6.59998 52.3016 8.89996 54.7016 11.8 54.7016H45.4C48.3 54.7016 50.6 52.4016 50.6 49.5016V26.6016C50.6 26.1016 50.1 25.6016 49.6 25.6016Z" fill="#000000"/>
<path d="M56.2 21.7008L30.7 1.50078C29.5 0.400781 27.6 0.400781 26.4 1.50078L0.999991 21.7008C0.599991 22.0008 0.499978 22.7008 0.799978 23.1008C1.09998 23.5008 1.8 23.6008 2.2 23.3008L27.7 3.10078L27.8 3.00078C28.2 2.60078 28.9 2.60078 29.4 3.00078L55 23.3008C55.2 23.4008 55.4 23.5008 55.6 23.5008C55.9 23.5008 56.2 23.4008 56.4 23.1008C56.7 22.7008 56.6 22.0008 56.2 21.7008Z" fill="#000000"/>
<path d="M30.7001 40.7002C29.5001 41.3002 28 41.3002 26.6 41.2002C25.2 41.0002 24.2 40.4002 22.9 39.9002C22.3 39.7002 22 39.8002 21.9 40.5002C21.8 41.0002 21.8001 41.7002 22.2001 42.1002C23.0001 43.0002 25.1001 43.3002 26.2001 43.4002L25.8 46.8002C25.6 47.5002 27.8 47.6002 27.9 46.9002L28.2001 43.5002C31.6001 43.3002 35.1 41.5002 35.1 37.7002C35.1 34.3002 32.5001 33.0002 29.7001 32.0002C28.4001 31.5002 26.9 31.2002 25.9 30.1002C25 29.2002 24.8 27.6002 25.5 26.5002C27.1 24.1002 31 25.4002 33 26.3002C33.5 26.5002 33.7 26.6002 33.9 26.1002C34.1 25.7002 34 24.8002 33.8 24.5002C33.3 23.5002 31.3 23.2002 30.3 23.1002L30.7001 19.9002C30.7001 19.1002 28.7 19.1002 28.6 19.8002L28.3 23.0002C24.8 23.2002 21.9 25.5002 22.5 29.3002C23 32.6002 26.5001 33.5002 29.2001 34.5002C30.6001 35.0002 32.1 35.8002 32.3 37.4002C32.6 38.8002 31.9001 40.1002 30.7001 40.7002Z" fill="#000000"/>
</svg>
