<svg width="24" height="21" viewBox="0 0 24 21" fill="none" xmlns="http://www.w3.org/2000/svg">
<path d="M4.92237 3.97486H0.677479C0.303271 3.97486 0 3.70961 0 3.3827C0 3.05579 0.303271 2.79053 0.677479 2.79053H4.92237C5.29657 2.79053 5.59985 3.05579 5.59985 3.3827C5.59985 3.70961 5.29657 3.97486 4.92237 3.97486Z" fill="#696969"/>
<path d="M7.34929 6.09484C5.63813 6.09484 4.24609 4.87808 4.24609 3.38253C4.24609 1.88667 5.63813 0.669922 7.34929 0.669922C9.06044 0.669922 10.4525 1.88667 10.4525 3.38253C10.4525 4.87813 9.06044 6.09484 7.34929 6.09484ZM7.34929 1.85431C6.38529 1.85431 5.60105 2.53992 5.60105 3.38253C5.60105 4.22514 6.38529 4.91045 7.34929 4.91045C8.31329 4.91045 9.09752 4.22514 9.09752 3.38253C9.09752 2.53992 8.31329 1.85431 7.34929 1.85431Z" fill="#696969"/>
<path d="M22.3578 3.97486H12.2322C11.858 3.97486 11.5547 3.70961 11.5547 3.3827C11.5547 3.05579 11.858 2.79053 12.2322 2.79053H22.3577C22.7319 2.79053 23.0352 3.05579 23.0352 3.3827C23.0352 3.70961 22.732 3.97486 22.3578 3.97486Z" fill="#696969"/>
<path d="M16.443 13.2508C14.7318 13.2508 13.3398 12.034 13.3398 10.5385C13.3398 9.04292 14.7319 7.82617 16.443 7.82617C18.1542 7.82617 19.5462 9.04292 19.5462 10.5385C19.5462 12.034 18.1542 13.2508 16.443 13.2508ZM16.443 9.01055C15.479 9.01055 14.6948 9.69586 14.6948 10.5385C14.6948 11.3811 15.479 12.0664 16.443 12.0664C17.407 12.0664 18.1913 11.3811 18.1913 10.5385C18.1913 9.69586 17.407 9.01055 16.443 9.01055Z" fill="#696969"/>
<path d="M11.5612 11.1306H0.677479C0.303271 11.1306 0 10.8654 0 10.5385C0 10.2115 0.303271 9.94629 0.677479 9.94629H11.5612C11.9354 9.94629 12.2387 10.2115 12.2387 10.5385C12.2387 10.8654 11.9354 11.1306 11.5612 11.1306Z" fill="#696969"/>
<path d="M22.3558 11.1306H18.8689C18.4947 11.1306 18.1914 10.8654 18.1914 10.5385C18.1914 10.2115 18.4947 9.94629 18.8689 9.94629H22.3558C22.73 9.94629 23.0333 10.2115 23.0333 10.5385C23.0333 10.8654 22.73 11.1306 22.3558 11.1306Z" fill="#696969"/>
<path d="M6.59148 20.4068C4.88032 20.4068 3.48828 19.1901 3.48828 17.6942C3.48828 16.1987 4.88032 14.9819 6.59148 14.9819C8.30263 14.9819 9.69467 16.1987 9.69467 17.6942C9.69467 19.1901 8.30263 20.4068 6.59148 20.4068ZM6.59148 16.1663C5.62748 16.1663 4.84324 16.8516 4.84324 17.6942C4.84324 18.5368 5.62748 19.2225 6.59148 19.2225C7.55548 19.2225 8.33971 18.5368 8.33971 17.6942C8.33971 16.8516 7.55548 16.1663 6.59148 16.1663Z" fill="#696969"/>
<path d="M22.3581 18.2864H11.4744C11.1001 18.2864 10.7969 18.0211 10.7969 17.6942C10.7969 17.3673 11.1001 17.1021 11.4744 17.1021H22.3581C22.7323 17.1021 23.0355 17.3673 23.0355 17.6942C23.0355 18.0211 22.7323 18.2864 22.3581 18.2864Z" fill="#696969"/>
<path d="M4.16442 18.2864H0.677479C0.303271 18.2864 0 18.0212 0 17.6942C0 17.3673 0.303271 17.1021 0.677479 17.1021H4.16442C4.53862 17.1021 4.8419 17.3673 4.8419 17.6942C4.8419 18.0212 4.53862 18.2864 4.16442 18.2864Z" fill="#696969"/>
</svg>
