<svg width="16" height="17" viewBox="0 0 16 17" fill="none" xmlns="http://www.w3.org/2000/svg">
<path d="M14.7308 10.6566C14.2006 10.1907 13.5575 9.78809 12.8193 9.46008C12.5038 9.31995 12.1345 9.46204 11.9944 9.77747C11.8542 10.0929 11.9963 10.4622 12.3118 10.6024C12.9342 10.879 13.4706 11.2131 13.9058 11.5956C14.4423 12.067 14.75 12.7496 14.75 13.4688V14.625C14.75 14.9696 14.4696 15.25 14.125 15.25H1.875C1.5304 15.25 1.25 14.9696 1.25 14.625V13.4688C1.25 12.7496 1.55774 12.067 2.09424 11.5956C2.72571 11.0406 4.56555 9.75 8 9.75C10.5502 9.75 12.625 7.67517 12.625 5.125C12.625 2.57483 10.5502 0.5 8 0.5C5.44983 0.5 3.375 2.57483 3.375 5.125C3.375 6.61584 4.08423 7.94397 5.18286 8.79028C3.17261 9.23218 1.92212 10.0828 1.26917 10.6566C0.462646 11.3652 0 12.3901 0 13.4688V14.625C0 15.6589 0.841064 16.5 1.875 16.5H14.125C15.1589 16.5 16 15.6589 16 14.625V13.4688C16 12.3901 15.5374 11.3652 14.7308 10.6566ZM4.625 5.125C4.625 3.26404 6.13904 1.75 8 1.75C9.86096 1.75 11.375 3.26404 11.375 5.125C11.375 6.98596 9.86096 8.5 8 8.5C6.13904 8.5 4.625 6.98596 4.625 5.125Z" fill="#0D263B"/>
</svg>
