<svg width="19" height="18" viewBox="0 0 19 18" fill="none" xmlns="http://www.w3.org/2000/svg">
<path d="M14.1907 17.7444L14.1899 17.7452C14.0827 17.8553 13.9344 17.9167 13.7797 17.9167H3.21968C1.94904 17.9167 0.916341 16.884 0.916341 15.6133V3.71998C0.916341 2.44934 1.94904 1.41664 3.21968 1.41664H4.16634H4.24967V1.33331V0.666654C4.24967 0.346007 4.51234 0.0833333 4.83299 0.0833333C5.15365 0.0833333 5.41637 0.346016 5.41637 0.666654V1.33331V1.41664H5.4997H13.4997H13.583V1.33331V0.666654C13.583 0.346007 13.8457 0.0833333 14.1663 0.0833333C14.487 0.0833333 14.7497 0.346016 14.7496 0.666642V1.33331V1.41664H14.833H15.7796C17.0503 1.41664 18.083 2.44934 18.083 3.71998V13.6134C18.083 13.7674 18.0221 13.9131 17.9107 14.0244L14.1907 17.7444ZM13.7497 16.3366V16.5378L13.8919 16.3956L16.2286 14.0589L16.3709 13.9166H16.1697H14.0263C13.8736 13.9166 13.7497 14.0406 13.7497 14.1933V16.3366ZM4.24967 2.66667V2.58334H4.16634H3.21968C2.59368 2.58334 2.08304 3.09398 2.08304 3.71998V15.6134C2.08304 16.2394 2.59368 16.75 3.21968 16.75H12.4996H12.5829V16.6667V14.1933C12.5829 13.396 13.2289 12.75 14.0263 12.75H16.8329H16.9163V12.6667V3.71998C16.9163 3.09398 16.4056 2.58334 15.7796 2.58334H14.833H14.7496V2.66667V3.33333C14.7496 3.65397 14.487 3.91665 14.1663 3.91665C13.8457 3.91665 13.583 3.65397 13.583 3.33333V2.66667V2.58334H13.4997H5.49964H5.41631V2.66667V3.33333C5.41631 3.65397 5.15364 3.91665 4.83299 3.91665C4.51234 3.91665 4.24967 3.65397 4.24967 3.33333V2.66667Z" fill="#575757" stroke="#575757" stroke-width="0.166667"/>
<path d="M6.45798 6.83332C6.45798 7.27053 6.10354 7.62497 5.66633 7.62497C5.22911 7.62497 4.87467 7.27053 4.87467 6.83332C4.87467 6.3961 5.22911 6.04167 5.66633 6.04167C6.10354 6.04167 6.45798 6.3961 6.45798 6.83332Z" fill="#575757" stroke="#575757" stroke-width="0.0833333"/>
<path d="M10.125 6.83332C10.125 7.27053 9.77054 7.62497 9.33332 7.62497C8.8961 7.62497 8.54167 7.27053 8.54167 6.83332C8.54167 6.3961 8.8961 6.04167 9.33332 6.04167C9.77054 6.04167 10.125 6.3961 10.125 6.83332Z" fill="#575757" stroke="#575757" stroke-width="0.0833333"/>
<path d="M13.7915 6.83332C13.7915 7.27053 13.437 7.62497 12.9998 7.62497C12.5626 7.62497 12.2082 7.27053 12.2082 6.83332C12.2082 6.3961 12.5626 6.04167 12.9998 6.04167C13.437 6.04167 13.7915 6.3961 13.7915 6.83332Z" fill="#575757" stroke="#575757" stroke-width="0.0833333"/>
<path d="M6.45798 10.1666C6.45798 10.6038 6.10354 10.9582 5.66633 10.9582C5.22911 10.9582 4.87467 10.6038 4.87467 10.1666C4.87467 9.72935 5.22911 9.37492 5.66633 9.37492C6.10354 9.37492 6.45798 9.72935 6.45798 10.1666Z" fill="#575757" stroke="#575757" stroke-width="0.0833333"/>
<path d="M10.125 10.1666C10.125 10.6038 9.77054 10.9582 9.33332 10.9582C8.8961 10.9582 8.54167 10.6038 8.54167 10.1666C8.54167 9.72935 8.8961 9.37492 9.33332 9.37492C9.77054 9.37492 10.125 9.72935 10.125 10.1666Z" fill="#575757" stroke="#575757" stroke-width="0.0833333"/>
<path d="M13.7915 10.1666C13.7915 10.6038 13.437 10.9582 12.9998 10.9582C12.5626 10.9582 12.2082 10.6038 12.2082 10.1666C12.2082 9.72935 12.5626 9.37492 12.9998 9.37492C13.437 9.37492 13.7915 9.72935 13.7915 10.1666Z" fill="#575757" stroke="#575757" stroke-width="0.0833333"/>
<path d="M6.45798 13.4998C6.45798 13.937 6.10354 14.2915 5.66633 14.2915C5.22911 14.2915 4.87467 13.937 4.87467 13.4998C4.87467 13.0626 5.22911 12.7082 5.66633 12.7082C6.10354 12.7082 6.45798 13.0626 6.45798 13.4998Z" fill="#575757" stroke="#575757" stroke-width="0.0833333"/>
<path d="M10.125 13.4998C10.125 13.937 9.77054 14.2915 9.33332 14.2915C8.8961 14.2915 8.54167 13.937 8.54167 13.4998C8.54167 13.0626 8.8961 12.7082 9.33332 12.7082C9.77054 12.7082 10.125 13.0626 10.125 13.4998Z" fill="#575757" stroke="#575757" stroke-width="0.0833333"/>
</svg>
