<svg width="30" height="30" viewBox="0 0 30 30" fill="none" xmlns="http://www.w3.org/2000/svg">
<path d="M14.9999 6.44922C11.9289 6.44922 9.43042 8.94771 9.43042 12.0187C9.43042 15.0897 11.9289 17.5882 14.9999 17.5882C18.0709 17.5882 20.5694 15.0897 20.5694 12.0187C20.5694 8.94771 18.071 6.44922 14.9999 6.44922ZM14.9999 15.2432C13.222 15.2432 11.7755 13.7967 11.7755 12.0187C11.7755 10.2408 13.222 8.79426 14.9999 8.79426C16.7779 8.79426 18.2244 10.2408 18.2244 12.0187C18.2244 13.7967 16.7779 15.2432 14.9999 15.2432Z" fill="#25793A"/>
<path d="M14.9999 0C8.37289 0 2.98145 5.3915 2.98145 12.0185V12.3507C2.98145 15.7022 4.90297 19.6079 8.69281 23.9589C11.4402 27.1131 14.1491 29.3125 14.263 29.4046L14.9999 30L15.7368 29.4046C15.8507 29.3125 18.5597 27.1131 21.307 23.9589C25.0968 19.6079 27.0184 15.7023 27.0184 12.3507V12.0185C27.0184 5.3915 21.6269 0 14.9999 0ZM24.6733 12.3507C24.6733 18.0147 17.3754 24.8711 14.9999 26.9524C12.6237 24.8704 5.32648 18.0143 5.32648 12.3507V12.0185C5.32648 6.68461 9.666 2.3451 14.9999 2.3451C20.3338 2.3451 24.6733 6.68461 24.6733 12.0185V12.3507Z" fill="#25793A"/>
</svg>
