<svg width="61" height="42" viewBox="0 0 61 42" fill="none" xmlns="http://www.w3.org/2000/svg">
<path d="M60.4 41.5004H58.5V24.0004C58.5 21.4004 56.4 19.2004 53.7 19.2004H7C4.4 19.2004 2.20001 21.3004 2.20001 24.0004V41.5004H0.299988V24.0004C0.299988 20.3004 3.29999 17.4004 6.89999 17.4004H53.7C57.4 17.4004 60.3 20.4004 60.3 24.0004V41.5004H60.4Z" fill="#000000"/>
<path d="M59.5 35.7012H1.29999V37.6012H59.5V35.7012Z" fill="#000000"/>
<path d="M56.2 15.3008H54.3V7.00079C54.3 4.60079 52.4 2.70081 50 2.70081H10.8C8.39996 2.70081 6.49997 4.60079 6.49997 7.00079V15.3008H4.59998V7.00079C4.59998 3.60079 7.39996 0.800781 10.8 0.800781H50C53.4 0.800781 56.2 3.60079 56.2 7.00079V15.3008Z" fill="#000000"/>
<path d="M26.2 14.9012H24.3V11.0012C24.3 9.60116 23.2 8.50116 21.8 8.50116H13.1C11.7 8.50116 10.6 9.60116 10.6 11.0012V14.9012H8.70001V11.0012C8.70001 8.60116 10.6 6.70117 13 6.70117H21.7C24.1 6.70117 26 8.60116 26 11.0012V14.9012H26.2Z" fill="#000000"/>
<path d="M50.7 14.9012H48.8V11.0012C48.8 9.60116 47.7 8.50116 46.3 8.50116H37.6C36.2 8.50116 35.1 9.60116 35.1 11.0012V14.9012H33.2V11.0012C33.2 8.60116 35.1 6.70117 37.5 6.70117H46.2C48.6 6.70117 50.5 8.60116 50.5 11.0012V14.9012H50.7Z" fill="#000000"/>
</svg>
