<svg width="18" height="16" viewBox="0 0 18 16" fill="none" xmlns="http://www.w3.org/2000/svg">
<g clip-path="url(#clip0_1096_61134)">
<path d="M15.2183 0H2.71415C1.565 0 0.630127 0.897187 0.630127 2V7C0.630127 8.10281 1.565 9 2.71415 9H15.2183C16.3674 9 17.3023 8.10281 17.3023 7V2C17.3023 0.897187 16.3674 0 15.2183 0ZM4.01666 8V7H13.9157V8H4.01666ZM16.2603 7C16.2603 7.55141 15.7928 8 15.2183 8H14.9578V6.5C14.9578 6.22388 14.7245 6 14.4367 6H3.49565C3.20789 6 2.97465 6.22388 2.97465 6.5V8H2.71415C2.13957 8 1.67214 7.55141 1.67214 7V5H15.2183C15.506 5 15.7393 4.77612 15.7393 4.5C15.7393 4.22388 15.506 4 15.2183 4H1.67214V2C1.67214 1.44859 2.13957 1 2.71415 1H15.2183C15.7928 1 16.2603 1.44859 16.2603 2V7Z" fill="#696969"/>
<path d="M4.79813 9.5C4.51037 9.5 4.27713 9.72387 4.27713 10V13C4.27713 13.5514 3.80969 14 3.23512 14C2.94736 14 2.71411 14.2239 2.71411 14.5C2.71411 14.7761 2.94736 15 3.23512 15C4.38426 15 5.31913 14.1028 5.31913 13V10C5.31913 9.72387 5.08589 9.5 4.79813 9.5Z" fill="#696969"/>
<path d="M14.9578 15C14.3832 15 13.9158 14.5514 13.9158 14V10.75C13.9158 10.4739 13.6825 10.25 13.3948 10.25C13.107 10.25 12.8738 10.4739 12.8738 10.75V14C12.8738 15.1028 13.8087 16 14.9578 16C15.2456 16 15.4788 15.7761 15.4788 15.5C15.4788 15.2239 15.2456 15 14.9578 15Z" fill="#696969"/>
<path d="M10.5293 15C9.95476 15 9.48732 14.5514 9.48732 14V11.25C9.48732 10.9739 9.25407 10.75 8.96632 10.75C8.67856 10.75 8.44531 10.9739 8.44531 11.25V14C8.44531 15.1028 9.38019 16 10.5293 16C10.8171 16 11.0503 15.7761 11.0503 15.5C11.0503 15.2239 10.8171 15 10.5293 15Z" fill="#696969"/>
<path d="M6.88209 10.25C6.59433 10.25 6.36108 10.4739 6.36108 10.75V14.5C6.36108 14.7761 6.59433 15 6.88209 15C7.16985 15 7.40309 14.7761 7.40309 14.5V10.75C7.40309 10.4739 7.16985 10.25 6.88209 10.25Z" fill="#696969"/>
<path d="M11.0503 9.5C10.7625 9.5 10.5293 9.72387 10.5293 10V12.75C10.5293 13.0261 10.7625 13.25 11.0503 13.25C11.3381 13.25 11.5713 13.0261 11.5713 12.75V10C11.5713 9.72387 11.3381 9.5 11.0503 9.5Z" fill="#696969"/>
<path d="M14.6973 2.75C14.985 2.75 15.2183 2.52614 15.2183 2.25C15.2183 1.97386 14.985 1.75 14.6973 1.75C14.4095 1.75 14.1763 1.97386 14.1763 2.25C14.1763 2.52614 14.4095 2.75 14.6973 2.75Z" fill="#696969"/>
<path d="M12.6133 2.75C12.901 2.75 13.1343 2.52614 13.1343 2.25C13.1343 1.97386 12.901 1.75 12.6133 1.75C12.3255 1.75 12.0923 1.97386 12.0923 2.25C12.0923 2.52614 12.3255 2.75 12.6133 2.75Z" fill="#696969"/>
</g>
<defs>
<clipPath id="clip0_1096_61134">
<rect width="16.6721" height="16" fill="white" transform="translate(0.630127)"/>
</clipPath>
</defs>
</svg>
