<svg width="18" height="19" viewBox="0 0 18 19" fill="none" xmlns="http://www.w3.org/2000/svg">
<path d="M12.9365 18.7896C12.3555 18.7896 11.7794 18.6868 11.216 18.4822C8.73416 17.5806 6.43047 16.1122 4.5539 14.2356C2.67734 12.3591 1.20892 10.0554 0.307378 7.57351C0.0176675 6.77592 -0.067829 5.9526 0.0533496 5.12632C0.166865 4.35235 0.466665 3.60099 0.920373 2.95343C1.37608 2.30304 1.98363 1.76207 2.6773 1.38905C3.41703 0.991269 4.22443 0.789551 5.07715 0.789551C5.34236 0.789551 5.57156 0.974852 5.62714 1.23415L6.51002 5.35426C6.54999 5.54083 6.49266 5.73495 6.35777 5.86988L4.84917 7.37844C6.27231 10.2079 8.58155 12.5172 11.411 13.9403L12.9196 12.4317C13.0545 12.2968 13.2487 12.2395 13.4352 12.2794L17.5553 13.1623C17.8146 13.2179 17.9999 13.4471 17.9999 13.7123C17.9999 14.565 17.7982 15.3725 17.4004 16.1122C17.0274 16.8059 16.4864 17.4134 15.836 17.8691C15.1885 18.3228 14.4371 18.6226 13.6631 18.7362C13.4206 18.7718 13.1781 18.7895 12.9365 18.7896ZM4.62773 1.93911C3.50295 2.06328 2.50462 2.65283 1.84167 3.59902C1.09618 4.66298 0.922341 5.97162 1.36473 7.18945C3.098 11.9609 6.82867 15.6915 11.6001 17.4248C12.8179 17.8672 14.1265 17.6934 15.1905 16.9479C16.1367 16.2849 16.7263 15.2866 16.8504 14.1618L13.4987 13.4436L11.9232 15.0191C11.7556 15.1867 11.5008 15.2313 11.2863 15.1305C7.93994 13.5583 5.2312 10.8496 3.65907 7.50321C3.55828 7.28866 3.60279 7.03392 3.77044 6.86631L5.34594 5.29081L4.62773 1.93911Z" fill="#0C1419"/>
</svg>
