<svg width="24" height="25" viewBox="0 0 24 25" fill="none" xmlns="http://www.w3.org/2000/svg">
<path d="M10.2656 0.921875C10.4062 0.8125 10.5703 0.757812 10.7578 0.757812C10.9453 0.757812 11.1094 0.8125 11.25 0.921875L21.2578 9.57031C21.3359 9.64844 21.3984 9.73828 21.4453 9.83984C21.4922 9.94141 21.5156 10.0469 21.5156 10.1562V22.5078C21.5156 22.6016 21.4961 22.6953 21.457 22.7891C21.418 22.8828 21.3594 22.9609 21.2812 23.0234C21.2188 23.1016 21.1406 23.1602 21.0469 23.1992C20.9531 23.2383 20.8594 23.2578 20.7656 23.2578H14.5078C14.3047 23.2578 14.1289 23.1836 13.9805 23.0352C13.832 22.8867 13.7578 22.7109 13.7578 22.5078V17.5625C13.7578 17.1719 13.6836 16.7969 13.5352 16.4375C13.3867 16.0781 13.1719 15.7578 12.8906 15.4766C12.6094 15.1953 12.2852 14.9805 11.918 14.832C11.5508 14.6836 11.1641 14.6094 10.7578 14.6094C10.3516 14.6094 9.96484 14.6836 9.59766 14.832C9.23047 14.9805 8.90625 15.1953 8.625 15.4766C8.34375 15.7578 8.12891 16.0781 7.98047 16.4375C7.83203 16.7969 7.75781 17.1719 7.75781 17.5625V22.5078C7.75781 22.7109 7.68359 22.8867 7.53516 23.0352C7.38672 23.1836 7.21094 23.2578 7.00781 23.2578H0.75C0.546875 23.2578 0.371094 23.1836 0.222656 23.0352C0.0742188 22.8867 0 22.7109 0 22.5078V10.1562C0 10.0469 0.0234375 9.94141 0.0703125 9.83984C0.117188 9.73828 0.179688 9.64844 0.257812 9.57031L10.2656 0.921875ZM1.5 10.4844V21.7578H6.25781V17.5625C6.25781 16.9688 6.37109 16.3984 6.59766 15.8516C6.82422 15.3047 7.14844 14.8203 7.57031 14.3984C7.99219 13.9922 8.48047 13.6758 9.03516 13.4492C9.58984 13.2227 10.1641 13.1094 10.7578 13.1094C11.3516 13.1094 11.9258 13.2227 12.4805 13.4492C13.0352 13.6758 13.5234 13.9922 13.9453 14.3984C14.3672 14.8203 14.6914 15.3047 14.918 15.8516C15.1445 16.3984 15.2578 16.9688 15.2578 17.5625V21.7578H20.0156V10.4844L10.7578 2.49219L1.5 10.4844Z" fill="black"/>
</svg>
