<svg width="24" height="25" viewBox="0 0 24 25" fill="none" xmlns="http://www.w3.org/2000/svg">
<path d="M0 12.5C0 11.7344 0.269531 11.0859 0.808594 10.5547C1.34766 10.0234 2 9.75781 2.76562 9.75781H12.75C13.5156 9.75781 14.168 10.0234 14.707 10.5547C15.2461 11.0859 15.5156 11.7344 15.5156 12.5V18.5C15.5156 19.2656 15.2461 19.9141 14.707 20.4453C14.168 20.9766 13.5156 21.2422 12.75 21.2422H2.76562C2 21.2422 1.34766 20.9766 0.808594 20.4453C0.269531 19.9141 0 19.2656 0 18.5V12.5ZM2.76562 11.2578C2.42188 11.2578 2.125 11.3789 1.875 11.6211C1.625 11.8633 1.5 12.1562 1.5 12.5V18.5C1.5 18.8438 1.625 19.1367 1.875 19.3789C2.125 19.6211 2.42188 19.7422 2.76562 19.7422H12.75C13.0938 19.7422 13.3906 19.6211 13.6406 19.3789C13.8906 19.1367 14.0156 18.8438 14.0156 18.5V12.5C14.0156 12.1562 13.8906 11.8633 13.6406 11.6211C13.3906 11.3789 13.0938 11.2578 12.75 11.2578H2.76562ZM17.7656 9.89844H20.7656V11.0938H19.8516V19.9062H20.7656V21.1016H17.7656V19.9062H18.6562V11.0938H17.7656V9.89844ZM1.35938 6.40625V5.49219H0.164062V8.49219H1.35938V7.60156H14.1562V8.49219H15.3516V5.49219H14.1562V6.40625H1.35938Z" fill="black"/>
</svg>
