<svg width="10" height="7" viewBox="0 0 10 7" fill="none" xmlns="http://www.w3.org/2000/svg">
<path d="M9.84016 1.04054L9.5126 0.710698C9.40951 0.607689 9.27235 0.55094 9.12577 0.55094C8.97926 0.55094 8.84194 0.607689 8.73885 0.710698L5.00224 4.44748L1.26131 0.706551C1.15838 0.603542 1.02107 0.546875 0.87456 0.546875C0.728055 0.546875 0.590655 0.603542 0.487646 0.706551L0.160001 1.03436C-0.0533338 1.24753 -0.0533338 1.59477 0.160001 1.80794L4.61402 6.27798C4.71695 6.38091 4.8541 6.45343 5.00191 6.45343H5.00362C5.1502 6.45343 5.28736 6.38082 5.39029 6.27798L9.84016 1.82006C9.94325 1.71713 9.99984 1.57583 10 1.42932C10 1.28273 9.94325 1.14338 9.84016 1.04054Z" fill="#0D263B"/>
</svg>
