<svg width="18" height="16" viewBox="0 0 18 16" fill="none" xmlns="http://www.w3.org/2000/svg">
<g clip-path="url(#clip0_1096_61225)">
<path d="M1.1726 11.432C7.50856 9.70346 9.82443 13.1964 16.8574 11.4346C17.1185 11.3692 17.2748 11.1131 17.2067 10.8627C17.1385 10.6122 16.8717 10.4622 16.6107 10.5275C15.2299 10.8734 14.0331 11.0015 12.9493 11.0028L11.5333 8.81252C12.3703 9.81068 13.926 9.86821 14.8375 8.93802C15.2383 8.52908 15.4491 7.99483 15.4312 7.43371C15.3711 5.55265 12.9695 4.70862 11.6469 6.05827C11.0098 6.70846 10.8942 7.63293 11.253 8.37887L9.31534 5.38187L12.1907 4.58559C13.0837 4.3383 13.5057 3.35737 13.052 2.57715C12.7225 2.01065 12.0388 1.74059 11.3894 1.92046L7.03627 3.12599C5.90761 3.43859 5.40218 4.69771 6.02191 5.65633L7.33764 7.69143C6.38919 8.25643 3.38094 10.0467 3.34899 10.0679C2.5939 10.1445 1.78523 10.2902 0.905548 10.5302C0.646088 10.601 0.495518 10.8602 0.569273 11.1092C0.642995 11.3583 0.913233 11.5027 1.1726 11.432ZM12.3585 6.70058C12.8183 6.2314 13.5858 6.21012 14.0733 6.65008C14.5617 7.09087 14.5853 7.82699 14.1259 8.29577C13.6667 8.7644 12.8996 8.78712 12.4112 8.34627C11.9227 7.90546 11.8992 7.16933 12.3585 6.70058ZM8.42517 7.59552L6.85197 5.16212C6.57411 4.73233 6.80032 4.16712 7.30707 4.02677L11.6602 2.82124C11.8707 2.76287 12.0922 2.85046 12.1989 3.03402C12.3463 3.28737 12.2086 3.60487 11.9198 3.68484L8.42485 4.65274C8.11378 4.7389 7.97483 5.08671 8.14523 5.35024L11.769 10.9553C9.49004 10.7717 7.63829 10.1121 5.29358 10.0119L8.26767 8.24093C8.49688 8.10446 8.56741 7.81549 8.42517 7.59552Z" fill="#696969"/>
<path d="M16.6108 12.7151C9.8819 14.4008 7.52074 10.913 0.905549 12.7178C0.646088 12.7885 0.495518 13.0478 0.569273 13.2968C0.643027 13.5459 0.913266 13.6904 1.17266 13.6195C7.50863 11.891 9.8245 15.384 16.8575 13.6222C17.1185 13.5568 17.2749 13.3007 17.2067 13.0503C17.1386 12.7998 16.8718 12.6498 16.6108 12.7151Z" fill="#696969"/>
</g>
<defs>
<clipPath id="clip0_1096_61225">
<rect width="16.6721" height="16" fill="white" transform="translate(0.550781)"/>
</clipPath>
</defs>
</svg>
