<svg width="57" height="53" viewBox="0 0 57 53" fill="none" xmlns="http://www.w3.org/2000/svg">
<path d="M37.2 41.2992C36.6 41.2992 36.2 41.6992 36.2 42.2992V48.8992C36.2 49.6992 35.6 50.2992 34.9 50.2992H3.39998C2.69998 50.2992 2.09998 49.6992 2.09998 48.8992V3.69922C2.09998 2.89922 2.69998 2.29922 3.39998 2.29922H26.9V9.59923C26.9 10.7992 27.9 11.7992 29.1 11.7992H36.3V23.5992C36.3 24.1992 36.7 24.5992 37.3 24.5992C37.9 24.5992 38.3 24.1992 38.3 23.5992V10.8992C38.3 10.8992 38.3 10.8992 38.3 10.7992C38.3 10.4992 38.2 10.2992 38 9.99922L28.7 0.499222C28.5 0.299222 28.2 0.199219 27.9 0.199219H3.39998C1.59998 0.199219 0.0999756 1.69923 0.0999756 3.59923V48.7992C0.0999756 50.6992 1.59998 52.1992 3.39998 52.1992H34.9C36.7 52.1992 38.2 50.6992 38.2 48.7992V42.1992C38.2 41.6992 37.7 41.2992 37.2 41.2992ZM28.8 9.59923V3.69922L34.7 9.79922H29C28.9 9.79922 28.8 9.69923 28.8 9.59923Z" fill="#58595B"/>
<path d="M54.9 10.9985C54.3 10.4985 53.5 10.1985 52.6 10.2985C51.8 10.3985 51 10.7984 50.5 11.3984L48.6 13.7985L47.4 12.7985C47 12.3985 46.4 12.1985 45.8 12.2985C45.2 12.3985 44.7 12.5985 44.3 13.0985L40.3 18.0985C40 18.4985 40 19.1985 40.4 19.4985C40.6 19.5985 40.8 19.6985 41 19.6985C41.3 19.6985 41.6 19.5985 41.8 19.2985L45.8 14.2985L45.9 14.1985H46L47.3 15.2985L29.1 37.9985C28.4 38.8985 27.9 39.8985 27.6 40.9985L26.7 44.2985C26.6 44.6985 26.7 45.1985 27.1 45.4985C27.3 45.6985 27.6 45.7985 27.8 45.7985C28 45.7985 28.1 45.7985 28.3 45.6985L31.3 44.1985C32.3 43.6985 33.2 42.9985 33.9 42.0985L52.8 18.7985L55.4 15.5985C56.4 14.0985 56.2 12.0985 54.9 10.9985ZM32.3 40.6985C31.8 41.3985 31.1 41.8985 30.3 42.2985L29.1 42.8984L29.5 41.4985C29.7 40.6985 30.1 39.8985 30.7 39.1985L49 16.5985L50.7 17.9985L32.3 40.6985ZM53.8 14.1985L51.9 16.5985L50.2 15.1985L52.2 12.7985C52.4 12.5985 52.6 12.3984 52.9 12.3984H53C53.2 12.3984 53.5 12.4985 53.7 12.6985C54.1 12.9985 54.2 13.6985 53.8 14.1985Z" fill="#58595B"/>
<path d="M9.59998 6.59961H5.59998V8.59961H9.59998V6.59961Z" fill="#58595B"/>
<path d="M32.1 20.5H25.7V22.5H32.1V20.5Z" fill="#58595B"/>
<path d="M22.5 11.1992H15.3V13.1992H22.5V11.1992Z" fill="#58595B"/>
<path d="M13.2 11.1992H5.59998V13.1992H13.2V11.1992Z" fill="#58595B"/>
<path d="M23.4 20.5H5.59998V22.5H23.4V20.5Z" fill="#58595B"/>
<path d="M32.3 25.1992H14.5V27.1992H32.3V25.1992Z" fill="#58595B"/>
<path d="M13.2 25.1992H5.59998V27.1992H13.2V25.1992Z" fill="#58595B"/>
<path d="M32.1 30H25.3V32H32.1V30Z" fill="#58595B"/>
<path d="M21.9 30H5.59998V32H21.9V30Z" fill="#58595B"/>
<path d="M25.5999 34.7988H13.7V36.7988H25.5999V34.7988Z" fill="#58595B"/>
<path d="M10.4 34.7988H5.59998V36.7988H10.4V34.7988Z" fill="#58595B"/>
<path d="M22.6 6.59961H12.1V8.59961H22.6V6.59961Z" fill="#58595B"/>
<path d="M11.2 46.7993C11.5 46.7993 11.9 46.6993 12.2 46.5993C13.4 46.1993 14.3 45.1993 14.6 43.8993C14.7 43.4993 14.8 42.9993 15 42.5993C15.2 42.0993 15.6 41.6993 16.2 41.6993C16.7 41.6993 17.2 41.8993 17.5 42.3993C18.1 43.4993 18.4 44.5993 18.4 45.4993C18.4 46.0993 18.8 46.4993 19.4 46.4993C20 46.4993 20.4 46.0993 20.4 45.4993C20.4 44.1993 20.1 42.7993 19.3 41.3993C18.7 40.1993 17.4 39.4993 16.1 39.5993C14.8 39.6993 13.7 40.5993 13.2 41.7993C13 42.2993 12.9 42.8993 12.7 43.2993C12.5 43.8993 12.1 44.3993 11.6 44.5993C11.3 44.6993 10.6 44.8993 9.9 43.5993C9.6 43.0993 8.99999 42.9993 8.49999 43.1993C7.99999 43.4993 7.89999 44.0993 8.09999 44.5993C8.89999 46.0993 9.99999 46.7993 11.2 46.7993Z" fill="#58595B"/>
<path d="M21.9 45.5992C21.9 46.3992 22.5 46.9992 23.3 46.9992C24.1 46.9992 24.7 46.3992 24.7 45.5992C24.7 44.7992 24.1 44.1992 23.3 44.1992C22.5 44.1992 21.9 44.7992 21.9 45.5992Z" fill="#58595B"/>
</svg>
