<svg width="18" height="16" viewBox="0 0 18 16" fill="none" xmlns="http://www.w3.org/2000/svg">
<g clip-path="url(#clip0_1096_61209)">
<path d="M4.48706 2.03809C3.42206 2.03809 2.55566 2.86959 2.55566 3.89162C2.55566 4.91365 3.42209 5.74515 4.48706 5.74515C5.55203 5.74515 6.41846 4.91368 6.41846 3.89162C6.41846 2.86955 5.55206 2.03809 4.48706 2.03809ZM4.48706 4.80765C3.96072 4.80765 3.53255 4.39674 3.53255 3.89162C3.53255 3.38649 3.96075 2.97559 4.48706 2.97559C5.01337 2.97559 5.44157 3.38652 5.44157 3.89162C5.44157 4.39671 5.01341 4.80765 4.48706 4.80765Z" fill="#696969"/>
<path d="M12.6024 14.4682L10.8732 9.78794H7.52241L5.98805 6.29297H3.48404L1.57462 11.2769C1.49745 11.4783 1.48139 11.6933 1.52298 11.8984H0.550781V12.8359H8.81935L10.4478 15.4426C10.6699 15.7981 11.0663 16.0004 11.4761 16.0004C11.6381 16.0004 11.8022 15.9688 11.9584 15.9025C12.5274 15.661 12.8103 15.031 12.6024 14.4682ZM3.98762 11.8984L4.56929 11.0034L5.06281 11.8984H3.98762ZM11.5633 15.0451C11.462 15.0881 11.3425 15.0517 11.2857 14.9605L9.37266 11.8984H6.16802L4.63871 9.12519L2.90406 11.7941C2.8616 11.8594 2.7884 11.8984 2.7082 11.8984C2.60344 11.8984 2.54463 11.839 2.51891 11.8036C2.49318 11.7682 2.45541 11.6947 2.49152 11.6004L4.16571 7.2305H5.33959L6.87395 10.7255H10.1831L11.6817 14.7815C11.7198 14.8849 11.6678 15.0007 11.5633 15.0451Z" fill="#696969"/>
<path d="M12.2634 3.52059C12.2634 2.92647 12.013 2.60044 11.8302 2.36238C11.6788 2.16531 11.5875 2.04634 11.5875 1.76034C11.5875 1.47431 11.6789 1.35538 11.8302 1.15825C12.013 0.920188 12.2634 0.594156 12.2634 0H11.2865C11.2865 0.286 11.1951 0.404969 11.0438 0.602063C10.861 0.840125 10.6106 1.16616 10.6106 1.76031C10.6106 2.35444 10.861 2.68047 11.0438 2.91853C11.1951 3.11559 11.2865 3.23456 11.2865 3.52056C11.2865 3.80666 11.1951 3.92563 11.0438 4.12275C10.861 4.36091 10.6106 4.68697 10.6106 5.28116C10.6106 5.87534 10.8609 6.20141 11.0438 6.43947C11.1951 6.63659 11.2865 6.75559 11.2865 7.04166H12.2634C12.2634 6.44747 12.013 6.12141 11.8302 5.88331C11.6789 5.68619 11.5875 5.56722 11.5875 5.28113C11.5875 4.99503 11.6789 4.87609 11.8302 4.67894C12.013 4.44084 12.2634 4.11478 12.2634 3.52059Z" fill="#696969"/>
<path d="M14.7429 3.5205C14.7429 2.92637 14.4925 2.60034 14.3097 2.36228C14.1583 2.16522 14.067 2.04625 14.067 1.76025C14.067 1.47422 14.1583 1.35528 14.3097 1.15816C14.4925 0.920187 14.7429 0.594156 14.7429 0H13.766C13.766 0.286 13.6746 0.404969 13.5233 0.602062C13.3405 0.840125 13.0901 1.16616 13.0901 1.76031C13.0901 2.35444 13.3405 2.68047 13.5233 2.91853C13.6746 3.11559 13.766 3.23456 13.766 3.52056C13.766 3.80665 13.6746 3.92562 13.5233 4.12275C13.3405 4.36084 13.0901 4.6869 13.0901 5.28106C13.0901 5.87522 13.3404 6.20131 13.5233 6.43937C13.6746 6.6365 13.766 6.7555 13.766 7.04156H14.7429C14.7429 6.44737 14.4925 6.12131 14.3097 5.88322C14.1583 5.68609 14.067 5.56712 14.067 5.28103C14.067 4.99494 14.1583 4.876 14.3097 4.67884C14.4925 4.44075 14.7429 4.11469 14.7429 3.5205Z" fill="#696969"/>
<path d="M17.2236 3.52059C17.2236 2.92647 16.9732 2.60044 16.7904 2.36237C16.6391 2.16531 16.5477 2.04634 16.5477 1.76034C16.5477 1.47431 16.6391 1.35537 16.7904 1.15825C16.9732 0.920187 17.2236 0.594156 17.2236 0H16.2467C16.2467 0.286 16.1553 0.404969 16.004 0.602062C15.8212 0.840125 15.5708 1.16616 15.5708 1.76031C15.5708 2.35444 15.8212 2.68047 16.004 2.91853C16.1553 3.11559 16.2467 3.23456 16.2467 3.52056C16.2467 3.80665 16.1553 3.92562 16.004 4.12275C15.8212 4.36084 15.5708 4.6869 15.5708 5.28106C15.5708 5.87522 15.8211 6.20131 16.004 6.43937C16.1553 6.6365 16.2467 6.7555 16.2467 7.04156H17.2236C17.2236 6.44737 16.9732 6.12131 16.7904 5.88322C16.6391 5.68609 16.5477 5.56712 16.5477 5.28103C16.5477 4.99494 16.6391 4.876 16.7904 4.67884C16.9732 4.44084 17.2236 4.11478 17.2236 3.52059Z" fill="#696969"/>
</g>
<defs>
<clipPath id="clip0_1096_61209">
<rect width="16.6721" height="16" fill="white" transform="translate(0.550781)"/>
</clipPath>
</defs>
</svg>
