<svg width="22" height="20" viewBox="0 0 22 20" fill="none" xmlns="http://www.w3.org/2000/svg">
<g clip-path="url(#clip0_1096_61158)">
<path d="M21.5218 4.7939C21.3447 4.6096 21.0926 4.50391 20.8303 4.50391H20.552C19.8222 4.50391 19.2238 5.02627 19.16 5.71898L18.859 8.98777C18.8323 9.27746 18.582 9.49594 18.2768 9.49594H15.6707C14.8356 9.49594 14.1562 10.1433 14.1562 10.939V11.0824C14.1562 11.5632 14.5667 11.9542 15.0712 11.9542H15.6298L15.0797 13.666C15.0793 13.6673 15.0789 13.6686 15.0785 13.6699L14.658 14.9783C14.6086 15.132 14.6993 15.2946 14.8605 15.3416C14.8903 15.3503 14.9204 15.3545 14.95 15.3545C15.0806 15.3545 15.2016 15.2739 15.2418 15.1487L15.5964 14.0452H19.7835L20.1381 15.1487C20.1784 15.2739 20.2992 15.3545 20.4299 15.3545C20.4595 15.3545 20.4897 15.3503 20.5194 15.3416C20.6806 15.2946 20.7713 15.1319 20.7219 14.9783L19.724 11.8729C19.8992 11.8257 20.0684 11.7584 20.2272 11.6717C20.3734 11.5918 20.424 11.4141 20.3402 11.2747C20.2563 11.1354 20.0697 11.0871 19.9235 11.167C19.6775 11.3014 19.3968 11.3725 19.1118 11.3725H16.0427C16.0417 11.3725 16.0407 11.3725 16.0397 11.3725H15.0713C14.9034 11.3725 14.7669 11.2424 14.7669 11.0825V10.9391C14.7669 10.4641 15.1724 10.0778 15.6708 10.0778H18.2769C18.901 10.0778 19.4127 9.63103 19.4673 9.03866L19.7683 5.76982C19.8042 5.3798 20.1412 5.08565 20.5521 5.08565H20.8303C20.9232 5.08565 21.009 5.1216 21.0717 5.18688C21.1345 5.25215 21.1646 5.33667 21.1565 5.42487L20.7396 9.95155C20.7293 10.0632 20.7065 10.1736 20.6718 10.2798C20.6216 10.4332 20.7115 10.5963 20.8725 10.6441C21.0337 10.6918 21.2046 10.6062 21.2548 10.4529C21.3024 10.3069 21.3337 10.1554 21.3478 10.0024L21.7647 5.47571C21.7875 5.22675 21.699 4.97821 21.5218 4.7939ZM16.2682 11.9543H19.1115L19.5965 13.4634H15.7832L16.2682 11.9543Z" fill="#696969"/>
<path d="M7.02519 9.49691H4.41912C4.11388 9.49691 3.86364 9.27847 3.83694 8.98874L3.53589 5.71995C3.47211 5.02724 2.87369 4.50488 2.14392 4.50488H1.86563C1.60334 4.50488 1.35126 4.61057 1.17408 4.79488C0.996897 4.97919 0.908408 5.22773 0.931283 5.47677L1.34817 10.0034C1.39738 10.5376 1.653 11.0313 2.06797 11.3936C2.32867 11.6211 2.63822 11.7844 2.97183 11.8744L1.97402 14.9793C1.92465 15.133 2.01534 15.2956 2.17652 15.3426C2.20632 15.3513 2.23644 15.3555 2.26603 15.3555C2.39665 15.3555 2.51758 15.2749 2.55779 15.1497L2.9124 14.0462H7.09956L7.45417 15.1497C7.49438 15.2749 7.61527 15.3555 7.74593 15.3555C7.77556 15.3555 7.80568 15.3513 7.83544 15.3426C7.99662 15.2956 8.08731 15.1329 8.03794 14.9793L7.61747 13.6709C7.61706 13.6696 7.61665 13.6683 7.61625 13.667L7.06618 11.9552H7.62475C8.12927 11.9552 8.53964 11.5642 8.53964 11.0834V10.94C8.53964 10.1443 7.86026 9.49691 7.02519 9.49691ZM3.09935 13.4643L3.58429 11.9552H6.42763L6.91257 13.4643H3.09935ZM7.92909 11.0834C7.92909 11.2433 7.79257 11.3734 7.62475 11.3734H6.6565C6.65528 11.3734 6.6541 11.3734 6.65288 11.3734H3.58413C3.51884 11.3734 3.45461 11.3694 3.39136 11.3624C3.39132 11.3624 3.39123 11.3624 3.39115 11.3624C2.62739 11.2783 2.02523 10.7006 1.95636 9.95252L1.53947 5.42588C1.53133 5.33764 1.56145 5.25313 1.62422 5.18785C1.68694 5.12258 1.77266 5.08662 1.86559 5.08662H2.14388C2.55478 5.08662 2.89172 5.38073 2.92762 5.7708L3.22866 9.03959V9.03955C3.28321 9.63192 3.79497 10.0787 4.41908 10.0787H7.02515C7.52357 10.0787 7.92905 10.465 7.92905 10.94V11.0834H7.92909Z" fill="#696969"/>
<path d="M13.6653 14.3948C13.5393 13.9333 13.1019 13.6111 12.6015 13.6111H12.4126V8.31554H16.1717C16.3882 8.31554 16.5909 8.22381 16.7278 8.0639C16.8646 7.90395 16.9181 7.69629 16.8745 7.49414C16.7432 6.88583 16.1749 6.44434 15.5232 6.44434H9.17638C9.00774 6.44434 8.8711 6.57458 8.8711 6.73523C8.8711 6.89588 9.00774 7.02612 9.17638 7.02612H15.5232C15.8865 7.02612 16.2033 7.27225 16.2764 7.61131C16.2854 7.65258 16.2665 7.68225 16.2546 7.69629C16.2426 7.71029 16.2159 7.73379 16.1717 7.73379H6.5228C6.47864 7.73379 6.45194 7.71029 6.43993 7.69629C6.42796 7.68229 6.40916 7.65258 6.41807 7.61135C6.49126 7.27225 6.80801 7.02612 7.17133 7.02612H7.7446C7.91323 7.02612 8.04987 6.89588 8.04987 6.73523C8.04987 6.57458 7.91323 6.44434 7.7446 6.44434H7.17133C6.51959 6.44434 5.95129 6.88583 5.82002 7.49418C5.77642 7.69633 5.82991 7.90398 5.96675 8.0639C6.1036 8.22381 6.30626 8.31554 6.5228 8.31554H10.282V13.6111H10.093C9.59265 13.6111 9.15525 13.9334 9.02928 14.3948L8.9576 14.6572C8.91173 14.8254 8.94934 15.0005 9.06082 15.138C9.17235 15.2754 9.34086 15.3543 9.52313 15.3543H13.1714C13.3537 15.3543 13.5222 15.2755 13.6337 15.138C13.7452 15.0006 13.7828 14.8254 13.7369 14.6572L13.6653 14.3948ZM10.8925 8.31554H11.8021V13.6111H10.8925V8.31554ZM9.557 14.7724L9.62017 14.5412C9.67614 14.3361 9.87058 14.1929 10.093 14.1929H12.6015C12.8239 14.1929 13.0183 14.3361 13.0743 14.5412L13.1375 14.7724H9.557Z" fill="#696969"/>
</g>
<defs>
<clipPath id="clip0_1096_61158">
<rect width="20.8402" height="19.8582" fill="white" transform="translate(0.926758)"/>
</clipPath>
</defs>
</svg>
