<svg width="18" height="16" viewBox="0 0 18 16" fill="none" xmlns="http://www.w3.org/2000/svg">
<path d="M5.76075 6.2805V7.25C5.76483 7.28822 5.77403 7.32578 5.7881 7.36175L6.28175 8.309V15.5H7.84476V8.309L8.33972 7.36175C8.35335 7.32572 8.3621 7.28817 8.36577 7.25V6.2805L8.61846 5.31075C8.62248 5.29069 8.62509 5.2704 8.62627 5.25V2.75C8.62627 2.6837 8.59883 2.62011 8.54997 2.57322C8.50112 2.52634 8.43486 2.5 8.36577 2.5H8.10527V1H7.32376V0.75C7.32376 0.683696 7.29631 0.620107 7.24746 0.573223C7.19861 0.526339 7.13235 0.5 7.06326 0.5C6.99417 0.5 6.92791 0.526339 6.87905 0.573223C6.8302 0.620107 6.80276 0.683696 6.80276 0.75V1H6.02125V2.5H5.76075C5.69166 2.5 5.6254 2.52634 5.57654 2.57322C5.52769 2.62011 5.50024 2.6837 5.50024 2.75V5.25C5.50142 5.2704 5.50403 5.29069 5.50806 5.31075L5.76075 6.2805ZM7.32376 15H6.80276V9.5H7.32376V15ZM7.32376 9H6.80276V8.5H7.32376V9ZM7.42327 8H6.70324L6.44274 7.5H7.68377L7.42327 8ZM7.84476 7H6.28175V6.5H7.84476V7ZM7.90181 6H6.2247L6.09445 5.5H8.03207L7.90181 6ZM6.54225 1.5H7.58426V2.5H6.54225V1.5ZM6.02125 3H8.10527V5H6.02125V3Z" fill="#696969"/>
<path d="M7.58425 4H6.54224V4.5H7.58425V4Z" fill="#696969"/>
<path d="M9.40772 6.2805V7.25C9.41139 7.28817 9.42014 7.32572 9.43377 7.36175L9.92872 8.309V15.5H11.4917V8.309L11.9867 7.36175C12.0003 7.32572 12.0091 7.28817 12.0127 7.25V6.2805L12.2654 5.31075C12.2695 5.29069 12.2721 5.2704 12.2732 5.25V2.75C12.2732 2.6837 12.2458 2.62011 12.1969 2.57322C12.1481 2.52634 12.0818 2.5 12.0127 2.5H11.7522V1H10.9707V0.75C10.9707 0.683696 10.9433 0.620107 10.8944 0.573223C10.8456 0.526339 10.7793 0.5 10.7102 0.5C10.6411 0.5 10.5749 0.526339 10.526 0.573223C10.4772 0.620107 10.4497 0.683696 10.4497 0.75V1H9.66822V2.5H9.40772C9.33863 2.5 9.27237 2.52634 9.22352 2.57322C9.17466 2.62011 9.14722 2.6837 9.14722 2.75V5.25C9.1484 5.2704 9.15101 5.29069 9.15503 5.31075L9.40772 6.2805ZM10.9707 15H10.4497V9.5H10.9707V15ZM10.9707 9H10.4497V8.5H10.9707V9ZM11.0702 8H10.3502L10.0897 7.5H11.3307L11.0702 8ZM11.4917 7H9.92872V6.5H11.4917V7ZM11.5488 6H9.87167L9.74142 5.5H11.679L11.5488 6ZM10.1892 1.5H11.2312V2.5H10.1892V1.5ZM9.66822 3H11.7522V5H9.66822V3Z" fill="#696969"/>
<path d="M11.2312 4H10.1892V4.5H11.2312V4Z" fill="#696969"/>
</svg>
