<svg width="17" height="16" viewBox="0 0 17 16" fill="none" xmlns="http://www.w3.org/2000/svg">
<g clip-path="url(#clip0_1096_61193)">
<path d="M15.2972 1.89258H1.55566C0.747677 1.89258 0.090332 2.51895 0.090332 3.28885V11.6045C0.090332 12.3744 0.747677 13.0007 1.55566 13.0007H2.20691V13.5282C2.20691 13.7853 2.4256 13.9936 2.69535 13.9936C2.96511 13.9936 3.1838 13.7853 3.1838 13.5282V13.0007H13.669V13.5282C13.669 13.7853 13.8877 13.9936 14.1575 13.9936C14.4272 13.9936 14.6459 13.7853 14.6459 13.5282V13.0007H15.2972C16.1051 13.0007 16.7625 12.3744 16.7625 11.6045V3.28885C16.7625 2.51895 16.1051 1.89258 15.2972 1.89258ZM11.585 12.0699H1.55566C1.28633 12.0699 1.06722 11.8611 1.06722 11.6045V3.28885C1.06722 3.03222 1.28633 2.82343 1.55566 2.82343H11.585V12.0699ZM15.7856 11.6045C15.7856 11.8611 15.5665 12.0699 15.2972 12.0699H12.5619V5.05747H15.7856V11.6045ZM15.7856 4.12662H12.5619V2.82343H15.2972C15.5665 2.82343 15.7856 3.03222 15.7856 3.28885V4.12662Z" fill="#696969"/>
<path d="M13.6788 10.6403C13.7337 10.8925 13.983 11.054 14.2532 11.0058C14.5186 10.9531 14.6872 10.7148 14.6368 10.4585C14.5754 10.1792 14.2837 10.0266 14.0161 10.1041C13.765 10.1805 13.6333 10.4087 13.6788 10.6403Z" fill="#696969"/>
<path d="M13.6788 8.65492C13.7337 8.90712 13.983 9.06869 14.2532 9.02044C14.5186 8.96775 14.6872 8.72942 14.6368 8.47309C14.5754 8.19374 14.2836 8.04124 14.0161 8.11875C13.765 8.19514 13.6333 8.42332 13.6788 8.65492Z" fill="#696969"/>
<path d="M13.6788 6.66859C13.7337 6.92079 13.983 7.08235 14.2532 7.0341C14.5186 6.98142 14.6872 6.74309 14.6368 6.48676C14.5754 6.20741 14.2836 6.05491 14.0161 6.13242C13.765 6.20881 13.6333 6.43699 13.6788 6.66859Z" fill="#696969"/>
<path d="M3.67236 11.0145H9.01265C9.82063 11.0145 10.478 10.3881 10.478 9.61818V5.27421C10.478 4.5043 9.82063 3.87793 9.01265 3.87793H3.67236C2.86438 3.87793 2.20703 4.5043 2.20703 5.27421V9.61818C2.20703 10.3881 2.86438 11.0145 3.67236 11.0145ZM3.18391 5.27421C3.18391 5.01757 3.40303 4.80878 3.67236 4.80878H9.01265C9.28198 4.80878 9.50109 5.01757 9.50109 5.27421V9.61818C9.50109 9.87481 9.28198 10.0836 9.01265 10.0836H3.67236C3.40303 10.0836 3.18391 9.87481 3.18391 9.61818V5.27421Z" fill="#696969"/>
</g>
<defs>
<clipPath id="clip0_1096_61193">
<rect width="16.6721" height="15.8865" fill="white" transform="translate(0.090332)"/>
</clipPath>
</defs>
</svg>
