<svg width="17" height="16" viewBox="0 0 17 16" fill="none" xmlns="http://www.w3.org/2000/svg">
<path d="M16.1422 14.7501H9.10924V8.62568H16.1422C16.5019 8.62568 16.7934 8.3459 16.7934 8.00068C16.7934 3.45551 12.8444 -0.0940472 8.4225 0.00190003C3.83445 0.0202106 0.122803 3.5882 0.122803 8.00068C0.122803 8.3459 0.414341 8.62568 0.773931 8.62568H7.80686V14.7501H0.773931C0.414341 14.7501 0.122803 15.0299 0.122803 15.375C0.122803 15.7202 0.414341 16 0.773931 16H16.1422C16.5019 16 16.7934 15.7202 16.7934 15.375C16.7934 15.0299 16.5019 14.7501 16.1422 14.7501ZM8.45811 1.25129C8.66265 1.25129 9.17539 1.61347 9.65149 2.98383C10.0627 4.16792 10.3094 5.70905 10.3588 7.3758H6.55726C6.60674 5.70905 6.85351 4.16792 7.26474 2.98383C7.74072 1.61347 8.25345 1.25129 8.45811 1.25129ZM15.4614 7.3758H11.6617C11.6102 5.55683 11.294 3.13423 10.4269 1.5185C13.1026 2.26289 15.1916 4.53632 15.4614 7.3758ZM6.48934 1.51838C5.62324 3.13227 5.30601 5.55256 5.2545 7.3758H1.4547C1.72449 4.53779 3.81194 2.26338 6.48934 1.51838ZM2.07644 12.3128C1.71673 12.3128 1.42519 12.033 1.42519 11.6878V10.4588C1.42519 10.1136 1.71673 9.83381 2.07644 9.83381C2.43603 9.83381 2.72757 10.1136 2.72757 10.4588V11.6878C2.72757 12.033 2.43603 12.3128 2.07644 12.3128ZM5.24546 12.3128C4.88587 12.3128 4.59434 12.033 4.59434 11.6878V10.4588C4.59434 10.1136 4.88587 9.83381 5.24546 9.83381C5.60518 9.83381 5.89672 10.1136 5.89672 10.4588V11.6878C5.89672 12.033 5.60518 12.3128 5.24546 12.3128ZM11.6706 9.83381C12.0304 9.83381 12.3219 10.1136 12.3219 10.4588V11.6878C12.3219 12.033 12.0304 12.3128 11.6706 12.3128C11.311 12.3128 11.0195 12.033 11.0195 11.6878V10.4588C11.0195 10.1136 11.311 9.83381 11.6706 9.83381ZM14.8398 9.83381C15.1995 9.83381 15.491 10.1136 15.491 10.4588V11.6878C15.491 12.033 15.1995 12.3128 14.8398 12.3128C14.4802 12.3128 14.1887 12.033 14.1887 11.6878V10.4588C14.1887 10.1136 14.4802 9.83381 14.8398 9.83381Z" fill="#696969"/>
</svg>
