<svg width="16" height="17" viewBox="0 0 16 17" fill="none" xmlns="http://www.w3.org/2000/svg">
<g clip-path="url(#clip0_2174_1955)">
<path d="M8 16.5C12.4183 16.5 16 12.9183 16 8.5C16 4.08172 12.4183 0.5 8 0.5C3.58172 0.5 0 4.08172 0 8.5C0 12.9183 3.58172 16.5 8 16.5Z" fill="#F0F0F0"/>
<path d="M10.7825 8.50037C10.7825 9.19602 9.53666 10.9351 7.99988 10.9351C6.4631 10.9351 5.21729 9.19602 5.21729 8.50037C5.21729 6.96355 6.4631 5.71777 7.99988 5.71777C9.53666 5.71777 10.7825 6.96355 10.7825 8.50037Z" fill="#D80027"/>
<path d="M10.7825 8.5C10.7825 10.0368 9.53666 11.2826 7.99988 11.2826C6.4631 11.2826 5.21729 10.0368 5.21729 8.5" fill="#0052B4"/>
<path d="M10.9492 10.96L11.687 10.2222L12.1788 10.7141L11.441 11.4518L10.9492 10.96Z" fill="black"/>
<path d="M9.71924 12.1895L10.457 11.4517L10.9488 11.9436L10.2111 12.6813L9.71924 12.1895Z" fill="black"/>
<path d="M12.4248 12.4346L13.1625 11.6968L13.6544 12.1887L12.9166 12.9264L12.4248 12.4346Z" fill="black"/>
<path d="M11.1948 13.665L11.9326 12.9273L12.4244 13.4191L11.6867 14.1569L11.1948 13.665Z" fill="black"/>
<path d="M11.687 11.6973L12.4247 10.9595L12.9166 11.4514L12.1788 12.1891L11.687 11.6973Z" fill="black"/>
<path d="M10.4573 12.9268L11.195 12.189L11.6868 12.6809L10.9491 13.4186L10.4573 12.9268Z" fill="black"/>
<path d="M12.428 6.04199L10.4607 4.0747L10.9525 3.58287L12.9198 5.55016L12.428 6.04199Z" fill="black"/>
<path d="M10.4604 5.5498L9.72272 4.81207L10.2145 4.32027L10.9523 5.058L10.4604 5.5498Z" fill="black"/>
<path d="M11.6899 6.78027L10.9522 6.04254L11.444 5.55073L12.1817 6.28847L11.6899 6.78027Z" fill="black"/>
<path d="M11.9358 4.07422L11.1981 3.33649L11.6899 2.84466L12.4276 3.58239L11.9358 4.07422Z" fill="black"/>
<path d="M13.166 5.30469L12.4283 4.56696L12.9201 4.07513L13.6578 4.81286L13.166 5.30469Z" fill="black"/>
<path d="M2.83618 11.6963L4.80348 13.6636L4.31165 14.1554L2.34435 12.1881L2.83618 11.6963Z" fill="black"/>
<path d="M4.80322 12.1875L5.54095 12.9252L5.04915 13.417L4.31142 12.6793L4.80322 12.1875Z" fill="black"/>
<path d="M3.57349 10.958L4.31122 11.6957L3.81939 12.1876L3.08166 11.4498L3.57349 10.958Z" fill="black"/>
<path d="M4.31152 10.2197L6.27882 12.187L5.78699 12.6788L3.81969 10.7116L4.31152 10.2197Z" fill="black"/>
<path d="M4.80322 3.33496L2.83593 5.30225L2.3441 4.81043L4.31139 2.84313L4.80322 3.33496Z" fill="black"/>
<path d="M5.54102 4.07324L3.57372 6.04054L3.08189 5.54871L5.04919 3.58141L5.54102 4.07324Z" fill="black"/>
<path d="M6.2793 4.81055L4.312 6.77784L3.8202 6.28603L5.78749 4.31874L6.2793 4.81055Z" fill="black"/>
</g>
<defs>
<clipPath id="clip0_2174_1955">
<rect width="16" height="16" fill="white" transform="translate(0 0.5)"/>
</clipPath>
</defs>
</svg>
