<svg width="100" height="100" viewBox="0 0 100 100" fill="none" xmlns="http://www.w3.org/2000/svg">
<g clip-path="url(#clip0_0_4)">
<rect width="100" height="100" fill="#FFD14B"/>
<path d="M78.1575 49.0445C78.709 49.6118 79.4122 49.8055 79.7845 49.4458L83.5902 45.613C83.9625 45.2532 83.7557 44.5475 83.2041 43.9802C82.6526 43.4129 81.9356 43.2192 81.5771 43.5928L77.7576 47.4533C77.3991 47.7853 77.5921 48.491 78.1575 49.0445Z" fill="#3A3D54"/>
<path d="M87.8096 50.0131C87.4235 49.3212 86.7892 48.9476 86.348 49.2105L81.6736 51.9087C81.2323 52.1716 81.2323 52.9049 81.6736 53.5968C82.1148 54.2886 82.6939 54.6484 83.1352 54.3993L87.8096 51.632C88.2094 51.4382 88.2094 50.6911 87.8096 50.0131Z" fill="#3A3D54"/>
<path d="M90.6915 57.0283C90.4847 56.2673 89.9607 55.7415 89.4781 55.866L84.2522 57.2497C83.7696 57.3742 83.5765 58.0937 83.7834 58.8548C83.9902 59.6158 84.5004 60.1554 84.9968 60.017L90.2089 58.6334C90.6915 58.5227 90.9121 57.7893 90.6915 57.0283Z" fill="#3A3D54"/>
<path d="M73.6211 45.5715C74.3105 45.9589 74.9999 45.9727 75.2895 45.5715L78.0472 40.8808C78.3092 40.438 77.9369 39.8015 77.2475 39.4003C76.5581 38.999 75.8686 38.999 75.5791 39.4003L72.8213 44.0909C72.5593 44.5337 72.9316 45.1702 73.6211 45.5715Z" fill="#3A3D54"/>
<path d="M62.6866 52.8496C64.1403 52.843 65.5818 53.1154 66.9335 53.6521C65.5811 53.1177 64.1401 52.8454 62.6866 52.8496Z" fill="#3A3D54"/>
<path d="M80.9152 62.4523C80.9152 60.3491 79.3295 59.934 77.2336 60.3353C75.4135 60.5982 73.9657 61.0825 74.2415 62.9228C74.3277 63.56 74.3646 64.2031 74.3518 64.8461C74.2948 67.148 73.5626 69.382 72.2467 71.2685C70.9307 73.1549 69.0896 74.6099 66.9537 75.4515C64.8177 76.2931 62.4819 76.4839 60.2385 75.9999C57.995 75.516 55.9437 74.3788 54.3411 72.7307C52.7385 71.0827 51.6559 68.9969 51.2288 66.7344C50.8017 64.472 51.049 62.1334 51.9398 60.0113C52.8306 57.8892 54.3253 56.0779 56.2368 54.804C58.1484 53.5301 60.3919 52.8503 62.6866 52.8496C64.14 52.8454 65.5811 53.1177 66.9335 53.6521L67.5126 53.8874C69.1673 54.5377 69.9808 53.2647 70.6702 51.5766C71.5527 49.6533 71.5389 48.0482 69.5258 47.4256C66.4724 46.1591 63.1296 45.7641 59.8665 46.2842C56.6035 46.8043 53.5472 48.2193 51.0351 50.3728C50.9768 46.414 52.4347 42.5837 55.108 39.6719C57.7814 36.7601 61.4664 34.9888 65.4029 34.7234C67.099 34.6266 67.3471 33.1737 67.3471 31.3749C67.3471 29.1334 66.9611 27.8742 64.7273 28.0403C59.4698 28.4417 54.5294 30.7194 50.801 34.4608C47.0726 38.2022 44.8028 43.1598 44.4028 48.4357C44.2649 50.9955 44.32 74.7255 44.32 76.3029H42.1276C41.5821 76.2891 41.0626 76.0664 40.6755 75.6805C40.2883 75.2946 40.063 74.7747 40.0455 74.2274C40.0455 65.8146 39.9766 54.8559 40.0455 48.6017C40.4186 42.0851 43.1791 35.937 47.7963 31.3394C52.4136 26.7418 58.5616 24.0194 65.0582 23.6955H65.1961C67.0438 23.6955 67.3058 22.2012 67.3058 20.3609C67.3058 18.1193 66.9197 16.8602 64.6859 17.0124C56.6634 17.4459 49.072 20.7933 43.3279 26.4301C37.5838 32.0669 34.0794 39.6081 33.4683 47.647C33.2022 49.1575 32.3944 50.518 31.1974 51.4721C30.0004 52.4261 28.497 52.9077 26.9705 52.826C25.4441 52.7443 24.0002 52.105 22.9111 51.0286C21.822 49.9522 21.1631 48.5132 21.0585 46.9828V46.7199C21.0585 45.3362 19.983 45.1979 18.6593 45.1979C17.0736 45.1979 16.1635 45.4884 16.2738 47.0797C16.3894 49.2706 17.1585 51.3761 18.4813 53.1229C19.8042 54.8698 21.6196 56.1774 23.6922 56.8761C23.0931 57.5261 22.5488 58.225 22.0651 58.9654C19.6949 57.9542 17.6593 56.2889 16.1948 54.1629C14.7303 52.0368 13.8971 49.5375 13.7919 46.9551V46.7199C13.7919 45.3362 12.7164 45.1979 11.3927 45.1979C10.0689 45.1979 8.8969 45.4746 9.00721 46.9413C9.11481 50.4413 10.2167 53.8375 12.1832 56.7301C14.1497 59.6228 16.8989 61.8913 20.1071 63.2687C19.7407 64.6217 19.5552 66.0176 19.5556 67.4197C19.5501 69.4684 19.9484 71.498 20.7276 73.3917C21.5068 75.2853 22.6514 77.0057 24.0957 78.4537C25.54 79.9017 27.2554 81.0489 29.1431 81.8291C31.0309 82.6093 33.0538 83.0072 35.0954 82.9999H61.5973C73.359 82.9999 82.4182 73.6601 80.9152 62.4523ZM33.3718 76.206C31.3667 75.7881 29.5664 74.6897 28.2739 73.0956C26.9815 71.5016 26.2758 69.5093 26.2758 67.4543C26.2758 65.3993 26.9815 63.407 28.2739 61.813C29.5664 60.2189 31.3667 59.1205 33.3718 58.7025V76.206Z" fill="#3A3D54"/>
<path d="M78.1575 49.0445C78.709 49.6118 79.4122 49.8055 79.7845 49.4458L83.5902 45.613C83.9625 45.2532 83.7557 44.5475 83.2041 43.9802C82.6526 43.4129 81.9356 43.2192 81.5771 43.5928L77.7576 47.4533C77.3991 47.7853 77.5921 48.491 78.1575 49.0445Z" fill="#3A3D54"/>
<path d="M87.8096 50.0131C87.4235 49.3212 86.7892 48.9476 86.348 49.2105L81.6736 51.9087C81.2323 52.1716 81.2323 52.9049 81.6736 53.5968C82.1148 54.2886 82.6939 54.6484 83.1352 54.3993L87.8096 51.632C88.2094 51.4382 88.2094 50.6911 87.8096 50.0131Z" fill="#3A3D54"/>
<path d="M90.6915 57.0283C90.4847 56.2673 89.9607 55.7415 89.4781 55.866L84.2522 57.2497C83.7696 57.3742 83.5765 58.0937 83.7834 58.8548C83.9902 59.6158 84.5004 60.1554 84.9968 60.017L90.2089 58.6334C90.6915 58.5227 90.9121 57.7893 90.6915 57.0283Z" fill="#3A3D54"/>
<path d="M73.6211 45.5715C74.3105 45.9589 74.9999 45.9727 75.2895 45.5715L78.0472 40.8808C78.3092 40.438 77.9369 39.8015 77.2475 39.4003C76.5581 38.999 75.8686 38.999 75.5791 39.4003L72.8213 44.0909C72.5593 44.5337 72.9316 45.1702 73.6211 45.5715Z" fill="#3A3D54"/>
<path d="M62.6866 52.8496C64.1403 52.843 65.5818 53.1154 66.9335 53.6521C65.5811 53.1177 64.1401 52.8454 62.6866 52.8496Z" fill="#3A3D54"/>
<path d="M80.9152 62.4523C80.9152 60.3491 79.3295 59.934 77.2336 60.3353C75.4135 60.5982 73.9657 61.0825 74.2415 62.9228C74.3277 63.56 74.3646 64.2031 74.3518 64.8461C74.2948 67.148 73.5626 69.382 72.2467 71.2685C70.9307 73.1549 69.0896 74.6099 66.9537 75.4515C64.8177 76.2931 62.4819 76.4839 60.2385 75.9999C57.995 75.516 55.9437 74.3788 54.3411 72.7307C52.7385 71.0827 51.6559 68.9969 51.2288 66.7344C50.8017 64.472 51.049 62.1334 51.9398 60.0113C52.8306 57.8892 54.3253 56.0779 56.2368 54.804C58.1484 53.5301 60.3919 52.8503 62.6866 52.8496C64.14 52.8454 65.5811 53.1177 66.9335 53.6521L67.5126 53.8874C69.1673 54.5377 69.9808 53.2647 70.6702 51.5766C71.5527 49.6533 71.5389 48.0482 69.5258 47.4256C66.4724 46.1591 63.1296 45.7641 59.8665 46.2842C56.6035 46.8043 53.5472 48.2193 51.0351 50.3728C50.9768 46.414 52.4347 42.5837 55.108 39.6719C57.7814 36.7601 61.4664 34.9888 65.4029 34.7234C67.099 34.6266 67.3471 33.1737 67.3471 31.3749C67.3471 29.1334 66.9611 27.8742 64.7273 28.0403C59.4698 28.4417 54.5294 30.7194 50.801 34.4608C47.0726 38.2022 44.8028 43.1598 44.4028 48.4357C44.2649 50.9955 44.32 74.7255 44.32 76.3029H42.1276C41.5821 76.2891 41.0626 76.0664 40.6755 75.6805C40.2883 75.2946 40.063 74.7747 40.0455 74.2274C40.0455 65.8146 39.9766 54.8559 40.0455 48.6017C40.4186 42.0851 43.1791 35.937 47.7963 31.3394C52.4136 26.7418 58.5616 24.0194 65.0582 23.6955H65.1961C67.0438 23.6955 67.3058 22.2012 67.3058 20.3609C67.3058 18.1193 66.9197 16.8602 64.6859 17.0124C56.6634 17.4459 49.072 20.7933 43.3279 26.4301C37.5838 32.0669 34.0794 39.6081 33.4683 47.647C33.2022 49.1575 32.3944 50.518 31.1974 51.4721C30.0004 52.4261 28.497 52.9077 26.9705 52.826C25.4441 52.7443 24.0002 52.105 22.9111 51.0286C21.822 49.9522 21.1631 48.5132 21.0585 46.9828V46.7199C21.0585 45.3362 19.983 45.1979 18.6593 45.1979C17.0736 45.1979 16.1635 45.4884 16.2738 47.0797C16.3894 49.2706 17.1585 51.3761 18.4813 53.1229C19.8042 54.8698 21.6196 56.1774 23.6922 56.8761C23.0931 57.5261 22.5488 58.225 22.0651 58.9654C19.6949 57.9542 17.6593 56.2889 16.1948 54.1629C14.7303 52.0368 13.8971 49.5375 13.7919 46.9551V46.7199C13.7919 45.3362 12.7164 45.1979 11.3927 45.1979C10.0689 45.1979 8.8969 45.4746 9.00721 46.9413C9.11481 50.4413 10.2167 53.8375 12.1832 56.7301C14.1497 59.6228 16.8989 61.8913 20.1071 63.2687C19.7407 64.6217 19.5552 66.0176 19.5556 67.4197C19.5501 69.4684 19.9484 71.498 20.7276 73.3917C21.5068 75.2853 22.6514 77.0057 24.0957 78.4537C25.54 79.9017 27.2554 81.0489 29.1431 81.8291C31.0309 82.6093 33.0538 83.0072 35.0954 82.9999H61.5973C73.359 82.9999 82.4182 73.6601 80.9152 62.4523ZM33.3718 76.206C31.3667 75.7881 29.5664 74.6897 28.2739 73.0956C26.9815 71.5016 26.2758 69.5093 26.2758 67.4543C26.2758 65.3993 26.9815 63.407 28.2739 61.813C29.5664 60.2189 31.3667 59.1205 33.3718 58.7025V76.206Z" fill="#3A3D54"/>
</g>
<defs>
<clipPath id="clip0_0_4">
<path d="M0 50C0 22.3858 22.3858 0 50 0V0C77.6142 0 100 22.3858 100 50V50C100 77.6142 77.6142 100 50 100V100C22.3858 100 0 77.6142 0 50V50Z" fill="white"/>
</clipPath>
</defs>
</svg>
