<?xml version="1.0" standalone="no"?>
<!DOCTYPE svg PUBLIC "-//W3C//DTD SVG 20010904//EN"
 "http://www.w3.org/TR/2001/REC-SVG-20010904/DTD/svg10.dtd">
<svg version="1.0" xmlns="http://www.w3.org/2000/svg"
 width="422.000000pt" height="80.000000pt" viewBox="0 0 422.000000 80.000000"
 preserveAspectRatio="xMidYMid meet">

<g transform="translate(0.000000,80.000000) scale(0.100000,-0.100000)"
fill="#961212" stroke="none">
<path d="M242 647 l-142 -82 0 -167 0 -167 93 -54 c50 -30 115 -67 142 -82
l50 -28 143 82 142 83 0 59 c0 58 0 59 -40 79 -22 11 -40 23 -40 25 0 3 18 16
40 30 39 25 40 27 40 83 l0 57 -49 27 -49 28 -46 -26 -46 -26 0 54 0 53 -48
27 -49 26 -141 -81z m188 43 c40 -20 40 -20 40 -81 l0 -61 51 30 51 29 39 -21
c21 -11 39 -23 39 -26 0 -3 -60 -39 -133 -81 l-132 -76 -5 -51 -5 -52 -42 26
-43 25 0 105 c0 57 -3 104 -6 104 -3 0 -25 -12 -50 -26 l-44 -26 0 -115 0
-115 38 23 c20 12 41 26 46 30 5 5 32 -5 60 -20 l51 -29 93 55 92 54 41 -23
c48 -27 55 -19 -112 -115 l-119 -68 0 -52 0 -52 -135 77 -134 77 -1 161 0 162
133 76 c72 42 136 76 140 76 4 0 26 -9 47 -20z"/>
<path d="M2973 519 c-118 -58 -142 -185 -53 -270 94 -89 273 -67 332 41 26 47
20 125 -12 170 -51 72 -182 101 -267 59z m142 -114 c14 -13 25 -31 25 -40 0
-22 -45 -65 -68 -65 -30 0 -72 38 -72 65 0 30 36 65 67 65 13 0 35 -11 48 -25z"/>
<path d="M3839 513 c-39 -20 -60 -39 -76 -68 -48 -86 -17 -180 76 -227 30 -16
71 -28 90 -28 112 0 201 73 201 165 l0 35 -95 0 -95 0 0 -41 c0 -39 1 -41 26
-35 19 5 25 3 22 -6 -3 -7 -21 -14 -41 -16 -69 -6 -102 64 -52 113 27 28 61
32 89 10 16 -12 25 -11 70 6 28 12 53 23 56 26 11 11 -74 72 -115 82 -67 17
-96 14 -156 -16z"/>
<path d="M920 365 l0 -165 65 0 64 0 3 80 3 80 63 -80 63 -80 65 0 64 0 0 165
0 165 -65 0 -64 0 -3 -76 -3 -77 -63 77 -62 76 -65 0 -65 0 0 -165z"/>
<path d="M1440 398 c-34 -73 -69 -148 -76 -166 l-14 -32 79 0 c70 0 79 2 84
20 4 17 14 20 66 20 50 0 62 -3 71 -20 9 -17 21 -20 85 -20 41 0 75 1 75 3 0
2 -33 75 -74 163 l-74 159 -79 3 -80 3 -63 -133z m158 -27 c16 -52 16 -51 -18
-51 -16 0 -30 3 -30 6 0 17 24 84 30 84 4 0 12 -17 18 -39z"/>
<path d="M1910 523 c0 -5 -14 -73 -30 -153 -16 -80 -30 -151 -30 -157 0 -9 19
-13 64 -13 l64 0 11 50 c6 28 11 59 11 70 0 45 18 24 40 -45 l24 -75 46 0 47
0 24 75 c13 41 26 75 30 75 3 0 12 -34 18 -75 l12 -75 68 0 68 0 -18 93 c-10
50 -26 125 -35 165 l-16 73 -76 -3 -77 -3 -20 -72 c-18 -67 -35 -95 -35 -58 0
8 -7 42 -17 75 l-16 60 -79 0 c-43 0 -78 -3 -78 -7z"/>
<path d="M2580 365 l0 -165 130 0 130 0 0 50 0 50 -65 0 -65 0 0 115 0 115
-65 0 -65 0 0 -165z"/>
<path d="M3307 523 c-4 -3 -7 -78 -7 -165 l0 -158 70 0 69 0 3 77 3 78 63 -78
63 -77 65 0 64 0 0 165 0 165 -65 0 -65 0 0 -81 0 -81 -66 81 -66 81 -62 0
c-35 0 -66 -3 -69 -7z"/>
</g>
</svg>
