<svg width="18" height="19" viewBox="0 0 18 19" fill="none" xmlns="http://www.w3.org/2000/svg">
<path d="M13.7812 18.4984H4.21875C1.89253 18.4984 0 16.6058 0 14.2796V8.36384C0 7.05634 0.620684 5.80235 1.66029 5.00941L6.44154 1.36268C7.94795 0.213741 10.0521 0.213741 11.5585 1.36268L13.0781 2.52073V1.62337C13.1152 0.69046 14.4476 0.691163 14.4844 1.62337V3.94055C14.4844 4.20784 14.3328 4.452 14.0933 4.57066C13.8537 4.68927 13.5676 4.66178 13.3551 4.49982L10.7059 2.48104C9.70137 1.71491 8.29856 1.71491 7.29432 2.48086L2.51307 6.12759C1.82004 6.65616 1.40625 7.49214 1.40625 8.36384V14.2796C1.40625 15.8304 2.66794 17.0921 4.21875 17.0921H13.7812C15.3321 17.0921 16.5938 15.8304 16.5938 14.2796V8.36384C16.5938 7.48145 16.1846 6.64262 15.4994 6.11992C15.1906 5.88441 15.1312 5.4432 15.3667 5.13446C15.6022 4.82568 16.0435 4.7663 16.3522 5.00181C17.384 5.78875 18 7.04559 18 8.36384V14.2796C18 16.6058 16.1075 18.4984 13.7812 18.4984ZM7.59375 8.61946C7.10835 8.61946 6.71484 9.01297 6.71484 9.49837C6.76129 10.6645 8.42664 10.6636 8.47266 9.49837C8.47266 9.01293 8.07915 8.61946 7.59375 8.61946ZM11.2852 9.49833C11.2387 10.6645 9.57336 10.6636 9.52734 9.49833C9.57378 8.3322 11.2391 8.33311 11.2852 9.49833ZM8.47266 12.3108C8.42622 13.477 6.76086 13.4761 6.71484 12.3108C6.76129 11.1447 8.42664 11.1456 8.47266 12.3108ZM11.2852 12.3108C11.2387 13.477 9.57336 13.4761 9.52734 12.3108C9.57378 11.1447 11.2391 11.1456 11.2852 12.3108Z" fill="#25793A"/>
</svg>
