<svg width="202" height="158" viewBox="0 0 202 158" fill="none" xmlns="http://www.w3.org/2000/svg">
<g clip-path="url(#clip0_7053_7392)">
<path d="M61.3398 60.9226C60.2642 59.5284 58.744 58.2385 58.6478 56.5181C58.5595 54.9402 59.7357 53.3736 59.2397 51.8641C58.8582 50.7034 57.6 50.0031 56.3704 49.6322C54.0164 48.9323 51.4973 49.0294 49.204 49.9082L49.3285 49.8204C47.9288 49.3216 46.2927 49.8365 45.1915 50.7901C44.0902 51.7437 43.4358 53.0655 42.928 54.3901C42.42 55.7147 42.0266 57.0877 41.321 58.3295C40.6153 59.5714 39.5349 60.7007 38.1094 61.1299C38.5866 62.0821 40.0784 62.4087 40.9533 61.7526C41.1768 61.571 41.3777 61.3632 41.5517 61.1338C42.1352 60.424 42.7188 59.7142 43.3024 59.0044C43.9028 60.0726 43.0058 61.547 43.7439 62.5359C44.1244 63.0459 44.8195 63.2396 45.4651 63.3785C50.5106 64.4554 55.7445 64.2612 60.6964 62.8134C61.0944 62.6961 61.5335 62.5345 61.6985 62.1742C61.8892 61.7582 61.6226 61.2892 61.3398 60.9226Z" fill="#2F2E41"/>
<path d="M75.6469 66.3633C75.6154 66.5018 75.5949 66.6427 75.5855 66.7845L64.5576 73.1484L61.8771 71.6048L59.0195 75.3469L63.4993 78.5408C63.8612 78.7988 64.2971 78.9325 64.7414 78.9216C65.1857 78.9108 65.6144 78.7561 65.9634 78.4808L77.335 69.5068C77.8482 69.6968 78.4071 69.7261 78.9373 69.5906C79.4675 69.4552 79.944 69.1614 80.3032 68.7485C80.6625 68.3356 80.8876 67.8231 80.9485 67.2791C81.0095 66.7351 80.9034 66.1854 80.6445 65.7032C80.3855 65.221 79.9859 64.829 79.4988 64.5795C79.0118 64.33 78.4603 64.2347 77.9178 64.3064C77.3752 64.3781 76.8674 64.6132 76.4618 64.9807C76.0561 65.3481 75.7719 65.8303 75.6469 66.3633Z" fill="#FFB7B7"/>
<path d="M64.1896 73.4504L60.6254 78.0712C60.524 78.2026 60.3954 78.3107 60.2485 78.388C60.1016 78.4653 59.9397 78.51 59.774 78.5191C59.6082 78.5282 59.4424 78.5014 59.288 78.4406C59.1335 78.3798 58.9939 78.2865 58.8787 78.1669L54.8438 73.9756C54.1742 73.4529 53.7391 72.6858 53.634 71.8426C53.529 70.9994 53.7625 70.1489 54.2833 69.4777C54.8042 68.8065 55.57 68.3693 56.4126 68.262C57.2553 68.1547 58.1061 68.3861 58.7784 68.9054L63.8391 71.736C63.984 71.8171 64.1097 71.9285 64.2076 72.0626C64.3056 72.1966 64.3735 72.3502 64.4068 72.5129C64.44 72.6756 64.4379 72.8436 64.4004 73.0053C64.3629 73.1671 64.291 73.3189 64.1896 73.4504Z" fill="#97B18E"/>
<path d="M59.2859 153.962L62.4331 153.962L63.9302 141.818L59.2852 141.819L59.2859 153.962Z" fill="#FFB7B7"/>
<path d="M58.4805 152.934L64.6787 152.934H64.6789C65.7265 152.934 66.7311 153.35 67.4719 154.091C68.2126 154.832 68.6288 155.837 68.6289 156.885V157.013L58.4807 157.013L58.4805 152.934Z" fill="#2F2E41"/>
<path d="M37.7192 153.962L40.8667 153.962L42.3638 141.818L37.7188 141.819L37.7192 153.962Z" fill="#FFB7B7"/>
<path d="M36.918 152.934L43.1162 152.934H43.1164C44.164 152.934 45.1686 153.35 45.9094 154.091C46.6501 154.832 47.0663 155.837 47.0664 156.885V157.013L36.9182 157.013L36.918 152.934Z" fill="#2F2E41"/>
<path d="M57.3954 59.2067C57.7232 56.2196 55.5682 53.5324 52.5821 53.2045C49.596 52.8766 46.9096 55.0322 46.5818 58.0193C46.254 61.0063 48.409 63.6935 51.3951 64.0214C54.3812 64.3493 57.0676 62.1937 57.3954 59.2067Z" fill="#FFB7B7"/>
<path d="M55.1711 66.7695L58.3755 68.3575C58.3755 68.3575 61.9558 74.5815 59.9021 80.4878C58.905 83.3554 61.7128 92.4964 61.7128 92.4964C61.7128 92.4964 66.0633 133.901 66.077 146.68C60.6722 147.512 55.5379 148.539 55.2812 145.971C55.0244 143.403 52.2143 113.04 52.2143 113.04C52.2143 113.04 48.3498 146.741 45.2692 147.255C42.1886 147.768 36.0273 146.998 36.0273 146.998C36.0273 146.998 40.9187 97.6323 44.256 94.5507L44.7695 91.9828L44.7557 68.9319L48.6007 67.0965L55.1711 66.7695Z" fill="#2F2E41"/>
<path d="M43.7057 101.762C44.0603 101.57 44.3686 101.303 44.6087 100.979C44.8488 100.655 45.015 100.282 45.0955 99.8868C45.1761 99.4916 45.1691 99.0836 45.0749 98.6914C44.9808 98.2993 44.8018 97.9326 44.5506 97.6171L48.2773 72.769L43.4085 72.5352L40.5034 97.2804C40.0016 97.7376 39.6848 98.3631 39.6132 99.0383C39.5415 99.7135 39.7199 100.392 40.1147 100.944C40.5094 101.496 41.093 101.885 41.7548 102.035C42.4167 102.186 43.1108 102.089 43.7057 101.762Z" fill="#FFB7B7"/>
<path d="M48.171 78.9948L42.3481 78.6271C42.1824 78.6166 42.0209 78.5705 41.8746 78.492C41.7283 78.4135 41.6007 78.3044 41.5004 78.172C41.4001 78.0397 41.3294 77.8873 41.2933 77.7253C41.2572 77.5632 41.2564 77.3952 41.291 77.2328L42.5043 71.5421C42.5625 70.6944 42.9544 69.9044 43.5941 69.3453C44.2338 68.7862 45.069 68.5037 45.9166 68.5597C46.7642 68.6157 47.555 69.0057 48.1156 69.6441C48.6762 70.2826 48.9608 71.1173 48.9069 71.9653L49.3949 77.7446C49.4089 77.9101 49.387 78.0766 49.3308 78.2329C49.2745 78.3891 49.1853 78.5314 49.0692 78.65C48.953 78.7687 48.8127 78.8609 48.6577 78.9204C48.5027 78.9799 48.3367 79.0053 48.171 78.9948Z" fill="#97B18E"/>
<path d="M57.6891 55.0763C57.4771 54.1145 56.7887 53.3176 55.9956 52.734C54.6882 51.7719 53.0849 51.299 51.4649 51.3976C49.8448 51.4961 48.3106 52.1599 47.1293 53.2733C46.4693 53.8565 45.9935 54.6194 45.76 55.4687C45.6487 55.8932 45.6427 56.3386 45.7427 56.7659C45.8427 57.1932 46.0456 57.5897 46.3338 57.9206L46.4424 57.9887C46.3439 57.5707 46.6686 57.1529 47.0564 56.9685C47.4598 56.8204 47.8808 56.726 48.3088 56.6876C48.9563 56.5652 49.5699 56.3052 50.1083 55.9252C50.6467 55.5451 51.0973 55.0539 51.4296 54.4847C51.6758 55.1853 52.0692 55.8249 52.5832 56.3608C53.0971 56.8966 53.7199 57.3161 54.4094 57.5911C55.1283 57.8723 57.1028 58.259 57.7873 57.9019C58.6603 57.4466 57.9011 56.0381 57.6891 55.0763Z" fill="#2F2E41"/>
<path d="M17.6673 146.461C18.6084 146.792 19.6189 146.874 20.6014 146.701C21.5839 146.528 22.5052 146.105 23.2767 145.472C25.2414 143.823 25.8575 141.106 26.3585 138.589L27.841 131.146L24.7373 133.284C22.5052 134.822 20.2229 136.408 18.6775 138.635C17.1322 140.862 16.458 143.902 17.6993 146.311" fill="#E6E6E6"/>
<path d="M18.1436 155.99C17.7529 153.143 17.351 150.259 17.6257 147.382C17.8691 144.826 18.6485 142.331 20.2353 140.284C21.0776 139.199 22.1025 138.27 23.2639 137.538C23.5667 137.347 23.8455 137.827 23.544 138.018C21.5343 139.288 19.9799 141.164 19.1048 143.375C18.1384 145.834 17.9832 148.514 18.1497 151.126C18.2503 152.706 18.4641 154.275 18.6789 155.842C18.6958 155.913 18.6852 155.988 18.6492 156.051C18.6133 156.114 18.5546 156.162 18.485 156.183C18.4141 156.203 18.3385 156.193 18.2746 156.157C18.2107 156.12 18.1637 156.06 18.1438 155.99L18.1436 155.99Z" fill="#F2F2F2"/>
<path d="M20.957 151.422C21.3606 152.036 21.9154 152.535 22.568 152.872C23.2206 153.209 23.949 153.372 24.683 153.346C26.5696 153.256 28.1418 151.94 29.5569 150.69L33.7436 146.992L30.9728 146.859C28.9802 146.764 26.9362 146.674 25.0383 147.29C23.1403 147.905 21.39 149.384 21.043 151.349" fill="#E6E6E6"/>
<path d="M17.0404 157.626C18.9211 154.297 21.1024 150.598 25.0003 149.415C26.084 149.087 27.2204 148.97 28.3482 149.069C28.7037 149.1 28.6149 149.648 28.2601 149.618C26.3696 149.461 24.4828 149.96 22.9173 151.031C21.4107 152.057 20.2377 153.483 19.245 154.996C18.6368 155.922 18.0921 156.888 17.5474 157.852C17.3733 158.16 16.8643 157.938 17.0404 157.626Z" fill="#F2F2F2"/>
<path d="M144.128 96.0876C140.599 91.3633 134.14 90.2231 130.93 92.6223C127.721 95.0215 126.983 101.541 130.512 106.265C133.779 110.638 139.697 111.831 142.957 110.192C142.947 110.244 142.946 110.296 142.955 110.348L143.139 111.257C143.153 111.326 143.185 111.39 143.231 111.444C143.277 111.498 143.335 111.539 143.402 111.563C143.468 111.588 143.54 111.595 143.609 111.584C143.679 111.573 143.745 111.545 143.801 111.501L145.357 110.285C145.413 110.241 145.456 110.184 145.484 110.119C145.511 110.054 145.522 109.983 145.514 109.913C145.506 109.843 145.481 109.775 145.44 109.718C145.399 109.66 145.344 109.614 145.28 109.584L144.443 109.185C144.413 109.172 144.382 109.162 144.351 109.156C146.863 106.499 147.402 100.47 144.128 96.0876Z" fill="#C7C3E5"/>
<path d="M136.408 94.3022C138.135 94.5766 139.69 95.5034 140.753 96.8915C141.816 98.2795 142.306 100.023 142.121 101.762C142.083 102.16 142.705 102.157 142.743 101.762C142.921 99.8875 142.384 98.0154 141.24 96.5207C140.096 95.0261 138.429 94.0193 136.574 93.7024C136.182 93.6359 136.014 94.2352 136.408 94.3022Z" fill="white"/>
<path d="M149.882 14.4234C152.967 9.39783 151.641 2.97238 148.226 0.87482C144.812 -1.22274 138.483 0.499774 135.397 5.5253C132.542 10.177 133.619 16.1192 136.345 18.5443C136.294 18.5534 136.245 18.5723 136.201 18.5999L135.424 19.1064C135.365 19.145 135.317 19.1981 135.284 19.2607C135.251 19.3233 135.234 19.3932 135.236 19.4639C135.238 19.5345 135.258 19.6036 135.293 19.6645C135.329 19.7254 135.38 19.7761 135.441 19.8117L137.146 20.8093C137.207 20.845 137.276 20.8645 137.347 20.8659C137.417 20.8674 137.487 20.8508 137.55 20.8176C137.612 20.7845 137.665 20.736 137.703 20.6766C137.742 20.6173 137.764 20.5491 137.769 20.4785L137.83 19.5532C137.831 19.5209 137.829 19.4886 137.823 19.4569C141.219 20.8112 147.019 19.0852 149.882 14.4234Z" fill="#C7C3E5"/>
<path d="M148.685 6.58823C149.068 8.29433 148.781 10.0823 147.884 11.5831C146.987 13.0839 145.548 14.183 143.865 14.6535C143.481 14.7653 143.713 15.3426 144.095 15.2315C145.901 14.7048 147.442 13.5142 148.408 11.8986C149.374 10.283 149.694 8.36186 149.303 6.52037C149.22 6.13191 148.601 6.1969 148.685 6.58823Z" fill="white"/>
<path d="M95.1994 38.268C94.9414 32.376 90.2446 27.7963 86.2416 27.9717C82.2386 28.1471 77.9601 33.1201 78.2181 39.012C78.457 44.4658 82.6772 48.7843 86.2935 49.266C86.256 49.3023 86.2258 49.3455 86.2045 49.3932L85.8449 50.2479C85.8175 50.313 85.8072 50.3841 85.815 50.4544C85.8227 50.5246 85.8483 50.5917 85.8893 50.6493C85.9303 50.7069 85.9853 50.753 86.0492 50.7834C86.113 50.8137 86.1835 50.8272 86.2541 50.8226L88.2248 50.6938C88.2953 50.6892 88.3635 50.6666 88.4228 50.6283C88.4822 50.5899 88.5307 50.537 88.5639 50.4746C88.5971 50.4121 88.6137 50.3423 88.6123 50.2716C88.6109 50.2009 88.5914 50.1318 88.5557 50.0707L88.088 49.2701C88.0711 49.2426 88.051 49.2172 88.0281 49.1943C91.6003 48.4132 95.4387 43.7336 95.1994 38.268Z" fill="#97B18E"/>
<path d="M89.8237 32.4464C91.0962 33.6453 91.8599 35.2871 91.9572 37.0329C92.0546 38.7787 91.4782 40.4953 90.3469 41.8283C90.0914 42.1361 90.6071 42.4843 90.8609 42.1785C92.0627 40.7298 92.6725 38.8802 92.5681 37.0006C92.4637 35.1209 91.6528 33.3503 90.2979 32.0437C90.0119 31.7683 89.5356 32.1689 89.8237 32.4464Z" fill="white"/>
<path d="M113.556 77.3552C112.013 77.258 110.515 76.7963 109.185 76.0081C107.855 75.22 106.73 74.1277 105.904 72.8208C105.672 72.4503 105.37 72.0432 105.53 71.5871C105.586 71.4123 105.699 71.2616 105.852 71.1596C106.005 71.0577 106.187 71.0105 106.37 71.0259C106.843 71.0834 107.148 71.5462 107.206 71.9895C107.273 72.4925 106.918 72.8873 106.48 73.0742C105.41 73.5308 104.33 72.8251 103.458 72.2619C101.472 70.9786 99.2873 69.818 96.8805 69.6718C94.6536 69.5365 92.2657 70.4099 91.027 72.3416C90.8103 72.6796 91.3484 72.9919 91.564 72.6556C92.7924 70.7398 95.2757 70.0517 97.4349 70.3478C98.7216 70.551 99.9641 70.9729 101.108 71.5954C101.702 71.9035 102.278 72.2451 102.842 72.6041C103.378 72.9786 103.947 73.3048 104.541 73.5788C105.532 73.9861 106.845 73.9542 107.537 73.0166C108.183 72.1418 107.684 70.6854 106.603 70.4394C106.366 70.3927 106.121 70.4055 105.891 70.4768C105.66 70.548 105.45 70.6754 105.281 70.8476C105.111 71.0197 104.987 71.2313 104.92 71.4632C104.852 71.6952 104.843 71.9403 104.893 72.1766C105.001 72.6917 105.389 73.1958 105.689 73.6169C106.591 74.886 107.766 75.9366 109.128 76.6912C110.489 77.4458 112.003 77.8853 113.556 77.9772C113.957 77.997 113.955 77.3749 113.556 77.3552Z" fill="#C7C3E5"/>
<path d="M173.278 34.4964C174.981 33.7041 177.071 33.4444 178.803 34.1806C180.536 34.9168 181.717 36.8038 181.157 38.4738C180.903 39.231 180.324 39.9756 180.55 40.7403C180.723 41.3289 181.328 41.7175 181.922 41.9939C182.517 42.2702 183.167 42.5025 183.597 42.9685C184.026 43.4345 184.116 44.2368 183.579 44.5982C183.402 44.7173 183.181 44.7738 183.01 44.8992C182.863 45.018 182.758 45.1795 182.708 45.3611C182.658 45.5427 182.666 45.7355 182.73 45.9124C182.873 46.2685 183.109 46.5794 183.414 46.8125C184.024 47.3382 184.829 47.94 184.64 48.6863C184.57 48.8858 184.452 49.0654 184.298 49.2098C184.144 49.3543 183.957 49.4594 183.753 49.5161C183.33 49.6381 182.891 49.6961 182.451 49.688L164.467 50.2547C163.873 50.2993 163.276 50.266 162.691 50.1555C162.407 50.1036 162.136 49.9936 161.897 49.8324C161.657 49.6711 161.452 49.4621 161.297 49.2184C160.953 48.5807 161.179 47.7953 161.604 47.1998C162.029 46.6044 162.631 46.1347 163.129 45.5879C163.626 45.0412 164.033 44.3586 163.945 43.652C163.875 43.0863 163.502 42.5974 163.234 42.0834C162.967 41.5694 162.811 40.9271 163.158 40.4543C163.646 39.788 164.82 39.8482 165.375 39.2273C165.794 38.7588 165.713 38.0843 165.755 37.48C165.855 36.0267 166.861 34.6541 168.293 34.0167C169.021 33.704 169.813 33.569 170.604 33.6229C171.395 33.6767 172.161 33.9179 172.84 34.3264L173.278 34.4964Z" fill="#2F2E41"/>
<path d="M195.18 106.42V109.362L183.836 110.762L183.836 106.42L195.18 106.42Z" fill="#FFB7B7"/>
<path d="M198.03 105.67L198.03 115.156H197.91C196.931 115.156 195.992 114.767 195.3 114.075C194.608 113.382 194.219 112.443 194.219 111.464V111.464L194.219 105.67L198.03 105.67Z" fill="#2F2E41"/>
<path d="M181.156 111.425L180.434 114.277L169.094 112.848L170.16 108.639L181.156 111.425Z" fill="#FFB7B7"/>
<path d="M184.101 111.399L181.772 120.595L181.656 120.565C180.707 120.325 179.893 119.717 179.391 118.876C178.89 118.035 178.744 117.029 178.984 116.08L180.406 110.463L184.101 111.399Z" fill="#2F2E41"/>
<path d="M178.259 78.4336L178.871 79.0719C178.871 79.0719 182.868 82.2071 179.911 90.4656L175.074 104.405L191.288 105.038L190.941 111.408C190.941 111.408 167.427 112.716 167.632 108.84C167.838 104.963 168.706 90.6105 168.706 90.6105L163.82 86.6861L164.998 80.0486L178.259 78.4336Z" fill="#2F2E41"/>
<path d="M165.697 84.7598L163.819 86.6862L157.521 104.004C157.521 104.004 156.562 108.323 158.721 109.283C160.88 110.243 174.772 115.612 174.772 115.612L176.19 110.505L165.486 104.078L170.475 97.5244L171.226 87.1949L165.697 84.7598Z" fill="#2F2E41"/>
<path d="M165.797 54.2091L181.782 51.0117L182.129 59.7847L177.989 68.6132L178.869 79.0711L164.542 81.5749L164.991 67.8237C164.991 67.8237 161.144 62.3944 163.41 56.9219L165.797 54.2091Z" fill="#E4E4E4"/>
<path d="M201.443 33.397C201.523 33.7653 201.522 34.1466 201.438 34.5142C201.355 34.8818 201.193 35.2266 200.962 35.5245C200.731 35.8224 200.438 36.066 200.103 36.2382C199.767 36.4104 199.399 36.507 199.022 36.5212L183.693 54.3023L180.129 49.9757L196.318 33.858C196.336 33.2237 196.586 32.6181 197.02 32.1559C197.455 31.6937 198.044 31.4071 198.676 31.3503C199.308 31.2934 199.938 31.4704 200.448 31.8476C200.958 32.2249 201.312 32.7762 201.443 33.397Z" fill="#FFB7B7"/>
<path d="M187.032 52.3635C187.035 52.5295 187.003 52.6944 186.937 52.8469C186.871 52.9993 186.773 53.1358 186.65 53.2469L182.339 57.1284C181.798 57.7834 181.02 58.1972 180.174 58.2789C179.329 58.3606 178.485 58.1037 177.829 57.5643C177.172 57.025 176.756 56.2473 176.672 55.4017C176.588 54.5562 176.842 53.7117 177.38 53.0534L180.388 48.0718C180.474 47.9296 180.59 47.8076 180.727 47.7141C180.864 47.6207 181.02 47.5579 181.184 47.53C181.347 47.5022 181.515 47.51 181.676 47.5528C181.836 47.5957 181.985 47.6727 182.113 47.7785L186.612 51.497C186.741 51.6027 186.844 51.7349 186.917 51.8844C186.989 52.034 187.028 52.1974 187.032 52.3635Z" fill="#E4E4E4"/>
<path d="M140.732 75.1841C140.708 74.808 140.767 74.4312 140.904 74.0802C141.041 73.7293 141.254 73.4128 141.527 73.1529C141.8 72.8931 142.126 72.6962 142.483 72.5763C142.841 72.4563 143.22 72.4161 143.594 72.4586L161.417 57.1797L164.292 61.9923L145.868 75.4977C145.755 76.122 145.417 76.6832 144.918 77.075C144.419 77.4667 143.794 77.6617 143.161 77.623C142.528 77.5844 141.931 77.3148 141.483 76.8652C141.035 76.4157 140.768 75.8176 140.732 75.1841Z" fill="#FFB7B7"/>
<path d="M157.826 58.5976C157.847 58.4329 157.904 58.2747 157.992 58.1339C158.08 57.993 158.198 57.8728 158.336 57.7815L163.18 54.5909C163.813 54.0244 164.645 53.7321 165.493 53.7782C166.342 53.8242 167.137 54.2049 167.705 54.8367C168.274 55.4685 168.568 56.2999 168.524 57.1486C168.481 57.9973 168.102 58.7941 167.472 59.3642L163.75 63.8379C163.644 63.9655 163.512 64.0688 163.362 64.1406C163.212 64.2124 163.049 64.2511 162.883 64.2541C162.717 64.257 162.552 64.2242 162.4 64.1577C162.248 64.0912 162.112 63.9927 162.001 63.8689L158.111 59.5172C158 59.3934 157.917 59.2472 157.868 59.0885C157.819 58.9298 157.805 58.7624 157.826 58.5976Z" fill="#E4E4E4"/>
<path d="M172.611 50.1159C175.865 50.1159 178.503 47.4771 178.503 44.222C178.503 40.9669 175.865 38.3281 172.611 38.3281C169.357 38.3281 166.719 40.9669 166.719 44.222C166.719 47.4771 169.357 50.1159 172.611 50.1159Z" fill="#FFB7B7"/>
<path d="M178.639 43.3834C176.778 43.234 175.234 41.3746 175.427 39.5173C175.449 40.2828 175.189 41.0297 174.696 41.6158C174.203 42.2018 173.512 42.5863 172.754 42.6959C171.901 42.79 170.965 42.5317 170.222 42.9624C169.399 43.4394 169.136 44.598 168.279 45.01C167.451 45.4081 166.399 44.8651 165.989 44.0421C165.58 43.2191 165.681 42.2303 165.952 41.3521C166.338 40.0996 167.043 38.9685 167.996 38.0689C168.949 37.1693 170.119 36.5318 171.391 36.2184C172.664 35.9049 173.996 35.9262 175.257 36.2802C176.519 36.6342 177.668 37.3088 178.592 38.2384C179.374 39.0256 179.995 40.0289 180.096 41.1344C180.197 42.2399 179.684 43.4394 178.692 43.936L178.639 43.3834Z" fill="#2F2E41"/>
<path d="M92.14 157.396H0.739895C0.676271 157.396 0.615256 157.371 0.570267 157.326C0.525278 157.281 0.5 157.22 0.5 157.156C0.5 157.092 0.525278 157.031 0.570267 156.986C0.615256 156.941 0.676271 156.916 0.739895 156.916H92.14C92.2037 156.916 92.2647 156.941 92.3097 156.986C92.3547 157.031 92.3799 157.092 92.3799 157.156C92.3799 157.22 92.3547 157.281 92.3097 157.326C92.2647 157.371 92.2037 157.396 92.14 157.396Z" fill="#CACACA"/>
</g>
<defs>
<clipPath id="clip0_7053_7392">
<rect width="201" height="158" fill="white" transform="translate(0.5)"/>
</clipPath>
</defs>
</svg>
