<svg width="69" height="68" viewBox="0 0 69 68" fill="none" xmlns="http://www.w3.org/2000/svg">
<circle cx="34.4682" cy="34.0678" r="33.8823" fill="white"/>
<g clip-path="url(#clip0_1360_53637)">
<path d="M44.2619 31.4591L30.9207 23.2353C29.9555 22.6411 28.7885 22.6164 27.799 23.1693C26.8095 23.722 26.2188 24.7288 26.2188 25.8622V42.2348C26.2188 43.9486 27.5996 45.3504 29.2968 45.3597C29.3015 45.3597 29.3061 45.3597 29.3106 45.3597C29.841 45.3597 30.3937 45.1934 30.91 44.8784C31.3252 44.625 31.4565 44.083 31.2031 43.6678C30.9498 43.2525 30.4076 43.1213 29.9925 43.3746C29.751 43.5219 29.5152 43.5981 29.3063 43.598C28.666 43.5945 27.9803 43.046 27.9803 42.2349V25.8623C27.9803 25.3761 28.2337 24.9443 28.6581 24.7072C29.0826 24.47 29.5831 24.4806 29.9966 24.7352L43.3379 32.959C43.7388 33.2059 43.9683 33.6175 43.9673 34.0884C43.9664 34.5593 43.7352 34.97 43.332 35.2161L33.6863 41.122C33.2714 41.376 33.141 41.9183 33.395 42.3331C33.649 42.748 34.1913 42.8784 34.6061 42.6244L44.2507 36.7192C45.1742 36.1558 45.7268 35.1738 45.729 34.092C45.7312 33.0103 45.1826 32.0259 44.2619 31.4591Z" fill="#0D263B"/>
</g>
<defs>
<clipPath id="clip0_1360_53637">
<rect width="22.5882" height="22.5882" fill="white" transform="translate(24.6797 22.7734)"/>
</clipPath>
</defs>
</svg>
