<svg width="17" height="16" viewBox="0 0 17 16" fill="none" xmlns="http://www.w3.org/2000/svg">
<path d="M14.8344 6.03983H12.1324C11.7619 6.04143 11.4044 6.1769 11.1258 6.42128V1.54711C11.1259 1.34034 11.0845 1.13565 11.0041 0.945137C10.9238 0.754627 10.806 0.582164 10.6578 0.437942C10.5097 0.29372 10.3341 0.180665 10.1415 0.105461C9.94885 0.0302561 9.74312 -0.00557258 9.53642 9.24721e-05H6.83444C6.63178 8.76525e-05 6.43112 0.0401768 6.24401 0.118051C6.05691 0.195925 5.88707 0.310046 5.74426 0.45384C5.60145 0.597635 5.4885 0.768261 5.41191 0.955894C5.33532 1.14353 5.29661 1.34446 5.29801 1.54711V4.34446C5.00423 4.0905 4.62666 3.95458 4.23841 3.96301H1.54702C1.34436 3.96161 1.14343 4.00032 0.955801 4.0769C0.768169 4.15349 0.597542 4.26644 0.453748 4.40925C0.309953 4.55206 0.195833 4.72191 0.117959 4.90901C0.0400843 5.09611 -4.81914e-06 5.29677 4.3451e-10 5.49943L4.3451e-10 16.0001H16.4238V7.57625C16.4225 7.37037 16.3801 7.16683 16.2991 6.97755C16.2181 6.78827 16.1001 6.61707 15.9521 6.47398C15.804 6.33088 15.6289 6.21877 15.437 6.14422C15.2451 6.06967 15.0402 6.03418 14.8344 6.03983ZM5.29801 15.4703H0.529801V5.49943C0.529801 5.21841 0.641438 4.94889 0.840152 4.75018C1.03887 4.55146 1.30838 4.43983 1.5894 4.43983H4.23841C4.51943 4.43983 4.78895 4.55146 4.98766 4.75018C5.18638 4.94889 5.29801 5.21841 5.29801 5.49943V15.4703ZM10.596 15.4703H5.82781V1.54711C5.82781 1.26609 5.93945 0.996574 6.13816 0.79786C6.33688 0.599146 6.60639 0.48751 6.88742 0.48751H9.53642C9.81745 0.48751 10.087 0.599146 10.2857 0.79786C10.4844 0.996574 10.596 1.26609 10.596 1.54711V15.4703ZM15.894 15.4703H11.1258V7.57625C11.1255 7.30417 11.2298 7.04238 11.4172 6.84512C11.6046 6.64787 11.8607 6.53025 12.1324 6.51665H14.8344C15.1155 6.51665 15.385 6.62828 15.5837 6.827C15.7824 7.02571 15.894 7.29523 15.894 7.57625V15.4703Z" fill="#0C1419"/>
<path d="M9.16573 4.21729H7.26904V4.74709H9.16573V4.21729Z" fill="#0C1419"/>
<path d="M9.16573 6.3999H7.26904V6.9297H9.16573V6.3999Z" fill="#0C1419"/>
<path d="M9.16573 8.57227H7.26904V9.10207H9.16573V8.57227Z" fill="#0C1419"/>
<path d="M9.16573 10.7549H7.26904V11.2847H9.16573V10.7549Z" fill="#0C1419"/>
<path d="M3.86739 6.45312H1.9707V6.98293H3.86739V6.45312Z" fill="#0C1419"/>
<path d="M3.86739 8.62549H1.9707V9.15529H3.86739V8.62549Z" fill="#0C1419"/>
<path d="M3.86739 10.8081H1.9707V11.3379H3.86739V10.8081Z" fill="#0C1419"/>
<path d="M14.4528 8.62549H12.5562V9.15529H14.4528V8.62549Z" fill="#0C1419"/>
<path d="M14.4528 10.8081H12.5562V11.3379H14.4528V10.8081Z" fill="#0C1419"/>
</svg>
