<svg width="16" height="17" viewBox="0 0 16 17" fill="none" xmlns="http://www.w3.org/2000/svg">
<g clip-path="url(#clip0_10163_58457)">
<g clip-path="url(#clip1_10163_58457)">
<path d="M0.0698242 3.64134C0.0698242 2.1351 1.29086 0.914062 2.7971 0.914062H4.16073C5.66696 0.914062 6.88801 2.1351 6.88801 3.64134V7.73224H2.7971C1.29086 7.73224 0.0698242 6.5112 0.0698242 5.00497V3.64134Z" fill="#6B96FC"/>
<path d="M0.0698242 13.1866C0.0698242 14.6928 1.29086 15.9139 2.7971 15.9139H4.16073C5.66696 15.9139 6.88801 14.6928 6.88801 13.1866V9.0957H2.7971C1.29086 9.0957 0.0698242 10.3168 0.0698242 11.823V13.1866Z" fill="#6B96FC"/>
<path d="M12.3426 0.914063C13.8488 0.914063 15.0699 2.1351 15.0699 3.64134V5.00497C15.0699 6.5112 13.8488 7.73224 12.3426 7.73224H8.25171V3.64134C8.25171 2.1351 9.47278 0.914062 10.979 0.914063L12.3426 0.914063Z" fill="#6B96FC"/>
<path d="M10.9797 9.0957H9.16153C8.65945 9.0957 8.25244 9.50272 8.25244 10.0048V11.823C8.25244 12.3251 8.65945 12.7321 9.16153 12.7321H10.9797C11.4818 12.7321 11.8888 12.3251 11.8888 11.823V10.0048C11.8888 9.50272 11.4818 9.0957 10.9797 9.0957Z" fill="#6B96FC"/>
<path d="M14.1615 13.6406H9.16153C8.65945 13.6406 8.25244 14.0476 8.25244 14.5497V15.0043C8.25244 15.5063 8.65945 15.9134 9.16153 15.9134H14.1615C14.6636 15.9134 15.0706 15.5063 15.0706 15.0043V14.5497C15.0706 14.0476 14.6636 13.6406 14.1615 13.6406Z" fill="#6B96FC"/>
<path d="M14.161 9.0957H13.7065C13.2044 9.0957 12.7974 9.50272 12.7974 10.0048V15.0048C12.7974 15.5069 13.2044 15.9139 13.7065 15.9139H14.161C14.6631 15.9139 15.0701 15.5069 15.0701 15.0048V10.0048C15.0701 9.50272 14.6631 9.0957 14.161 9.0957Z" fill="#6B96FC"/>
</g>
</g>
<defs>
<clipPath id="clip0_10163_58457">
<rect width="16" height="16" fill="white" transform="translate(0 0.5)"/>
</clipPath>
<clipPath id="clip1_10163_58457">
<rect width="15.6818" height="15" fill="white" transform="translate(0.0698242 0.914062)"/>
</clipPath>
</defs>
</svg>
