<svg width="20" height="20" viewBox="0 0 20 20" fill="none" xmlns="http://www.w3.org/2000/svg">
<path fill-rule="evenodd" clip-rule="evenodd" d="M10.3126 3.125C8.57207 3.125 6.90287 3.8164 5.67216 5.04711C4.44146 6.27782 3.75005 7.94702 3.75005 9.6875V16.25H10.3126C11.1744 16.25 12.0277 16.0803 12.8239 15.7505C13.6201 15.4207 14.3436 14.9373 14.9529 14.3279C15.5623 13.7185 16.0457 12.9951 16.3755 12.1989C16.7053 11.4027 16.8751 10.5493 16.8751 9.6875C16.8751 8.8257 16.7053 7.97234 16.3755 7.17614C16.0457 6.37994 15.5623 5.6565 14.9529 5.04711C14.3436 4.43773 13.6201 3.95434 12.8239 3.62454C12.0277 3.29474 11.1744 3.125 10.3126 3.125ZM10.3126 17.5H3.73002C3.56892 17.5015 3.4091 17.471 3.25982 17.4103C3.10904 17.3491 2.97206 17.2582 2.85696 17.1431C2.74187 17.028 2.651 16.891 2.58971 16.7402C2.52903 16.591 2.49856 16.4311 2.50005 16.27V9.6875C2.50005 7.6155 3.32315 5.62836 4.78828 4.16323C6.25341 2.6981 8.24055 1.875 10.3126 1.875C11.3385 1.875 12.3544 2.07708 13.3023 2.46969C14.2501 2.86231 15.1114 3.43777 15.8368 4.16323C16.5623 4.88869 17.1377 5.74993 17.5304 6.69779C17.923 7.64564 18.1251 8.66155 18.1251 9.6875C18.1251 10.7135 17.923 11.7294 17.5304 12.6772C17.1377 13.6251 16.5623 14.4863 15.8368 15.2118C15.1114 15.9372 14.2501 16.5127 13.3023 16.9053C12.3544 17.2979 11.3385 17.5 10.3126 17.5Z" fill="#25793A"/>
<path fill-rule="evenodd" clip-rule="evenodd" d="M7.1875 8.75C7.1875 8.40482 7.46732 8.125 7.8125 8.125H12.5C12.8452 8.125 13.125 8.40482 13.125 8.75C13.125 9.09518 12.8452 9.375 12.5 9.375H7.8125C7.46732 9.375 7.1875 9.09518 7.1875 8.75Z" fill="#25793A"/>
<path fill-rule="evenodd" clip-rule="evenodd" d="M7.1875 11.25C7.1875 10.9048 7.46732 10.625 7.8125 10.625H12.5C12.8452 10.625 13.125 10.9048 13.125 11.25C13.125 11.5952 12.8452 11.875 12.5 11.875H7.8125C7.46732 11.875 7.1875 11.5952 7.1875 11.25Z" fill="#25793A"/>
</svg>
