<svg width="61" height="61" viewBox="0 0 61 61" fill="none" xmlns="http://www.w3.org/2000/svg">
<path d="M36.7518 33.7411C34.4065 36.0863 30.6042 36.0863 28.2589 33.7411C25.9137 31.3958 25.9137 27.5934 28.2589 25.2482L33.5669 19.9401C35.8054 17.7016 39.3714 17.5997 41.7308 19.6345M40.9982 12.5089C43.3435 10.1637 47.1458 10.1637 49.4911 12.5089C51.8363 14.8542 51.8363 18.6566 49.4911 21.0018L44.1831 26.3099C41.9446 28.5484 38.3786 28.6503 36.0192 26.6155" stroke="#982220" stroke-width="2" stroke-linecap="round"/>
<path d="M51.25 33.25C51.25 41.7353 51.25 45.9779 48.614 48.614C45.9779 51.25 41.7353 51.25 33.25 51.25H28.75C20.2647 51.25 16.0221 51.25 13.386 48.614C10.75 45.9779 10.75 41.7353 10.75 33.25V28.75C10.75 20.2647 10.75 16.0221 13.386 13.386C16.0221 10.75 20.2647 10.75 28.75 10.75" stroke="#982220" stroke-width="2" stroke-linecap="round"/>
</svg>
