<svg width="61" height="61" viewBox="0 0 61 61" fill="none" xmlns="http://www.w3.org/2000/svg">
<g clip-path="url(#clip0_2150_1186)">
<path d="M9.25069 38.4584C9.04044 38.4584 8.82536 38.4052 8.62961 38.2868L2.58794 34.6618C2.01519 34.3186 1.83153 33.5767 2.17469 33.004C2.51786 32.4312 3.25978 32.2403 3.83253 32.5883L9.87419 36.2133C10.4469 36.5565 10.6306 37.2984 10.2874 37.8711C10.0603 38.2481 9.65911 38.4584 9.25069 38.4584Z" fill="#982220"/>
<path d="M29.3469 14.2965C29.2309 14.2965 29.1125 14.2796 28.9941 14.2458C24.6972 12.9311 19.586 12.7305 13.8053 13.6537C11.3717 14.0355 8.90672 13.3613 7.03381 11.8025L2.43489 7.96969C1.92256 7.54194 1.85247 6.78069 2.28022 6.26836C2.70797 5.75844 3.46681 5.68352 3.98156 6.11369L8.58047 9.94652C9.91689 11.0606 11.6907 11.5488 13.4259 11.266C19.5715 10.2921 25.0501 10.512 29.6997 11.9306C30.3377 12.1264 30.6978 12.8006 30.5021 13.4386C30.345 13.9606 29.8665 14.2965 29.3469 14.2965Z" fill="#982220"/>
<path d="M38.8573 51.75C37.4146 51.75 35.996 51.2522 34.8698 50.3508L29.0094 45.3652C28.5019 44.9326 28.4391 44.1714 28.8716 43.6615C29.3042 43.154 30.0703 43.0935 30.5754 43.5237L36.4068 48.4851C37.0811 49.024 37.9607 49.3334 38.8573 49.3334C39.8554 49.3334 40.6674 48.5214 40.6674 47.5233C40.6674 46.9989 40.4426 46.5035 40.0487 46.1627L29.0191 36.9697C28.5067 36.542 28.4366 35.7807 28.8644 35.2684C29.2921 34.7609 30.051 34.686 30.5681 35.1161L41.5664 44.2801C41.5809 44.2922 41.5978 44.3067 41.6147 44.3212L44.1546 46.4382C44.5244 46.7475 44.9981 46.9167 45.4814 46.9167H45.8391C46.9846 46.9167 47.9174 45.9839 47.9174 44.8384C47.9174 44.2342 47.6636 43.6687 47.2141 43.2748L33.8524 32.1388C33.3401 31.711 33.27 30.9498 33.6977 30.4375C34.1279 29.9275 34.8867 29.855 35.4015 30.2852L48.7173 41.3825C48.7415 41.4019 48.7632 41.4212 48.785 41.4381L48.9807 41.6C49.3553 41.9118 49.8338 42.0834 50.3244 42.0834H50.6482C51.8082 42.0834 52.7507 41.1385 52.7507 39.9809C52.7507 39.3598 52.4873 38.7798 52.0257 38.381L33.8282 22.4504C33.3256 22.0105 33.2748 21.2493 33.7171 20.7466C34.1545 20.2415 34.9181 20.1932 35.4232 20.633L53.6135 36.5589C54.5995 37.4144 55.1674 38.659 55.1674 39.9712C55.1674 42.4725 53.1398 44.5 50.6482 44.5H50.3244C50.3341 44.6088 50.3341 44.72 50.3341 44.8311C50.3341 47.3155 48.3186 49.3334 45.8391 49.3334H45.4814C44.5776 49.3334 43.6979 49.0603 42.956 48.5576C42.4944 50.3895 40.8317 51.75 38.8573 51.75Z" fill="#982220"/>
<path d="M32.209 54.1667C31.2423 54.1667 30.3312 53.7897 29.6449 53.1058L26.5491 50.2178C26.061 49.7635 26.0368 48.9974 26.4911 48.5117C26.9479 48.0211 27.7091 47.9969 28.1997 48.4537L31.3245 51.3706C31.8416 51.8854 32.6053 51.8563 33.062 51.3996C33.6807 50.7809 33.9151 49.5847 33.601 49.2705C33.1297 48.7993 33.1297 48.0332 33.601 47.5619C34.0722 47.0907 34.8383 47.0907 35.3095 47.5619C36.7426 48.995 36.2061 51.6703 34.7706 53.1082C34.0867 53.7897 33.1756 54.1667 32.209 54.1667Z" fill="#982220"/>
<path d="M52.75 38.4584C52.3391 38.4584 51.9404 38.2482 51.7132 37.8712C51.37 37.3008 51.5561 36.5565 52.1265 36.2133L58.1681 32.5883C58.7409 32.2379 59.4828 32.4337 59.826 33.004C60.1691 33.5743 59.983 34.3187 59.4127 34.6618L53.371 38.2868C53.1777 38.4053 52.9626 38.4584 52.75 38.4584Z" fill="#982220"/>
<path d="M23.5889 30H22.6222C20.6236 30 18.8256 28.8884 17.9315 27.1024C16.9189 25.0797 17.3128 22.6461 18.9126 21.0463L25.3144 14.6469C25.3845 14.5769 25.4618 14.514 25.5464 14.4657C25.9862 14.2023 26.4333 13.9099 26.8901 13.6102C28.9877 12.2279 31.3633 10.6667 34.6258 10.6667C36.5181 10.6667 38.2605 11.2394 40.1044 11.8484C42.7313 12.7136 45.6966 13.6948 49.8146 13.1438L58.0071 6.12336C58.5146 5.69319 59.2758 5.75119 59.7108 6.25627C60.1458 6.76136 60.0878 7.52502 59.5803 7.96002L51.122 15.21C50.9504 15.3574 50.7401 15.4541 50.5178 15.4855C45.6603 16.2323 42.161 15.0723 39.3504 14.1419C37.6225 13.5739 36.1314 13.0834 34.6258 13.0834C32.0859 13.0834 30.1187 14.3763 28.2168 15.6257C27.7746 15.9157 27.3444 16.1984 26.9191 16.4594L20.6212 22.7549C19.7609 23.6152 19.5482 24.9299 20.092 26.0222C20.5729 26.984 21.542 27.5834 22.6198 27.5834H23.5865C24.2438 27.5834 24.8601 27.3659 25.3676 26.9526C25.8243 26.5804 26.3536 26.1382 26.9215 25.6645C30.0196 23.0739 32.5233 21.039 34.2005 20.4107C34.824 20.169 35.5224 20.4929 35.7568 21.1164C35.9912 21.7423 35.6746 22.4383 35.0511 22.6727C33.6277 23.2092 30.5247 25.8023 28.473 27.5205C27.8978 28.0014 27.3613 28.4509 26.8925 28.8304C25.9645 29.5844 24.79 30 23.5889 30Z" fill="#982220"/>
<path d="M11.6104 43.2917C9.64327 43.2917 8.04102 41.6894 8.04102 39.7198V39.1713C8.04102 38.4632 8.24885 37.7793 8.64035 37.192L9.95985 35.2152C10.622 34.2195 11.7313 33.625 12.9299 33.625C14.8971 33.625 16.4993 35.2272 16.4993 37.1968V37.7454C16.4993 38.4535 16.2915 39.1374 15.9 39.7247L14.5805 41.7015C13.9183 42.6972 12.8091 43.2917 11.6104 43.2917ZM12.9299 36.0417C12.5433 36.0417 12.1856 36.2326 11.9729 36.554L10.651 38.5333C10.5253 38.7218 10.4577 38.9441 10.4577 39.1737V39.7223C10.4577 40.3603 10.9748 40.8774 11.6104 40.8774C11.9971 40.8774 12.3548 40.6865 12.5674 40.3651L13.8869 38.3858C14.015 38.1949 14.0827 37.9726 14.0827 37.743V37.1944C14.0827 36.5588 13.5655 36.0417 12.9299 36.0417Z" fill="#982220"/>
<path d="M15.3176 46.9167C13.2683 46.9167 11.666 45.3145 11.666 43.3449V42.8712C11.666 42.1027 11.9198 41.3391 12.3789 40.7252L14.8246 37.4676C15.494 36.5734 16.5622 36.0393 17.6811 36.0393C19.7304 36.0417 21.3327 37.644 21.3327 39.6136V40.0872C21.3327 40.8557 21.0789 41.6194 20.6198 42.2332L18.1741 45.4909C17.5047 46.3826 16.4365 46.9167 15.3176 46.9167ZM17.7633 38.4584C17.3186 38.4584 16.9754 38.63 16.7579 38.9176L14.3123 42.1776C14.1648 42.3758 14.0827 42.6223 14.0827 42.8712V43.3449C14.0827 43.9829 14.5998 44.5001 15.2354 44.5001C15.6801 44.5001 16.0233 44.3285 16.2408 44.0409L18.6864 40.7808C18.8339 40.5826 18.916 40.3361 18.916 40.0872V39.6136C18.916 38.9756 18.3988 38.4584 17.7633 38.4584Z" fill="#982220"/>
<path d="M20.1516 49.3334C18.1023 49.3334 16.5 47.7311 16.5 45.7615V45.2879C16.5 44.5194 16.7538 43.7557 17.2129 43.1418L19.6586 39.8842C20.328 38.99 21.3962 38.4559 22.5151 38.4559C24.5644 38.4583 26.1667 40.0606 26.1667 42.0302V42.5038C26.1667 43.2723 25.9129 44.036 25.4538 44.6499L23.0081 47.9075C22.3387 48.7993 21.2705 49.3334 20.1516 49.3334ZM22.5973 40.875C22.1526 40.875 21.8094 41.0466 21.5919 41.3342L19.1462 44.5943C18.9988 44.7924 18.9167 45.0389 18.9167 45.2879V45.7615C18.9167 46.3995 19.4338 46.9167 20.0694 46.9167C20.5141 46.9167 20.8573 46.7451 21.0748 46.4575L23.5204 43.1974C23.6678 42.9993 23.75 42.7528 23.75 42.5038V42.0302C23.75 41.3922 23.2328 40.875 22.5973 40.875Z" fill="#982220"/>
<path d="M24.9856 51.75C22.9362 51.75 21.334 50.1477 21.334 48.1781V47.7045C21.334 46.936 21.5877 46.1723 22.0469 45.5585L24.4926 42.3008C25.162 41.4066 26.2302 40.8726 27.3491 40.8726C29.4008 40.8726 31.0007 42.4748 31.0007 44.4444V44.9181C31.0007 45.6866 30.7469 46.4502 30.2877 47.0641L27.8421 50.3217C27.1727 51.2159 26.1045 51.75 24.9856 51.75ZM27.4312 43.2916C26.9866 43.2916 26.6434 43.4632 26.4259 43.7508L23.9802 47.0109C23.8328 47.2091 23.7507 47.4556 23.7507 47.7045V48.1781C23.7507 48.8161 24.2678 49.3333 24.9034 49.3333C25.3481 49.3333 25.6912 49.1617 25.9087 48.8741L28.3544 45.6141C28.5018 45.4159 28.584 45.1694 28.584 44.9205V44.4468C28.584 43.8088 28.0668 43.2916 27.4312 43.2916Z" fill="#982220"/>
</g>
<defs>
<clipPath id="clip0_2150_1186">
<rect width="58" height="58" fill="white" transform="translate(2 1)"/>
</clipPath>
</defs>
</svg>
