<svg width="41" height="41" viewBox="0 0 41 41" fill="none" xmlns="http://www.w3.org/2000/svg">
<g clip-path="url(#clip0_339_617)">
<path d="M27.39 14.38C26.3 13.7 25.52 12.59 25.21 11.3C25.21 11.3 25.21 11.27 25.2 11.26C25.18 11.17 25.14 11.09 25.13 11V10.98C25.11 10.83 25.09 10.67 25.09 10.5V10H21.53V24.45C21.53 26.13 20.19 27.5 18.54 27.5C18.09 27.5 17.87 27.44 17.38 27.21C17.3 27.16 17.19 27.13 17.16 27.09C16.18 26.59 15.51 25.57 15.51 24.39C15.51 22.72 16.85 21.37 18.51 21.37C18.83 21.37 19.13 21.42 19.42 21.51V17.82C19.13 17.78 18.84 17.76 18.54 17.76C14.93 17.76 12 20.75 12 24.44C12 26.75 13.15 28.79 14.9 29.99C15.94 30.7 17.17 30.99 18.51 30.99C22.13 30.99 25.06 28.03 25.06 24.39V17.1C26.45 18.1 28.16 18.69 30 18.69V15.11C29.08 15.11 28.16 14.86 27.38 14.36V14.38H27.39Z" fill="white"/>
</g>
<defs>
<clipPath id="clip0_339_617">
<rect width="18" height="20.99" fill="white" transform="translate(12 10)"/>
</clipPath>
</defs>
</svg>
