<svg width="28" height="28" viewBox="0 0 28 28" fill="none" xmlns="http://www.w3.org/2000/svg">
<path d="M19 23.25H9C5.35 23.25 3.25 21.15 3.25 17.5V10.5C3.25 6.85 5.35 4.75 9 4.75H19C22.65 4.75 24.75 6.85 24.75 10.5V17.5C24.75 21.15 22.65 23.25 19 23.25ZM9 6.25C6.14 6.25 4.75 7.64 4.75 10.5V17.5C4.75 20.36 6.14 21.75 9 21.75H19C21.86 21.75 23.25 20.36 23.25 17.5V10.5C23.25 7.64 21.86 6.25 19 6.25H9Z" fill="#444444"/>
<path d="M13.9988 14.87C13.1588 14.87 12.3088 14.61 11.6588 14.08L8.5288 11.58C8.2088 11.32 8.14881 10.85 8.4088 10.53C8.6688 10.21 9.13881 10.15 9.45881 10.41L12.5888 12.91C13.3488 13.52 14.6388 13.52 15.3988 12.91L18.5288 10.41C18.8488 10.15 19.3288 10.2 19.5788 10.53C19.8388 10.85 19.7888 11.33 19.4588 11.58L16.3288 14.08C15.6888 14.61 14.8388 14.87 13.9988 14.87Z" fill="#444444"/>
</svg>
