<svg width="61" height="61" viewBox="0 0 61 61" fill="none" xmlns="http://www.w3.org/2000/svg">
<path d="M29.2298 30.5C24.3244 30.5 20.334 26.5096 20.334 21.6042C20.334 16.6988 24.3244 12.7084 29.2298 12.7084C34.1352 12.7084 38.1256 16.6988 38.1256 21.6042C38.1256 26.5096 34.1352 30.5 29.2298 30.5ZM29.2298 15.25C25.7274 15.25 22.8757 18.1018 22.8757 21.6042C22.8757 25.1066 25.7274 27.9584 29.2298 27.9584C32.7322 27.9584 35.584 25.1066 35.584 21.6042C35.584 18.1018 32.7322 15.25 29.2298 15.25Z" fill="#982220"/>
<path d="M47.0202 35.5833C43.5178 35.5833 40.666 32.7316 40.666 29.2292C40.666 25.7267 43.5178 22.875 47.0202 22.875C50.5226 22.875 53.3743 25.7267 53.3743 29.2292C53.3743 32.7316 50.5226 35.5833 47.0202 35.5833ZM47.0202 25.4167C44.9182 25.4167 43.2077 27.1272 43.2077 29.2292C43.2077 31.3311 44.9182 33.0417 47.0202 33.0417C49.1221 33.0417 50.8327 31.3311 50.8327 29.2292C50.8327 27.1272 49.1221 25.4167 47.0202 25.4167Z" fill="#982220"/>
<path d="M11.6178 35.5833C8.11542 35.5833 5.26367 32.7316 5.26367 29.2292C5.26367 25.7267 8.11288 22.875 11.6178 22.875C15.1228 22.875 17.972 25.7267 17.972 29.2292C17.972 32.7316 15.1203 35.5833 11.6178 35.5833ZM11.6178 25.4167C9.51588 25.4167 7.80534 27.1272 7.80534 29.2292C7.80534 31.3311 9.51588 33.0417 11.6178 33.0417C13.7198 33.0417 15.4303 31.3311 15.4303 29.2292C15.4303 27.1272 13.7198 25.4167 11.6178 25.4167Z" fill="#982220"/>
<path d="M44.4798 50.8334C43.7783 50.8334 43.209 50.2641 43.209 49.5626C43.209 41.8537 36.9387 35.5834 29.2298 35.5834C21.5209 35.5834 15.2507 41.8537 15.2507 49.5626C15.2507 50.2641 14.6813 50.8334 13.9798 50.8334C13.2783 50.8334 12.709 50.2641 12.709 49.5626C12.709 40.4532 20.1205 33.0417 29.2298 33.0417C38.3392 33.0417 45.7507 40.4532 45.7507 49.5626C45.7507 50.2641 45.1813 50.8334 44.4798 50.8334Z" fill="#982220"/>
<path d="M57.1883 50.8333C56.4868 50.8333 55.9175 50.264 55.9175 49.5625C55.9175 44.6571 51.9271 40.6667 47.0216 40.6667C45.3924 40.6667 43.8014 41.1089 42.4161 41.9502C41.8163 42.3137 41.0386 42.123 40.67 41.5232C40.3066 40.9234 40.4997 40.1431 41.097 39.7771C42.8813 38.6969 44.9299 38.125 47.0216 38.125C53.3275 38.125 58.4591 43.2566 58.4591 49.5625C58.4591 50.264 57.8898 50.8333 57.1883 50.8333Z" fill="#982220"/>
<path d="M1.27083 50.8333C0.569333 50.8333 0 50.264 0 49.5625C0 43.2566 5.13163 38.125 11.4375 38.125C13.5293 38.125 15.5779 38.6969 17.3596 39.7745C17.9594 40.1405 18.1526 40.9208 17.7866 41.5207C17.4206 42.1205 16.6378 42.3111 16.0405 41.9477C14.6578 41.1089 13.0667 40.6667 11.4375 40.6667C6.53208 40.6667 2.54167 44.6571 2.54167 49.5625C2.54167 50.264 1.97233 50.8333 1.27083 50.8333Z" fill="#982220"/>
</svg>
