<svg width="27" height="27" viewBox="0 0 27 27" fill="none" xmlns="http://www.w3.org/2000/svg">
<path d="M13.1 25.2002C19.7826 25.2002 25.2 19.7828 25.2 13.1002C25.2 6.41754 19.7826 1.00018 13.1 1.00018C6.41735 1.00018 1 6.41754 1 13.1002C1 19.7828 6.41735 25.2002 13.1 25.2002Z" stroke="#444444" stroke-width="2" stroke-linecap="round" stroke-linejoin="round"/>
<path d="M2.09961 8.60016H24.0996" stroke="#444444" stroke-width="2" stroke-linecap="round" stroke-linejoin="round"/>
<path d="M2.09961 17.6002H24.0996" stroke="#444444" stroke-width="2" stroke-linecap="round" stroke-linejoin="round"/>
<path d="M11.9992 1.00018C9.84258 4.62966 8.69922 8.82198 8.69922 13.1002C8.69922 17.3784 9.84258 21.5707 11.9992 25.2002" stroke="#444444" stroke-width="2" stroke-linecap="round" stroke-linejoin="round"/>
<path d="M14.1992 1.00018C16.3559 4.62966 17.4992 8.82198 17.4992 13.1002C17.4992 17.3784 16.3559 21.5707 14.1992 25.2002" stroke="#444444" stroke-width="2" stroke-linecap="round" stroke-linejoin="round"/>
</svg>
