<svg width="22" height="16" viewBox="0 0 22 16" fill="none" xmlns="http://www.w3.org/2000/svg">
<path d="M20.294 6.79498C20.598 7.2213 20.75 7.43447 20.75 7.75C20.75 8.06553 20.598 8.27869 20.294 8.70501C18.9279 10.6206 15.4392 14.75 10.75 14.75C6.06078 14.75 2.5721 10.6206 1.20604 8.70502C0.902014 8.2787 0.75 8.06553 0.75 7.75C0.75 7.43447 0.902013 7.22131 1.20604 6.79499C2.5721 4.87944 6.06078 0.75 10.75 0.75C15.4392 0.75 18.9279 4.87944 20.294 6.79498Z" stroke="#2A353D" stroke-width="1.5"/>
<path d="M13.7505 7.75C13.7505 6.09315 12.4073 4.75 10.7505 4.75C9.09363 4.75 7.75049 6.09315 7.75049 7.75C7.75049 9.40685 9.09363 10.75 10.7505 10.75C12.4073 10.75 13.7505 9.40685 13.7505 7.75Z" stroke="#2A353D" stroke-width="1.5"/>
</svg>
