<svg width="41" height="41" viewBox="0 0 41 41" fill="none" xmlns="http://www.w3.org/2000/svg">
<mask id="path-2-inside-1_339_626" fill="white">
<path d="M22.4442 32.0842V22.0105H25.8255L26.3317 18.0846H22.4442V15.578C22.4442 14.4414 22.7598 13.6667 24.3899 13.6667L26.4688 13.6658V10.1545C26.1091 10.1069 24.8751 10 23.4395 10C20.4421 10 18.3901 11.8295 18.3901 15.1894V18.0847H15V22.0106H18.39V32.0843L22.4442 32.0842Z"/>
</mask>
<path d="M22.4442 32.0842V22.0105H25.8255L26.3317 18.0846H22.4442V15.578C22.4442 14.4414 22.7598 13.6667 24.3899 13.6667L26.4688 13.6658V10.1545C26.1091 10.1069 24.8751 10 23.4395 10C20.4421 10 18.3901 11.8295 18.3901 15.1894V18.0847H15V22.0106H18.39V32.0843L22.4442 32.0842Z" fill="white"/>
<path d="M22.4442 32.0842L22.4445 44.1538L34.5137 44.1535V32.0842H22.4442ZM22.4442 22.0105V9.94088H10.3746V22.0105H22.4442ZM25.8255 22.0105V34.0801H36.4387L37.796 23.5541L25.8255 22.0105ZM26.3317 18.0846L38.3022 19.6282L40.0576 6.01499H26.3317V18.0846ZM22.4442 18.0846H10.3746V30.1542H22.4442V18.0846ZM24.3899 13.6667V25.7363L24.3954 25.7363L24.3899 13.6667ZM26.4688 13.6658L26.4744 25.7354L38.5384 25.7298V13.6658H26.4688ZM26.4688 10.1545H38.5384V-0.421083L28.0544 -1.81045L26.4688 10.1545ZM18.3901 18.0847V30.1543H30.4597V18.0847H18.3901ZM15 18.0847V6.0151H2.93041V18.0847H15ZM15 22.0106H2.93041V34.0802H15V22.0106ZM18.39 22.0106H30.4596V9.94099H18.39V22.0106ZM18.39 32.0843H6.3204V44.1542L18.3903 44.1539L18.39 32.0843ZM22.4442 32.0842H34.5137V22.0105H22.4442H10.3746V32.0842H22.4442ZM22.4442 22.0105V34.0801H25.8255V22.0105V9.94088H22.4442V22.0105ZM25.8255 22.0105L37.796 23.5541L38.3022 19.6282L26.3317 18.0846L14.3613 16.541L13.855 20.4669L25.8255 22.0105ZM26.3317 18.0846V6.01499H22.4442V18.0846V30.1542H26.3317V18.0846ZM22.4442 18.0846H34.5137V15.578H22.4442H10.3746V18.0846H22.4442ZM22.4442 15.578H34.5137C34.5137 15.7699 34.5096 16.5431 34.2636 17.5818C34.0007 18.6914 33.4037 20.3484 32.0387 21.9697C29.0138 25.5625 25.1832 25.7363 24.3899 25.7363V13.6667V1.59715C21.9665 1.59715 17.163 2.15834 13.5728 6.42263C10.3746 10.2213 10.3746 14.4929 10.3746 15.578H22.4442ZM24.3899 13.6667L24.3954 25.7363L26.4744 25.7354L26.4688 13.6658L26.4632 1.5962L24.3843 1.59716L24.3899 13.6667ZM26.4688 13.6658H38.5384V10.1545H26.4688H14.3992V13.6658H26.4688ZM26.4688 10.1545L28.0544 -1.81045C27.0974 -1.93728 25.3278 -2.06959 23.4395 -2.06959V10V22.0696C23.8698 22.0696 24.2872 22.086 24.619 22.1064C24.7818 22.1163 24.9055 22.1261 24.9802 22.1328C25.0846 22.142 25.0369 22.1399 24.8831 22.1195L26.4688 10.1545ZM23.4395 10V-2.06959C19.4915 -2.06959 14.9226 -0.823802 11.3063 2.75052C7.65264 6.36173 6.32051 11.0142 6.32051 15.1894H18.3901H30.4597C30.4597 16.0047 30.1536 18.0625 28.2753 19.9189C26.4343 21.7385 24.3901 22.0696 23.4395 22.0696V10ZM18.3901 15.1894H6.32051V18.0847H18.3901H30.4597V15.1894H18.3901ZM18.3901 18.0847V6.0151H15V18.0847V30.1543H18.3901V18.0847ZM15 18.0847H2.93041V22.0106H15H27.0696V18.0847H15ZM15 22.0106V34.0802H18.39V22.0106V9.94099H15V22.0106ZM18.39 22.0106H6.3204V32.0843H18.39H30.4596V22.0106H18.39ZM18.39 32.0843L18.3903 44.1539L22.4445 44.1538L22.4442 32.0842L22.4438 20.0146L18.3897 20.0147L18.39 32.0843Z" fill="white" mask="url(#path-2-inside-1_339_626)"/>
</svg>
