<svg width="22" height="22" viewBox="0 0 22 22" fill="none" xmlns="http://www.w3.org/2000/svg">
<g clip-path="url(#clip0_339_1589)">
<path d="M21.4788 10.7134H4.02333V10.4672C4.02333 9.93835 3.70352 9.49028 3.26525 9.2844V2.68844C3.26525 1.79229 3.98385 1.01725 4.89986 1.01725C5.81587 1.01725 6.53446 1.75193 6.53446 2.68844V3.13651C5.65793 3.38275 5.02225 4.15376 5.02225 5.09027C5.02225 5.37688 5.2631 5.61908 5.53948 5.61908H8.52836C8.80869 5.61908 9.04558 5.37284 9.04558 5.09027C9.04558 4.15376 8.40596 3.33835 7.52943 3.13651V2.68844C7.52943 1.22312 6.37258 0 4.89986 0C3.42714 0 2.27028 1.18275 2.27028 2.68844V9.28844C1.83202 9.49028 1.5122 9.94239 1.5122 10.4712V10.7174H0.517229C0.236899 10.7174 0 10.9637 0 11.2462V16.9905C0 18.7424 1.31479 20.2077 2.98887 20.4136V21.4712C2.98887 21.7578 3.22972 22 3.5061 22H5.5C5.69742 22 5.89878 21.8789 5.97775 21.6327L6.37653 20.4499H16.1012L16.5 21.6327C16.579 21.8345 16.7408 22 16.9777 22H18.9716C19.252 22 19.4889 21.7538 19.4889 21.4712V20.3288C20.9221 19.9211 22 18.5769 22 17.0268V11.2018C21.9605 10.9152 21.7197 10.7134 21.4828 10.7134H21.4788ZM7.88873 4.60587H6.17516C6.53446 3.91156 7.48995 3.91156 7.88873 4.60587ZM2.55061 10.4308C2.55061 10.3097 2.66906 10.1846 2.79146 10.1846C2.91386 10.1846 3.0323 10.3057 3.0323 10.4308V10.6771H2.51508V10.4308H2.55456H2.55061ZM5.1407 20.902H4.02333V20.3732H5.33812L5.1407 20.902ZM18.49 20.902H17.3726L17.1752 20.3732H18.49V20.902ZM18.6123 19.3519H3.42714C2.11235 19.3519 1.07394 18.2539 1.07394 16.9461V13.7692H18.5294C18.8098 13.7692 19.0467 13.5229 19.0467 13.2404C19.0467 12.9578 18.8058 12.7116 18.5294 12.7116H1.03446V11.6943H20.9616V15.7673H11.995C11.7146 15.7673 11.4777 16.0136 11.4777 16.2961C11.4777 16.5787 11.7186 16.825 11.995 16.825H20.9616V16.9461C20.9616 18.2499 19.8877 19.3519 18.6084 19.3519H18.6123Z" fill="black"/>
<path d="M5.02246 7.12878V8.14603C5.02246 8.43264 5.26331 8.67484 5.53969 8.67484C5.81607 8.67484 6.05692 8.4286 6.05692 8.14603V7.12878C6.05692 6.84218 5.81607 6.59998 5.53969 6.59998C5.26331 6.59998 5.02246 6.84621 5.02246 7.12878Z" fill="black"/>
<path d="M6.53418 7.66162V9.70015C6.53418 9.98676 6.77503 10.229 7.05141 10.229C7.32779 10.229 7.56864 9.98272 7.56864 9.70015V7.66162C7.56864 7.37501 7.32779 7.13281 7.05141 7.13281C6.77503 7.13281 6.53418 7.37905 6.53418 7.66162Z" fill="black"/>
<path d="M8.52797 6.11157C8.24764 6.11157 8.01074 6.35781 8.01074 6.64038V7.65763C8.01074 7.94423 8.25159 8.18643 8.52797 8.18643C8.80435 8.18643 9.0452 7.9402 9.0452 7.65763V6.64038C9.00572 6.35377 8.76487 6.11157 8.52797 6.11157Z" fill="black"/>
</g>
<defs>
<clipPath id="clip0_339_1589">
<rect width="22" height="22" fill="white"/>
</clipPath>
</defs>
</svg>
