<svg width="24" height="24" viewBox="0 0 24 24" fill="none" xmlns="http://www.w3.org/2000/svg">
<path d="M11.9996 13.9892C10.0471 13.9892 8.45215 12.4033 8.45215 10.4417C8.45215 8.47999 10.0471 6.90332 11.9996 6.90332C13.9521 6.90332 15.5471 8.48915 15.5471 10.4508C15.5471 12.4125 13.9521 13.9892 11.9996 13.9892ZM11.9996 8.27832C10.808 8.27832 9.82715 9.24999 9.82715 10.4508C9.82715 11.6517 10.7988 12.6233 11.9996 12.6233C13.2005 12.6233 14.1721 11.6517 14.1721 10.4508C14.1721 9.24999 13.1913 8.27832 11.9996 8.27832Z" fill="#292D32"/>
<path d="M11.9996 21.8634C10.6429 21.8634 9.27705 21.35 8.21372 20.3325C5.50955 17.7292 2.52122 13.5767 3.64872 8.63587C4.66622 4.15337 8.58038 2.14587 11.9996 2.14587C11.9996 2.14587 11.9996 2.14587 12.0087 2.14587C15.4279 2.14587 19.3421 4.15337 20.3596 8.64504C21.4779 13.5859 18.4896 17.7292 15.7854 20.3325C14.7221 21.35 13.3562 21.8634 11.9996 21.8634ZM11.9996 3.52087C9.33205 3.52087 5.90372 4.94171 4.99622 8.93837C4.00622 13.2559 6.71955 16.9775 9.17622 19.3334C10.7621 20.8642 13.2462 20.8642 14.8321 19.3334C17.2796 16.9775 19.9929 13.2559 19.0212 8.93837C18.1046 4.94171 14.6671 3.52087 11.9996 3.52087Z" fill="#292D32"/>
</svg>
