<svg width="25" height="25" viewBox="0 0 25 25" fill="none" xmlns="http://www.w3.org/2000/svg">
<path d="M12.5 0C5.60761 0 0 5.60761 0 12.5C0 19.3924 5.60761 25 12.5 25C19.3924 25 25 19.3924 25 12.5C25 5.60761 19.3924 0 12.5 0ZM12.5 3.26087C14.5978 3.26087 16.3043 4.96739 16.3043 7.06522C16.3043 9.16304 14.5978 10.8696 12.5 10.8696C10.4022 10.8696 8.69565 9.16304 8.69565 7.06522C8.69565 4.96739 10.4022 3.26087 12.5 3.26087ZM19.0217 19.5652H5.97826C5.67826 19.5652 5.43478 19.3217 5.43478 19.0217C5.43478 15.1261 8.60435 11.9565 12.5 11.9565C16.3957 11.9565 19.5652 15.1261 19.5652 19.0217C19.5652 19.3217 19.3217 19.5652 19.0217 19.5652Z" fill="#B2B2B2"/>
</svg>
