<svg width="27" height="20" viewBox="0 0 27 20" fill="none" xmlns="http://www.w3.org/2000/svg">
<g clip-path="url(#clip0_339_1596)">
<path d="M26.3729 1.78555H5.75348C5.27362 0.750583 4.2189 0 3.02164 0C1.39205 0 0 1.31935 0 2.96503V17.0816C0 18.6807 1.34454 20 3.02164 20H26.3729C26.7102 20 26.9952 19.7156 26.9952 19.3893V2.35431C26.9477 2.02331 26.6579 1.79021 26.3729 1.79021V1.78555ZM1.19725 2.96503C1.19725 1.97669 2.01443 1.17949 3.02164 1.17949C3.83882 1.17949 4.55622 1.74359 4.74626 2.44755V2.54079C4.79377 2.68065 4.79377 2.82517 4.79377 2.96503V14.7273C3.73905 13.9254 2.25198 13.9254 1.19725 14.7273V2.96503ZM25.7505 18.8205H2.97413C1.96692 18.8205 1.14974 18.0186 1.14974 17.0303C1.14974 16.042 1.96692 15.2401 2.97413 15.2401C3.98135 15.2401 4.79852 16.042 4.79852 17.0303C4.79852 17.3613 5.08833 17.641 5.4209 17.641C5.75348 17.641 6.04329 17.3566 6.04329 17.0303V2.91841H25.7505V18.8252V18.8205Z" fill="black"/>
<path d="M7.76789 17.6457H23.9783C24.3157 17.6457 24.6007 17.3613 24.6007 17.035C24.6007 16.7086 24.2634 16.4709 23.9783 16.4709H8.39027V4.70398C8.39027 4.37298 8.10046 4.09326 7.76789 4.09326C7.43532 4.09326 7.14551 4.37764 7.14551 4.70398V17.0816C7.19302 17.366 7.43532 17.6457 7.76789 17.6457Z" fill="black"/>
<path d="M9.59211 15.9068H23.9782C24.3155 15.9068 24.6006 15.6224 24.6006 15.2961V4.70398C24.6006 4.37298 24.3107 4.09326 23.9782 4.09326H9.59211C9.25479 4.09326 8.96973 4.37764 8.96973 4.70398V15.2914C8.96973 15.6224 9.25954 15.9021 9.59211 15.9021V15.9068ZM10.167 8.84851H13.7635V14.732H10.167V8.84851ZM23.3558 8.84851V11.2028H22.1585V8.84851H23.3558ZM20.9565 11.1982H14.9608V8.84384H20.9565V11.1982ZM14.9608 12.3776H17.9824V14.732H14.9608V12.3776ZM12.5615 7.66902V5.31471H18.5573V7.66902H12.5615ZM19.1797 14.7273V12.373H23.351V14.7273H19.1797ZM23.3558 7.66902H19.7593V5.31471H23.3558V7.66902ZM11.3642 5.31937V7.67368H10.167V5.31937H11.3642Z" fill="black"/>
</g>
<defs>
<clipPath id="clip0_339_1596">
<rect width="27" height="20" fill="white"/>
</clipPath>
</defs>
</svg>
