<svg width="41" height="41" viewBox="0 0 41 41" fill="none" xmlns="http://www.w3.org/2000/svg">
<path d="M20.5439 13C20.5439 13 27.7594 13.0002 29.5645 13.4795C30.0546 13.6115 30.5013 13.8678 30.8594 14.2236C31.2176 14.5796 31.4749 15.0228 31.6055 15.5078C32.0854 17.2875 32.0879 20.9873 32.0879 21.0303C32.0879 21.0303 32.0882 24.7637 31.6055 26.5537C31.475 27.0386 31.2175 27.481 30.8594 27.8369C30.5012 28.1928 30.0547 28.45 29.5645 28.582C27.7594 29.0613 20.5439 29.0615 20.5439 29.0615C20.5106 29.0615 13.326 29.0601 11.5244 28.582C11.0341 28.45 10.5867 28.1929 10.2285 27.8369C9.87044 27.481 9.61292 27.0386 9.48242 26.5537C8.99968 24.7636 9 21.0303 9 21.0303C9.00002 20.9873 9.00254 17.2876 9.48242 15.5078C9.61295 15.0228 9.87029 14.5796 10.2285 14.2236C10.5867 13.8677 11.0341 13.6115 11.5244 13.4795C13.3259 13.0015 20.5106 13 20.5439 13ZM18.9043 24.334L24.1914 21.0293L18.9043 17.7246V24.334Z" fill="white"/>
</svg>
