<svg width="47" height="47" viewBox="0 0 47 47" fill="none" xmlns="http://www.w3.org/2000/svg">
<path d="M9.79167 7.83337H17.625L21.5417 17.625L16.6458 20.5625C18.7431 24.8151 22.1849 28.2569 26.4375 30.3542L29.375 25.4584L39.1667 29.375V37.2084C39.1667 38.2471 38.754 39.2434 38.0195 39.9779C37.285 40.7124 36.2888 41.125 35.25 41.125C27.6111 40.6608 20.4061 37.4169 14.9946 32.0054C9.58311 26.5939 6.33922 19.389 5.875 11.75C5.875 10.7113 6.28765 9.71506 7.02216 8.98054C7.75668 8.24602 8.7529 7.83337 9.79167 7.83337" stroke="#982220" stroke-width="2" stroke-linecap="round" stroke-linejoin="round"/>
<path d="M29.375 13.7084C30.4138 13.7084 31.41 14.121 32.1445 14.8555C32.879 15.5901 33.2917 16.5863 33.2917 17.625" stroke="#982220" stroke-width="2" stroke-linecap="round" stroke-linejoin="round"/>
<path d="M29.375 5.875C32.4913 5.875 35.48 7.11294 37.6835 9.3165C39.8871 11.52 41.125 14.5087 41.125 17.625" stroke="#982220" stroke-width="2" stroke-linecap="round" stroke-linejoin="round"/>
</svg>
