<svg width="47" height="47" viewBox="0 0 47 47" fill="none" xmlns="http://www.w3.org/2000/svg">
<path d="M12.6258 36.8285C12.4806 36.7637 12.3757 36.6908 12.5452 36.545C12.65 36.4641 12.763 36.3912 12.8759 36.3183C13.9328 35.6299 14.9253 34.8766 15.5788 33.7671C16.1273 32.8439 16.0387 32.3012 15.3529 31.621C11.5285 27.7822 9.85036 23.1903 10.6894 17.764C11.1654 14.7027 12.5612 12.0544 14.5944 9.7544C15.8208 8.36135 17.2813 7.23573 18.8788 6.2963C18.9756 6.23966 19.1128 6.22341 19.1288 6.07762C19.0966 5.99668 19.04 6.02097 18.9916 6.02097C16.2726 6.02097 13.5536 5.96433 10.8427 6.03722C8.24469 6.11817 6.00177 8.13462 6.00979 11.026C6.02597 19.4729 6.00979 27.9199 6.00979 36.3749C6.00979 38.999 8.00262 41.1937 10.6086 41.2909C12.8113 41.3801 15.014 41.3072 17.2247 41.299C17.3861 41.307 17.5474 41.3152 17.7088 41.3152H29.3594C32.2639 41.3152 35.1686 41.3315 38.0731 41.3152C40.768 41.3152 42.9545 39.1285 42.9545 36.4317V31.6454C42.9545 31.532 42.9949 31.4105 42.9222 31.2892C42.777 31.2972 42.7206 31.4187 42.6398 31.4998C41.0745 33.079 39.2269 34.3506 37.2017 35.2495C32.2397 37.4442 27.189 37.598 22.0656 35.8326C21.6219 35.6706 21.1377 35.6545 20.6778 35.7678C20 35.9379 19.3304 36.1403 18.6608 36.3427C16.6921 36.9582 14.6831 37.2336 12.6257 36.8287L12.6258 36.8285ZM18.4753 23.1822C18.6125 23.0041 18.6851 22.8987 18.7657 22.7934C19.8227 21.449 20.8796 20.1047 21.9365 18.7522C22.2432 18.3634 22.5497 17.9666 22.7434 17.4969C22.9693 16.9623 22.7272 16.4603 22.1786 16.2659C21.9365 16.193 21.6784 16.1606 21.4202 16.1767C19.984 16.1687 18.5399 16.1687 17.1036 16.1767C16.902 16.1767 16.7003 16.201 16.5066 16.2496C16.0549 16.3631 15.7804 16.8246 15.8934 17.2862C15.9741 17.5941 16.2162 17.8369 16.5228 17.9098C16.7165 17.9584 16.9182 17.9827 17.1198 17.9746C17.9913 17.9827 18.8706 17.9746 19.742 17.9827C19.8389 17.9827 19.9599 17.9178 20.0325 18.0636C19.9599 18.1608 19.8873 18.258 19.8147 18.3472C18.5641 19.9344 17.3215 21.5299 16.0709 23.1174C15.7642 23.5142 15.603 23.9515 15.8288 24.4375C16.0547 24.9235 16.5147 25.0125 16.9826 25.045C17.3537 25.0693 17.733 25.053 18.1122 25.053C19.4192 25.053 20.7182 25.0611 22.0254 25.045C22.7192 25.0369 23.0903 24.6158 23.0177 23.9678C22.9612 23.4575 22.6143 23.1903 21.9688 23.1822C20.8312 23.1742 19.6935 23.1822 18.4753 23.1822ZM27.8345 18.9223C26.826 18.0395 25.7125 17.9828 24.6234 18.6307C23.3001 19.4082 22.816 20.6796 22.9774 22.1536C23.1307 23.5304 23.7278 24.6562 25.1639 25.1177C26.0596 25.4093 26.8905 25.304 27.6247 24.7046C27.8184 24.5508 27.8748 24.5832 28.012 24.7532C28.2783 25.0934 28.7382 25.223 29.1416 25.0691C29.5449 24.9476 29.8112 24.5751 29.8112 24.154C29.8192 22.5342 29.8274 20.9144 29.8112 19.2948C29.8032 18.6469 29.198 18.2339 28.5686 18.3634C28.2217 18.4363 28.0281 18.6712 27.8344 18.9223H27.8345ZM33.4259 21.9269C33.3936 23.9515 35.0638 25.4822 37.1615 25.2717C39.0898 25.0773 40.3404 23.6276 40.2758 21.5787C40.2112 19.554 38.7105 18.1692 36.6531 18.2339C34.7247 18.2905 33.3613 19.8455 33.4257 21.9269H33.4259ZM32.7159 20.3152C32.7159 19.0436 32.7239 17.7803 32.7159 16.5087C32.7159 15.8608 32.3043 15.4558 31.6912 15.464C31.0941 15.4721 30.6988 15.8771 30.6907 16.5006C30.6826 16.8812 30.6907 17.2539 30.6907 17.6345V24.0729C30.6907 24.575 30.9972 25.0123 31.4007 25.1176C31.9574 25.2714 32.5302 24.9394 32.6755 24.3806C32.6997 24.2834 32.7159 24.1862 32.7077 24.0809C32.7239 22.8256 32.7157 21.5703 32.7157 20.315L32.7159 20.3152Z" fill="#FDFEFE"/>
<path d="M17.2149 41.3067C15.0122 41.3067 12.8015 41.3796 10.5989 41.2986C7.99283 41.1934 6 38.9987 6 36.3827C6 27.9357 6.01619 19.4887 6 11.0337C6 8.14234 8.25109 6.12574 10.8409 6.05285C13.5519 5.97995 16.2708 6.0366 18.9899 6.0366C19.0383 6.0366 19.1029 6.0123 19.1271 6.09324C19.1109 6.23903 18.9657 6.25528 18.877 6.31193C17.2795 7.25136 15.8191 8.37713 14.5927 9.77002C12.5675 12.07 11.1636 14.7103 10.6877 17.7796C9.84859 23.1977 11.5349 27.7978 15.3511 31.6366C16.0289 32.325 16.1176 32.8596 15.577 33.7827C14.9234 34.8923 13.9311 35.6455 12.8741 36.3339C12.7611 36.3988 12.6483 36.4797 12.5352 36.5526C12.3658 36.6984 12.4706 36.7713 12.6159 36.8361C12.6481 36.909 12.6885 36.9739 12.7369 37.0386C13.6648 37.8647 14.5443 38.7473 15.456 39.5897C15.8835 39.9865 16.3112 40.3996 16.7227 40.8127C16.8922 40.9665 17.1745 41.0151 17.2149 41.3067Z" fill="#0068FF"/>
<path d="M17.2142 41.3059C17.1738 41.0223 16.8915 40.9739 16.7221 40.8038C16.3106 40.3827 15.883 39.9777 15.4553 39.5808C14.5436 38.7386 13.6641 37.8558 12.7363 37.0297C12.6879 36.9648 12.6475 36.9001 12.6152 36.8272C14.6727 37.2321 16.6817 36.9568 18.6583 36.3495C19.328 36.147 19.9977 35.9446 20.6754 35.7745C21.1353 35.653 21.6193 35.6773 22.0632 35.8394C27.1785 37.6049 32.2292 37.4429 37.1993 35.2562C39.2245 34.3572 41.0721 33.0938 42.6373 31.5146C42.718 31.4336 42.7746 31.3122 42.9198 31.304C42.9924 31.4174 42.952 31.5389 42.952 31.6602V36.3979C42.9682 39.1029 40.8059 41.3057 38.1111 41.33H38.0707C35.1662 41.3463 32.2615 41.33 29.357 41.33H17.6984C17.5369 41.3138 17.3757 41.3057 17.2142 41.3057V41.3059Z" fill="#0049B3"/>
<path d="M18.4726 23.183C19.691 23.183 20.8366 23.175 21.9743 23.183C22.6117 23.1911 22.9586 23.4584 23.0232 23.9686C23.0958 24.6084 22.7247 25.0376 22.0309 25.0458C20.7239 25.062 19.4248 25.0538 18.1177 25.0538C17.7385 25.0538 17.3673 25.0701 16.9881 25.0458C16.5202 25.0215 16.0602 24.9243 15.8344 24.4383C15.6085 23.9524 15.7698 23.5152 16.0764 23.1182C17.319 21.5309 18.5696 19.9354 19.8202 18.348C19.8928 18.2508 19.9654 18.1536 20.038 18.0645C19.9574 17.9267 19.8444 17.9916 19.7476 17.9835C18.8761 17.9755 17.9968 17.9835 17.1253 17.9755C16.9237 17.9755 16.722 17.9512 16.5283 17.9106C16.0684 17.8054 15.7861 17.3437 15.8909 16.8903C15.9636 16.5824 16.2056 16.3314 16.5122 16.2585C16.7058 16.2099 16.9075 16.1856 17.1092 16.1856C18.5454 16.1776 19.9895 16.1776 21.4257 16.1856C21.684 16.1776 21.934 16.2099 22.1841 16.2747C22.7327 16.4611 22.9668 16.9712 22.7489 17.5058C22.5553 17.9674 22.2487 18.3642 21.9421 18.7611C20.8851 20.1136 19.8282 21.458 18.7713 22.7943C18.6825 22.8995 18.6018 23.0049 18.4728 23.183H18.4726Z" fill="#0068FF"/>
<path d="M27.8327 18.9217C28.0264 18.6707 28.2281 18.4358 28.5589 18.3711C29.1963 18.2415 29.7933 18.6546 29.8015 19.3024C29.8257 20.9222 29.8177 22.542 29.8015 24.1616C29.8015 24.5828 29.5272 24.9553 29.1319 25.0768C28.7285 25.2306 28.2686 25.1091 28.0023 24.7609C27.8651 24.5908 27.8087 24.5585 27.615 24.7123C26.8808 25.3115 26.0497 25.4169 25.1542 25.1254C23.718 24.6556 23.129 23.5299 22.9677 22.1613C22.7983 20.6792 23.2905 19.4159 24.6137 18.6383C25.711 17.9823 26.8244 18.0391 27.8329 18.9219L27.8327 18.9217ZM24.9766 21.8778C24.9928 22.234 25.1057 22.5742 25.3155 22.8577C25.7512 23.4409 26.5823 23.5624 27.1713 23.125C27.2681 23.0521 27.3569 22.963 27.4375 22.8577C27.8893 22.2422 27.8893 21.2299 27.4375 20.6144C27.2117 20.2985 26.8566 20.1123 26.4774 20.1041C25.59 20.0475 24.9686 20.7359 24.9768 21.8778H24.9766ZM33.4241 21.9263C33.3595 19.8449 34.7231 18.29 36.6595 18.2333C38.7169 18.1685 40.2176 19.5535 40.2822 21.5781C40.3468 23.6271 39.0962 25.0768 37.1678 25.2712C35.062 25.4818 33.3918 23.951 33.4241 21.9263ZM35.4493 21.732C35.4331 22.1368 35.5541 22.5338 35.7962 22.8658C36.2399 23.4489 37.071 23.5622 37.6519 23.1088C37.7407 23.0439 37.8134 22.963 37.886 22.882C38.3539 22.2665 38.3539 21.2299 37.894 20.6144C37.6681 20.3066 37.313 20.1123 36.9339 20.1041C36.0625 20.0555 35.4493 20.7196 35.4493 21.732ZM32.714 20.3146C32.714 21.5699 32.7221 22.8252 32.714 24.0805C32.7221 24.6555 32.2703 25.1334 31.6975 25.1495C31.6007 25.1495 31.4958 25.1415 31.399 25.1172C30.9957 25.0119 30.689 24.5826 30.689 24.0725V17.6341C30.689 17.2535 30.681 16.8808 30.689 16.5002C30.697 15.8767 31.0923 15.4717 31.6895 15.4717C32.3027 15.4636 32.7142 15.8685 32.7142 16.5163C32.7222 17.7797 32.7142 19.0513 32.7142 20.3146H32.714Z" fill="#0068FF"/>
<path d="M24.9766 21.8776C24.9686 20.7357 25.5898 20.0473 26.4693 20.0959C26.8484 20.1122 27.2035 20.2984 27.4294 20.6142C27.8812 21.2217 27.8812 22.2421 27.4294 22.8576C26.9937 23.4407 26.1626 23.5622 25.5736 23.1248C25.4768 23.052 25.388 22.9628 25.3074 22.8576C25.1057 22.574 24.9927 22.234 24.9766 21.8776ZM35.4493 21.7318C35.4493 20.7275 36.0625 20.0554 36.9339 20.104C37.3131 20.112 37.6681 20.3064 37.894 20.6142C38.354 21.2297 38.354 22.2744 37.886 22.8819C37.4342 23.4568 36.595 23.554 36.0222 23.1005C35.9334 23.0357 35.8608 22.9548 35.7964 22.8656C35.5543 22.5336 35.4414 22.1367 35.4494 21.7318H35.4493Z" fill="#FDFEFE"/>
<path d="M11.2835 6.06213H37.7555C40.652 6.06213 42.9999 8.41891 42.9999 11.3263V35.8656C42.9999 38.773 40.652 41.1298 37.7555 41.1298H11.2835C8.38698 41.1298 6.03906 38.773 6.03906 35.8656V11.3263C6.03921 8.41891 8.38698 6.06213 11.2835 6.06213Z" stroke="#0068FF" stroke-miterlimit="54.33"/>
</svg>
