<svg width="15" height="18" viewBox="0 0 15 18" fill="none" xmlns="http://www.w3.org/2000/svg">
<g clip-path="url(#clip0_339_1585)">
<path d="M7.50034 5.64053C7.70926 5.64053 7.88832 5.46128 7.88832 5.24916V2.60817C7.88832 2.39904 7.70926 2.2168 7.50034 2.2168C7.29143 2.2168 7.10938 2.39605 7.10938 2.60817V5.24916C7.13922 5.45829 7.28844 5.64053 7.50034 5.64053Z" fill="black"/>
<path d="M6.42285 12.5716C6.27362 12.4223 6.03188 12.4223 5.88265 12.5716C5.46184 12.963 5.25293 13.5008 5.25293 14.0714C5.25293 15.1827 6.1811 16.1119 7.29133 16.1119C8.4314 16.1418 9.38942 15.2126 9.38942 14.0415C9.38942 13.8324 9.21035 13.6501 8.99845 13.6501C8.78655 13.6501 8.60749 13.8294 8.60749 14.0415C8.60749 14.7615 8.00761 15.362 7.28835 15.362C6.56909 15.362 5.99905 14.7615 5.99905 14.0415C5.99905 13.683 6.14827 13.3215 6.41986 13.0825C6.53924 12.963 6.56909 12.724 6.41986 12.5716H6.42285Z" fill="black"/>
<path d="M12.5645 10.5909V9.38988H14.6328C14.9014 9.38988 15.0834 9.121 14.9611 8.879L11.2155 0.239004C11.1559 0.0896266 11.0365 0 10.8873 0H4.14233C3.9931 0 3.87372 0.0896266 3.81403 0.239004L0.0386666 8.84913C-0.0807126 9.08813 0.0983562 9.36 0.36696 9.36H5.67038C5.58085 10.08 5.24957 10.8 4.77205 11.2511C3.9931 12.001 3.54245 13.0198 3.57229 14.1012C3.60214 16.2314 5.3391 18 7.49987 18C8.51758 18 9.50842 17.6086 10.2277 16.8886C11.8453 15.2993 11.7557 12.7479 10.168 11.2481C9.68749 10.797 9.38904 10.1069 9.29951 9.38689H11.8184V10.5879C11.4901 10.7373 11.2484 11.0689 11.2484 11.4573C11.2484 11.9681 11.6692 12.3864 12.1766 12.3864C12.6839 12.3864 13.1047 11.9651 13.1047 11.4573C13.1346 11.036 12.8958 10.7074 12.5645 10.5879V10.5909ZM8.78916 0.749876L10.1978 7.59137C10.2277 7.8005 10.4366 7.92 10.6485 7.89012C10.8574 7.86025 10.9768 7.65112 10.9469 7.439L9.56812 0.779751H10.6485L14.0657 8.66988H4.26469L6.21057 0.779751H8.78916V0.749876ZM4.38407 0.749876H5.43162L3.48276 8.64H0.96684L4.38407 0.749876ZM9.65765 11.7889C10.2874 12.3894 10.6455 13.199 10.6455 14.0983C10.6455 15.8669 9.20699 17.277 7.43719 17.2471C5.73007 17.2173 4.35124 15.8071 4.3214 14.0983C4.3214 13.2289 4.64969 12.3894 5.30926 11.7889C5.93899 11.1884 6.35681 10.2593 6.41949 9.36H8.51758C8.63696 10.2891 9.05777 11.2212 9.65765 11.7889ZM12.1766 11.6395C12.087 11.6395 11.9975 11.5499 11.9975 11.4602C11.9975 11.3706 12.087 11.281 12.1766 11.281C12.2661 11.281 12.3556 11.3706 12.3556 11.4602C12.3556 11.5499 12.2959 11.6395 12.1766 11.6395Z" fill="black"/>
</g>
<defs>
<clipPath id="clip0_339_1585">
<rect width="15" height="18" fill="white"/>
</clipPath>
</defs>
</svg>
