<svg width="24" height="24" viewBox="0 0 24 24" fill="none" xmlns="http://www.w3.org/2000/svg">
<g clip-path="url(#clip0_261_3979)">
<path d="M8 17C8 15.9391 8.42143 14.9217 9.17157 14.1715C9.92172 13.4214 10.9391 13 12 13C13.0609 13 14.0783 13.4214 14.8284 14.1715C15.5786 14.9217 16 15.9391 16 17M3 17H4H3ZM20 17H21H20ZM5.6 10.6L6.3 11.3L5.6 10.6ZM18.4 10.6L17.7 11.3L18.4 10.6Z" stroke="black" stroke-width="2" stroke-linecap="round" stroke-linejoin="round"/>
<path d="M3 21H21" stroke="black" stroke-width="2" stroke-linecap="round" stroke-linejoin="round"/>
<path d="M9 6L12 9M12 3V9L15 6L12 3Z" stroke="black" stroke-width="2" stroke-linecap="round" stroke-linejoin="round"/>
</g>
<defs>
<clipPath id="clip0_261_3979">
<rect width="24" height="24" fill="white"/>
</clipPath>
</defs>
</svg>
