<svg width="317" height="48" viewBox="0 0 317 48" fill="none" xmlns="http://www.w3.org/2000/svg">
<path d="M43.1756 16.5341H35.4729V36.1287H43.1756V26.539C43.4459 26.6821 50.8783 36.1287 50.8783 36.1287H58.4459V16.6773H50.8783V26.4102L43.1756 16.5341Z" fill="#97282B"/>
<path d="M209.579 25.0181H220.881C221.178 27.6326 220.45 30.2755 218.86 32.3042C214.28 38.3045 204.46 38.3045 200.014 32.3042C197.145 28.7183 197.32 23.4038 200.418 20.0322C205.47 14.9177 213.405 14.9177 218.456 20.0322L219.803 21.7466L213.472 24.0324C213.203 24.1753 212.798 23.8895 212.529 23.6038C210.724 22.0323 208.07 22.218 206.467 24.0324C206.022 24.6181 205.699 25.3039 205.524 26.0325C205.214 28.4469 206.804 30.6898 209.094 31.0184C209.121 31.0184 209.134 31.0184 209.161 31.0184C210.603 31.1327 212.017 30.4898 212.933 29.3041H209.431V25.0181H209.565H209.579Z" fill="#97282B"/>
<path d="M131.081 16.5341H138.608V30.2604H146.284V36.1287H131.081V16.5341Z" fill="#97282B"/>
<path d="M168.041 19.3946C163.218 15.292 156.394 15.1216 151.397 18.9687C149.14 20.7574 147.756 23.5115 147.635 26.4926C147.635 29.4738 148.979 32.2704 151.262 34.0165C156.206 37.8353 162.95 37.7217 167.772 33.7326C172.34 29.7577 172.474 23.3837 168.041 19.4088M158.234 30.0275C156.354 29.6016 155.145 27.6425 155.548 25.6551C155.548 25.6551 155.548 25.6409 155.548 25.6267C156.112 23.6534 157.899 22.3474 159.847 22.5035C161.848 22.6597 163.353 24.491 163.205 26.592C163.205 26.592 163.205 26.592 163.205 26.6062C163.138 28.6362 161.526 30.2404 159.591 30.1552C159.538 30.1552 159.497 30.1552 159.443 30.1552H158.234" fill="#97282B"/>
<path d="M115.999 17.3867V16.5341H106.905L104.597 24.9176L104.19 26.3385L102.561 20.2286L101.747 17.2446C101.747 17.1025 101.747 16.9604 101.611 16.9604V16.5341H92.6521L90.616 27.0348C90.3446 28.1716 90.2088 29.3083 89.9373 30.5871L88.8514 36.1287H96.4528V35.5604C96.5885 35.2762 96.5885 34.8499 96.7243 34.5657V33.9974L97.5387 30.0188C97.8102 28.882 97.8102 27.8874 98.0817 26.7506C99.2083 29.0667 100.118 31.4965 100.796 33.9974L101.475 36.1287H106.769L107.04 35.4183C107.855 32.7185 108.805 30.1608 109.619 27.4611L110.027 26.4664C110.176 26.779 110.271 27.1201 110.298 27.4611L111.927 35.4183V36.1287H119.257C119.257 35.9867 116.814 23.4967 115.592 17.5288" fill="#97282B"/>
<path d="M69.3247 16.8163L61.4118 34.0127L60.473 36.1287H69.1906L70.1294 33.7306H77.2376L78.0423 35.4234L78.3105 35.9877H87.1622C87.1622 35.7055 78.1764 16.5341 78.1764 16.5341L69.3247 16.8163ZM71.7388 29.0753L73.7506 23.2914L75.7623 29.0753H71.7388Z" fill="#97282B"/>
<path d="M188.223 16.5341V26.1965L181.699 17.813L181.167 17.1025L180.767 16.5341H173.311V36.1287H180.9V26.3243L181.699 27.319L187.957 35.5604L188.49 36.1287H195.946V16.5341H188.223Z" fill="#97282B"/>
<path d="M26.6853 26.4444L23.0485 24.4081L22.7643 24.2384L23.1053 24.0687C24.2986 23.39 25.492 22.7112 26.7421 22.089C26.8955 22.0155 26.9865 21.8571 26.9694 21.6931V17.0605C26.9694 16.8965 26.8842 16.7438 26.7421 16.6646L22.5427 14.402C22.412 14.2889 22.2188 14.2889 22.0881 14.402L18.3944 16.4383L18.0535 16.608V12.3149C18.1046 12.0829 17.9853 11.851 17.7694 11.7492L13.6836 9.54324H13.2858L0 16.8908V31.8123L0.909208 32.2648L13.1153 39.0467L13.3995 39.273H13.5131L13.8541 39.0467L26.7421 31.8688C26.924 31.7953 27.0376 31.6143 27.0262 31.4163V26.8403C26.9751 26.665 26.8501 26.5179 26.6853 26.4444ZM25.8897 26.8969L13.5131 33.7354C13.2858 33.8485 13.229 33.9617 13.229 34.2445V38.5376L12.9449 38.4245L0.795559 31.6426C0.568257 31.586 0.420509 31.3654 0.454604 31.1335V17.3999C0.403461 17.1963 0.500066 16.987 0.681907 16.8908H0.738732L13.1722 9.99575C13.3199 9.87131 13.5359 9.87131 13.6836 9.99575L17.3773 11.9755C17.5307 12.049 17.6216 12.2074 17.6046 12.3714V17.3433L19.423 16.3818L22.1506 14.9111H22.4916L26.1852 16.8908H26.2989L26.0716 17.0605L13.5245 24.0122C13.2404 24.0687 13.1835 24.1819 13.1835 24.4081V28.7578L12.8426 28.5881L9.48987 26.7216C9.2853 26.6424 9.16597 26.4274 9.20574 26.2125V16.5515L8.92162 16.6646L4.4949 19.1534C4.38125 19.1534 4.2676 19.3231 4.2676 19.4362V29.5554L4.55173 29.4423L8.63749 27.1232C8.78524 26.9987 9.00117 26.9987 9.14892 27.1232L12.9562 29.2726C13.1779 29.4309 13.4733 29.4309 13.695 29.2726L21.9858 24.6966C22.1336 24.5721 22.3495 24.5721 22.4972 24.6966L25.7931 26.5632L26.1341 26.7894C26.1341 26.7329 26.0204 26.7894 25.9068 26.9026" fill="#97282B"/>
<path d="M296.166 48C293.428 48 292.058 46.8757 292.058 44.627C292.058 43.5604 292.433 42.609 293.183 41.773C293.932 40.9369 294.826 40.2162 295.864 39.6108C297.305 38.7459 298.718 38.0541 300.102 37.5351C301.485 37.0162 302.811 36.555 304.08 36.1514C305.348 35.7766 306.53 35.3586 307.626 34.8973C307.885 34.1477 308.102 33.3261 308.275 32.4324C308.447 31.5099 308.577 30.6162 308.664 29.7514C308.75 28.8865 308.793 28.1369 308.793 27.5027C308.793 26.8396 308.75 26.4072 308.664 26.2054C308.347 26.8108 307.914 27.5604 307.366 28.4541C306.848 29.3477 306.228 30.2414 305.507 31.1351C304.815 32 304.08 32.7207 303.302 33.2973C302.523 33.8739 301.73 34.1622 300.923 34.1622C300.635 34.1622 300.361 34.1189 300.102 34.0324C299.294 33.6865 298.703 33.1964 298.329 32.5622C297.983 31.9279 297.81 31.2072 297.81 30.4C297.81 29.1027 298.184 27.7045 298.934 26.2054C299.684 24.7063 300.577 23.3369 301.615 22.0973C302.451 21.0883 303.431 20.2811 304.556 19.6757C305.68 19.0703 306.819 18.7676 307.972 18.7676C309.298 18.7676 310.538 19.2144 311.691 20.1081C312.123 20.4541 312.339 20.8288 312.339 21.2324C312.339 21.6649 312.166 21.8811 311.82 21.8811C311.532 21.8811 311.33 21.6937 311.215 21.3189C310.811 20.2523 310.163 19.7189 309.269 19.7189C308.548 19.7189 307.727 20.036 306.804 20.6703C305.882 21.2757 305.017 22.0396 304.21 22.9622C303.518 23.7405 302.84 24.6342 302.177 25.6432C301.543 26.6523 301.01 27.6468 300.577 28.627C300.174 29.6072 299.972 30.4577 299.972 31.1784C299.972 31.6685 300.087 32.0865 300.318 32.4324C300.548 32.7784 300.909 32.9514 301.399 32.9514C302.062 32.9514 302.754 32.6342 303.475 32C304.224 31.3658 304.93 30.5874 305.593 29.6649C306.285 28.7423 306.876 27.8054 307.366 26.8541C307.885 25.9027 308.246 25.1099 308.447 24.4757C308.649 23.8126 308.923 23.409 309.269 23.2649C309.615 23.0919 309.961 23.0054 310.307 23.0054C310.653 23.0054 310.941 22.9189 311.172 22.7459C311.287 23.3802 311.359 24.0288 311.388 24.6919C311.446 25.3261 311.475 25.9748 311.475 26.6378C311.475 27.964 311.388 29.1748 311.215 30.2703C311.071 31.3658 310.811 32.5333 310.437 33.773C311.475 33.1387 312.368 32.3459 313.118 31.3946C313.896 30.4144 314.53 29.4342 315.02 28.4541C315.539 27.445 315.957 26.5802 316.275 25.8595C316.62 25.8595 316.793 25.9892 316.793 26.2486C316.419 27.027 315.943 27.9784 315.366 29.1027C314.819 30.227 314.112 31.3225 313.247 32.3892C312.411 33.427 311.359 34.2342 310.091 34.8108C309.601 36.1946 308.894 37.6505 307.972 39.1784C307.078 40.7063 306.011 42.1333 304.772 43.4595C303.532 44.8144 302.177 45.9099 300.707 46.7459C299.237 47.582 297.723 48 296.166 48ZM295.129 47.1351C295.763 47.1351 296.426 46.991 297.118 46.7027C297.838 46.4432 298.516 46.1261 299.15 45.7514C299.784 45.3766 300.275 45.0595 300.62 44.8C301.284 44.2811 301.961 43.6324 302.653 42.8541C303.345 42.0757 303.95 41.3261 304.469 40.6054C304.959 39.9135 305.464 39.1784 305.983 38.4C306.502 37.6505 306.92 36.9009 307.237 36.1514L305.464 36.7135C304.512 37.0018 303.46 37.3478 302.307 37.7514C301.183 38.1838 300.058 38.6595 298.934 39.1784C297.81 39.6973 296.786 40.2595 295.864 40.8649C295.057 41.4126 294.393 42.1333 293.875 43.027C293.327 43.9207 293.053 44.6991 293.053 45.3622C293.053 45.8523 293.226 46.2703 293.572 46.6162C293.889 46.9622 294.408 47.1351 295.129 47.1351Z" fill="#961212"/>
<path d="M280.539 34.5514C281.577 32.4468 282.572 30.3712 283.523 28.3243C284.475 26.2486 285.455 24.2739 286.464 22.4C287.04 21.3622 287.53 20.6414 287.934 20.2378C288.338 19.8054 288.871 19.5892 289.534 19.5892C289.765 19.5892 290.01 19.6324 290.269 19.7189C290.529 19.7766 290.788 19.8054 291.047 19.8054C291.22 19.8054 291.35 19.791 291.437 19.7622C291.033 19.9928 290.5 20.5694 289.837 21.4919C289.202 22.3856 288.554 23.4234 287.891 24.6054C287.228 25.7874 286.637 26.8973 286.118 27.9351C286.666 27.2721 287.242 26.609 287.847 25.9459C288.453 25.2829 289.116 24.6486 289.837 24.0432C290.529 23.4378 291.35 22.818 292.302 22.1838C293.282 21.5207 294.233 20.973 295.156 20.5405C296.078 20.1081 296.813 19.8919 297.361 19.8919C297.563 19.8919 297.707 19.9063 297.793 19.9351C297.793 19.9351 297.635 20.2234 297.318 20.8C297.001 21.3477 296.597 22.0829 296.107 23.0054C295.646 23.8991 295.17 24.8649 294.68 25.9027C294.19 26.9117 293.743 27.8919 293.339 28.8432C292.965 29.7658 292.72 30.5441 292.604 31.1784C292.518 31.5532 292.475 31.8991 292.475 32.2162C292.475 32.6775 292.561 32.9802 292.734 33.1243C292.907 33.2685 293.094 33.3405 293.296 33.3405C293.844 33.3405 294.406 33.0955 294.983 32.6054C295.559 32.1153 296.107 31.4955 296.626 30.7459C297.174 29.9676 297.678 29.1459 298.139 28.2811C298.601 27.4162 298.99 26.609 299.307 25.8595C299.653 25.8595 299.826 25.9892 299.826 26.2486C299.509 27.027 299.105 27.8919 298.615 28.8432C298.154 29.7658 297.62 30.645 297.015 31.4811C296.438 32.3171 295.79 33.009 295.069 33.5568C294.348 34.1045 293.57 34.3784 292.734 34.3784C292.157 34.3784 291.552 34.1766 290.918 33.773C290.312 33.3694 290.01 32.6198 290.01 31.5243C290.01 31.2072 290.038 30.8757 290.096 30.5297C290.154 30.155 290.255 29.7514 290.399 29.3189C290.629 28.7423 290.903 28.1225 291.22 27.4595C291.538 26.7964 292.057 25.8883 292.777 24.7351C292.979 24.418 293.094 24.173 293.123 24C293.181 23.827 293.21 23.6829 293.21 23.5676C293.21 23.2216 293.051 23.0486 292.734 23.0486C292.475 23.0486 292.085 23.1928 291.566 23.4811C291.076 23.7694 290.457 24.2739 289.707 24.9946C288.986 25.6865 288.121 26.6667 287.112 27.9351C286.132 29.2036 284.993 31.0775 283.696 33.5568C283.494 33.9315 283.264 34.1333 283.004 34.1622C282.774 34.191 282.442 34.2198 282.01 34.2486C281.721 34.2775 281.447 34.2919 281.188 34.2919C280.929 34.3207 280.712 34.4072 280.539 34.5514Z" fill="#961212"/>
<path d="M278.452 34.2054C277.386 34.2054 276.636 33.9027 276.204 33.2973C275.771 32.6631 275.555 31.9423 275.555 31.1351C275.555 30.7027 275.598 30.2703 275.685 29.8378C275.8 29.3766 275.93 28.9586 276.074 28.5838L278.971 21.1892C279.058 20.9586 279.101 20.7568 279.101 20.5838C279.101 20.2955 279.029 20.0505 278.885 19.8486C278.741 19.618 278.64 19.4595 278.582 19.373L280.96 19.2865C281.393 19.2577 281.695 19.3153 281.868 19.4595C282.07 19.5748 282.171 19.7189 282.171 19.8919C282.171 20.0649 282.07 20.382 281.868 20.8432C281.58 21.5351 281.191 22.4 280.701 23.4378C280.211 24.4757 279.721 25.5423 279.231 26.6378C278.769 27.7333 278.366 28.7568 278.02 29.7081C277.703 30.6595 277.544 31.3946 277.544 31.9135C277.544 32.2883 277.631 32.6054 277.804 32.8649C278.005 33.1243 278.337 33.2541 278.798 33.2541C279.404 33.2541 279.995 33.0234 280.571 32.5622C281.177 32.0721 281.739 31.4523 282.258 30.7027C282.777 29.9532 283.252 29.1459 283.685 28.2811C284.146 27.4162 284.535 26.609 284.852 25.8595C285.198 25.8595 285.371 25.9892 285.371 26.2486C285.083 26.9694 284.708 27.791 284.247 28.7135C283.786 29.636 283.252 30.5153 282.647 31.3514C282.07 32.1586 281.422 32.836 280.701 33.3838C280.009 33.9315 279.259 34.2054 278.452 34.2054ZM282.301 16.6054C281.926 16.6054 281.595 16.4613 281.306 16.173C281.047 15.8847 280.917 15.5387 280.917 15.1351C280.917 14.645 281.119 14.2126 281.522 13.8378C281.926 13.4342 282.373 13.2324 282.863 13.2324C283.267 13.2324 283.613 13.3622 283.901 13.6216C284.189 13.8811 284.333 14.2126 284.333 14.6162C284.333 15.1351 284.131 15.5964 283.728 16C283.324 16.4036 282.849 16.6054 282.301 16.6054Z" fill="#961212"/>
<path d="M265.476 34.5081C264.582 34.5081 263.962 34.2775 263.616 33.8162C263.27 33.355 263.097 32.764 263.097 32.0432C263.097 31.2937 263.227 30.4432 263.487 29.4919C263.746 28.5405 264.092 27.4739 264.525 26.2919C264.207 26.2919 264.049 26.1477 264.049 25.8595C264.279 25.2829 264.525 24.6342 264.784 23.9135C265.072 23.164 265.216 22.3279 265.216 21.4054C265.216 20.9441 265.159 20.555 265.043 20.2378C264.928 19.9207 264.755 19.7333 264.525 19.6757C264.525 19.6757 264.669 19.6468 264.957 19.5892C265.274 19.5315 265.606 19.4739 265.952 19.4162C266.297 19.3586 266.528 19.3297 266.643 19.3297C266.816 19.3009 266.975 19.2865 267.119 19.2865C267.263 19.2577 267.393 19.2432 267.508 19.2432C267.797 19.2432 267.984 19.3586 268.07 19.5892C268.186 19.8198 268.229 20.3243 268.2 21.1027C268.171 21.8234 268.027 22.7027 267.768 23.7405C267.508 24.7496 267.234 25.6288 266.946 26.3784C266.571 27.3586 266.225 28.3532 265.908 29.3622C265.591 30.3712 265.433 31.2072 265.433 31.8703C265.433 32.4468 265.591 32.8216 265.908 32.9946C266.139 33.0811 266.341 33.1243 266.514 33.1243C267.177 33.1243 267.825 32.8072 268.46 32.173C269.094 31.5387 269.685 30.7748 270.233 29.8811C270.809 28.9586 271.285 28.0793 271.66 27.2432C271.487 26.5802 271.4 25.7874 271.4 24.8649C271.4 23.8847 271.516 22.8901 271.746 21.8811C271.977 20.8721 272.337 20.036 272.827 19.373C273.317 18.6811 273.952 18.3351 274.73 18.3351C275.278 18.3351 275.552 18.5802 275.552 19.0703C275.552 19.1856 275.407 19.6757 275.119 20.5405C274.86 21.4054 274.514 22.4288 274.081 23.6108C273.649 24.7928 273.188 25.9315 272.697 27.027C272.582 27.2577 272.481 27.4883 272.395 27.7189C272.51 28.209 272.726 28.6126 273.043 28.9297C273.361 29.218 273.75 29.3622 274.211 29.3622C274.788 29.3622 275.321 29.1027 275.811 28.5838C276.33 28.036 276.863 27.1279 277.411 25.8595C277.757 25.8595 277.93 25.9892 277.93 26.2486C277.469 27.4018 276.907 28.3243 276.243 29.0162C275.609 29.7081 274.888 30.0541 274.081 30.0541C273.101 30.0541 272.395 29.5495 271.962 28.5405C271.472 29.5495 270.896 30.5153 270.233 31.4378C269.57 32.3315 268.834 33.0667 268.027 33.6432C267.249 34.2198 266.398 34.5081 265.476 34.5081Z" fill="#961212"/>
<path d="M257.81 34.2054C256.744 34.2054 255.994 33.9027 255.562 33.2973C255.129 32.6631 254.913 31.9423 254.913 31.1351C254.913 30.7027 254.956 30.2703 255.043 29.8378C255.158 29.3766 255.288 28.9586 255.432 28.5838L258.329 21.1892C258.416 20.9586 258.459 20.7568 258.459 20.5838C258.459 20.2955 258.387 20.0505 258.243 19.8486C258.099 19.618 257.998 19.4595 257.94 19.373L260.318 19.2865C260.751 19.2577 261.054 19.3153 261.227 19.4595C261.428 19.5748 261.529 19.7189 261.529 19.8919C261.529 20.0649 261.428 20.382 261.227 20.8432C260.938 21.5351 260.549 22.4 260.059 23.4378C259.569 24.4757 259.079 25.5423 258.589 26.6378C258.127 27.7333 257.724 28.7568 257.378 29.7081C257.061 30.6595 256.902 31.3946 256.902 31.9135C256.902 32.2883 256.989 32.6054 257.162 32.8649C257.363 33.1243 257.695 33.2541 258.156 33.2541C258.762 33.2541 259.353 33.0234 259.929 32.5622C260.535 32.0721 261.097 31.4523 261.616 30.7027C262.135 29.9532 262.61 29.1459 263.043 28.2811C263.504 27.4162 263.893 26.609 264.21 25.8595C264.556 25.8595 264.729 25.9892 264.729 26.2486C264.441 26.9694 264.066 27.791 263.605 28.7135C263.144 29.636 262.61 30.5153 262.005 31.3514C261.428 32.1586 260.78 32.836 260.059 33.3838C259.367 33.9315 258.618 34.2054 257.81 34.2054ZM261.659 16.6054C261.284 16.6054 260.953 16.4613 260.664 16.173C260.405 15.8847 260.275 15.5387 260.275 15.1351C260.275 14.645 260.477 14.2126 260.881 13.8378C261.284 13.4342 261.731 13.2324 262.221 13.2324C262.625 13.2324 262.971 13.3622 263.259 13.6216C263.547 13.8811 263.691 14.2126 263.691 14.6162C263.691 15.1351 263.49 15.5964 263.086 16C262.682 16.4036 262.207 16.6054 261.659 16.6054Z" fill="#961212"/>
<path d="M255.432 47.6541C255.144 47.6541 254.957 47.5964 254.87 47.4811C254.784 47.3946 254.74 47.2937 254.74 47.1784C255.259 47.0919 255.764 46.7027 256.254 46.0108C256.744 45.3477 256.989 44.5694 256.989 43.6757C256.989 42.2631 256.528 40.8937 255.605 39.5676C254.683 38.2703 253.385 37.0739 251.713 35.9784C250.041 34.8829 248.081 33.9459 245.832 33.1676C243.612 32.3604 241.176 31.7694 238.524 31.3946C237.544 32.7784 236.434 34.0468 235.194 35.2C233.984 36.382 232.629 37.3189 231.13 38.0108C229.659 38.7315 228.059 39.0919 226.33 39.0919C224.513 39.0919 223.13 38.6739 222.178 37.8378C221.227 37.0018 220.751 36.036 220.751 34.9405C220.751 33.9315 221.155 32.9225 221.962 31.9135C222.798 30.8757 224.052 30.0252 225.724 29.3622C227.425 28.6703 229.573 28.3243 232.167 28.3243C234.157 28.3243 236.175 28.4973 238.221 28.8432C238.942 27.5748 239.591 26.3063 240.167 25.0378C240.744 23.7694 241.249 22.573 241.681 21.4486C238.827 21.3333 236.578 20.9009 234.935 20.1514C233.292 19.373 232.124 18.4072 231.432 17.2541C230.74 16.1009 230.394 14.9189 230.394 13.7081C230.394 12.1802 230.856 10.7387 231.778 9.38378C232.701 8 233.955 6.87567 235.54 6.01081C237.126 5.14595 238.899 4.71351 240.859 4.71351C241.09 4.71351 241.234 4.8 241.292 4.97297C241.349 5.14595 241.378 5.29009 241.378 5.40541C240.283 5.40541 239.216 5.65045 238.178 6.14054C237.169 6.63063 236.261 7.29369 235.454 8.12973C234.647 8.93694 233.998 9.84504 233.508 10.8541C233.047 11.8631 232.816 12.9009 232.816 13.9676C232.816 15.0054 233.09 16.0288 233.638 17.0378C234.185 18.018 235.122 18.8396 236.449 19.5027C237.775 20.1658 239.634 20.5261 242.027 20.5838C242.286 19.9207 242.503 19.3153 242.676 18.7676C242.877 18.191 243.05 17.7009 243.194 17.2973C243.886 15.2216 244.621 13.1604 245.4 11.1135C246.207 9.06667 247.115 7.20721 248.124 5.53513C249.162 3.86306 250.387 2.52252 251.8 1.51351C253.212 0.504504 254.899 0 256.859 0C258.128 0 259.108 0.36036 259.8 1.08108C260.521 1.8018 260.881 2.79639 260.881 4.06486C260.881 5.3045 260.593 6.67387 260.016 8.17297C259.44 9.64324 258.632 11.1135 257.594 12.5838C256.557 14.0541 255.331 15.4234 253.919 16.6919C252.506 17.9604 250.964 19.0126 249.292 19.8486C247.62 20.6847 245.861 21.2036 244.016 21.4054C243.584 22.3279 243.036 23.4955 242.373 24.9081C241.71 26.2919 240.917 27.7189 239.994 29.1892C242.503 29.7658 244.867 30.5441 247.086 31.5243C249.335 32.5045 251.31 33.6144 253.011 34.8541C254.74 36.1225 256.095 37.4631 257.076 38.8757C258.056 40.3171 258.546 41.7441 258.546 43.1568C258.546 44.4252 258.229 45.4919 257.594 46.3568C256.96 47.2216 256.24 47.6541 255.432 47.6541ZM256.859 2.20541C255.62 2.20541 254.452 2.75315 253.357 3.84865C252.261 4.91531 251.209 6.34234 250.2 8.12973C249.22 9.88829 248.254 11.8486 247.303 14.0108C246.351 16.173 245.4 18.3207 244.449 20.4541C246.149 20.2234 247.735 19.7045 249.205 18.8973C250.676 18.0901 252.016 17.1099 253.227 15.9568C254.438 14.7748 255.476 13.5207 256.34 12.1946C257.205 10.8685 257.868 9.57117 258.33 8.3027C258.791 7.0054 259.021 5.85225 259.021 4.84324C259.021 4.03604 258.849 3.4018 258.503 2.94054C258.157 2.45045 257.609 2.20541 256.859 2.20541ZM221.832 35.5459C221.832 36.2667 222.221 36.8865 223 37.4054C223.778 37.9532 224.888 38.227 226.33 38.227C228.463 38.227 230.394 37.5351 232.124 36.1514C233.854 34.7964 235.396 33.1387 236.751 31.1784C235.223 31.0342 233.695 30.9622 232.167 30.9622C229.803 30.9622 227.858 31.2072 226.33 31.6973C224.802 32.1586 223.663 32.7495 222.913 33.4703C222.193 34.1622 221.832 34.8541 221.832 35.5459Z" fill="#961212"/>
</svg>
