<svg width="565" height="86" viewBox="0 0 565 86" fill="none" xmlns="http://www.w3.org/2000/svg">
<path d="M77.0039 29.4886H63.2661V64.4355H77.0039V47.3322C77.4859 47.5875 90.7416 64.4355 90.7416 64.4355H104.238V29.7439H90.7416V47.1024L77.0039 29.4886Z" fill="white"/>
<path d="M373.784 44.6198H393.942C394.47 49.2826 393.173 53.9964 390.338 57.6145C382.169 68.316 364.654 68.316 356.725 57.6145C351.608 51.2191 351.92 41.7406 357.446 35.7274C366.456 26.6056 380.607 26.6056 389.617 35.7274L392.019 38.785L380.727 42.8617C380.247 43.1165 379.526 42.6069 379.045 42.0973C375.826 39.2946 371.093 39.6258 368.234 42.8617C367.441 43.9064 366.864 45.1294 366.552 46.4289C365.999 50.735 368.834 54.7353 372.919 55.3213C372.967 55.3213 372.991 55.3213 373.039 55.3213C375.61 55.5252 378.132 54.3785 379.766 52.2637H373.519V44.6198H373.76H373.784Z" fill="white"/>
<path d="M233.783 29.4886H247.208V53.9693H260.897V64.4355H233.783V29.4886Z" fill="white"/>
<path d="M299.701 34.5902C291.1 27.2732 278.929 26.9693 270.016 33.8307C265.991 37.0208 263.523 41.9326 263.307 47.2496C263.307 52.5665 265.703 57.5543 269.776 60.6684C278.593 67.4792 290.621 67.2766 299.222 60.1621C307.368 53.0729 307.608 41.7048 299.701 34.6156M282.211 53.5539C278.857 52.7944 276.7 49.3004 277.419 45.7558C277.419 45.7558 277.419 45.7304 277.419 45.7051C278.425 42.1858 281.612 39.8565 285.086 40.135C288.656 40.4135 291.339 43.6796 291.076 47.4268C291.076 47.4268 291.076 47.4268 291.076 47.4521C290.956 51.0727 288.081 53.9337 284.631 53.7818C284.535 53.7818 284.463 53.7818 284.367 53.7818H282.211" fill="white"/>
<path d="M206.884 31.0091V29.4886H190.664L186.549 44.4405L185.822 46.9747L182.917 36.0776L181.465 30.7557C181.465 30.5023 181.465 30.2488 181.223 30.2488V29.4886H165.245L161.613 48.2165C161.129 50.2439 160.887 52.2713 160.403 54.5521L158.466 64.4355H172.023V63.4218C172.265 62.915 172.265 62.1547 172.507 61.6479V60.6342L173.96 53.5384C174.444 51.511 174.444 49.737 174.928 47.7096C176.938 51.8404 178.56 56.1739 179.77 60.6342L180.981 64.4355H190.422L190.906 63.1684C192.359 58.3534 194.053 53.7918 195.506 48.9768L196.232 47.2028C196.499 47.7603 196.668 48.3685 196.716 48.9768L199.621 63.1684V64.4355H212.694C212.694 64.1821 208.337 41.9063 206.158 31.2625" fill="white"/>
<path d="M123.641 29.9918L109.528 60.6616L107.854 64.4355H123.402L125.076 60.1584H137.754L139.189 63.1775L139.667 64.1839H155.454C155.454 63.6807 139.428 29.4886 139.428 29.4886L123.641 29.9918ZM127.947 51.8556L131.534 41.5401L135.122 51.8556H127.947Z" fill="white"/>
<path d="M335.696 29.4886V46.7213L324.06 31.7694L323.11 30.5023L322.398 29.4886H309.1V64.4355H322.635V46.9494L324.06 48.7233L335.221 63.4218L336.171 64.4355H349.469V29.4886H335.696Z" fill="white"/>
<path d="M47.5932 47.1635L41.1069 43.5318L40.6001 43.2291L41.2082 42.9265C43.3366 41.7159 45.4649 40.5054 47.6945 39.3957C47.9682 39.2645 48.1303 38.9821 48.0999 38.6895V30.4274C48.0999 30.1348 47.9479 29.8624 47.6945 29.7212L40.2049 25.686C39.9718 25.4842 39.6272 25.4842 39.3941 25.686L32.8065 29.3177L32.1984 29.6203V21.9635C32.2896 21.5499 32.0768 21.1363 31.6916 20.9547L24.4047 17.0203H23.6952L0 30.1247V56.7371L1.62157 57.5441L23.3912 69.6397L23.8979 70.0433H24.1006L24.7087 69.6397L47.6945 56.838C48.0188 56.7068 48.2215 56.384 48.2013 56.0309V47.8697C48.1101 47.5569 47.8871 47.2946 47.5932 47.1635ZM46.1743 47.9705L24.1006 60.167C23.6952 60.3688 23.5939 60.5706 23.5939 61.075V68.7318L23.0872 68.53L1.41888 56.4344C1.01349 56.3336 0.749977 55.9401 0.810786 55.5265V31.0327C0.719573 30.6695 0.891866 30.2962 1.21618 30.1247H1.31753L23.4925 17.8274C23.7561 17.6054 24.1412 17.6054 24.4047 17.8274L30.9923 21.3582C31.266 21.4893 31.4281 21.7718 31.3977 22.0644V30.9318L34.6409 29.2168L39.5056 26.5939H40.1137L46.7013 30.1247H46.904L46.4986 30.4274L24.1209 42.8256C23.6142 42.9265 23.5128 43.1283 23.5128 43.5318V51.2895L22.9047 50.9869L16.9252 47.6578C16.5603 47.5166 16.3475 47.1332 16.4184 46.7499V29.5195L15.9117 29.7212L8.01665 34.16C7.81396 34.16 7.61126 34.4626 7.61126 34.6644V52.7119L8.11801 52.5102L15.405 48.3741C15.6685 48.1521 16.0536 48.1521 16.3171 48.3741L23.1074 52.2075C23.5027 52.49 24.0297 52.49 24.425 52.2075L39.2117 44.0463C39.4752 43.8243 39.8603 43.8243 40.1238 44.0463L46.002 47.3754L46.6101 47.7789C46.6101 47.678 46.4074 47.7789 46.2047 47.9806" fill="white"/>
<path d="M528.212 85.6079C523.327 85.6079 520.885 83.6027 520.885 79.5922C520.885 77.6898 521.553 75.9931 522.89 74.502C524.227 73.011 525.821 71.7256 527.672 70.6458C530.243 69.1033 532.762 67.8694 535.23 66.9439C537.698 66.0184 540.063 65.1957 542.326 64.4759C544.588 63.8075 546.696 63.0619 548.65 62.2393C549.113 60.9025 549.498 59.4371 549.807 57.8432C550.115 56.1979 550.347 54.604 550.501 53.0615C550.655 51.519 550.732 50.1822 550.732 49.051C550.732 47.8685 550.655 47.0972 550.501 46.7373C549.935 47.817 549.164 49.1539 548.187 50.7478C547.262 52.3417 546.156 53.9356 544.871 55.5295C543.637 57.072 542.326 58.3574 540.937 59.3857C539.549 60.414 538.135 60.9282 536.696 60.9282C536.181 60.9282 535.693 60.851 535.23 60.6968C533.791 60.0798 532.736 59.2057 532.068 58.0746C531.451 56.9434 531.143 55.658 531.143 54.2184C531.143 51.9046 531.811 49.4109 533.148 46.7373C534.485 44.0637 536.079 41.6214 537.93 39.4105C539.421 37.6109 541.169 36.1713 543.174 35.0915C545.179 34.0118 547.21 33.4719 549.267 33.4719C551.632 33.4719 553.843 34.2689 555.899 35.8628C556.671 36.4798 557.056 37.1482 557.056 37.868C557.056 38.6393 556.748 39.0249 556.131 39.0249C555.617 39.0249 555.257 38.6907 555.051 38.0223C554.331 36.1199 553.174 35.1687 551.581 35.1687C550.295 35.1687 548.83 35.7342 547.184 36.8654C545.539 37.9451 543.997 39.3077 542.557 40.953C541.323 42.3412 540.115 43.9351 538.932 45.7347C537.801 47.5343 536.85 49.3081 536.079 51.0563C535.359 52.8044 534.999 54.3212 534.999 55.6066C534.999 56.4807 535.204 57.2262 535.616 57.8432C536.027 58.4602 536.67 58.7687 537.544 58.7687C538.727 58.7687 539.96 58.2031 541.246 57.072C542.583 55.9408 543.842 54.5526 545.025 52.9072C546.259 51.2619 547.313 49.5909 548.187 47.8942C549.113 46.1974 549.755 44.7835 550.115 43.6523C550.475 42.4698 550.964 41.7499 551.581 41.4929C552.198 41.1844 552.815 41.0301 553.432 41.0301C554.049 41.0301 554.563 40.8759 554.974 40.5674C555.18 41.6985 555.308 42.8554 555.36 44.038C555.462 45.1691 555.514 46.326 555.514 47.5085C555.514 49.8737 555.36 52.0332 555.051 53.987C554.794 55.9408 554.331 58.0232 553.663 60.234C555.514 59.1029 557.108 57.6889 558.445 55.9922C559.833 54.2441 560.964 52.4959 561.838 50.7478C562.764 48.9482 563.509 47.4057 564.075 46.1203C564.692 46.1203 565 46.3517 565 46.8144C564.332 48.2027 563.483 49.8994 562.455 51.9046C561.478 53.9099 560.218 55.8637 558.676 57.7661C557.185 59.6171 555.308 61.0567 553.046 62.085C552.172 64.553 550.912 67.1495 549.267 69.8746C547.673 72.5996 545.771 75.1447 543.56 77.5099C541.349 79.9264 538.932 81.8803 536.31 83.3713C533.688 84.8624 530.988 85.6079 528.212 85.6079ZM526.361 84.0654C527.492 84.0654 528.675 83.8084 529.909 83.2942C531.194 82.8315 532.402 82.2659 533.533 81.5975C534.665 80.9291 535.539 80.3635 536.156 79.9007C537.338 78.9752 538.547 77.8184 539.781 76.4301C541.015 75.0419 542.094 73.7051 543.02 72.4197C543.894 71.1857 544.794 69.8746 545.719 68.4863C546.645 67.1495 547.39 65.8127 547.956 64.4759L544.794 65.4785C543.097 65.9927 541.22 66.6097 539.164 67.3295C537.158 68.1007 535.153 68.9491 533.148 69.8746C531.143 70.8001 529.317 71.8027 527.672 72.8824C526.232 73.8593 525.05 75.1447 524.124 76.7386C523.147 78.3325 522.659 79.7208 522.659 80.9034C522.659 81.7774 522.967 82.523 523.584 83.1399C524.15 83.7569 525.075 84.0654 526.361 84.0654Z" fill="white"/>
<path d="M500.341 61.6223C502.192 57.8689 503.966 54.1669 505.663 50.5164C507.359 46.8144 509.108 43.2924 510.907 39.9504C511.935 38.0994 512.81 36.814 513.529 36.0942C514.249 35.3229 515.2 34.9373 516.383 34.9373C516.794 34.9373 517.231 35.0144 517.694 35.1687C518.157 35.2715 518.62 35.3229 519.082 35.3229C519.391 35.3229 519.622 35.2972 519.776 35.2458C519.057 35.6571 518.105 36.6854 516.923 38.3308C515.792 39.9247 514.635 41.7756 513.452 43.8837C512.27 45.9918 511.216 47.9713 510.29 49.8223C511.267 48.6397 512.295 47.4571 513.375 46.2746C514.455 45.092 515.637 43.9608 516.923 42.8811C518.157 41.8013 519.622 40.6959 521.319 39.5647C523.067 38.3822 524.764 37.4053 526.409 36.634C528.054 35.8628 529.366 35.4772 530.342 35.4772C530.702 35.4772 530.959 35.5029 531.114 35.5543C531.114 35.5543 530.831 36.0684 530.265 37.0968C529.7 38.0737 528.98 39.3848 528.106 41.0301C527.283 42.624 526.435 44.3464 525.561 46.1974C524.687 47.997 523.89 49.7451 523.17 51.4419C522.501 53.0872 522.064 54.4754 521.859 55.6066C521.705 56.275 521.627 56.892 521.627 57.4576C521.627 58.2802 521.782 58.8201 522.09 59.0772C522.399 59.3343 522.733 59.4628 523.093 59.4628C524.07 59.4628 525.072 59.0258 526.101 58.1517C527.129 57.2776 528.106 56.1722 529.031 54.8354C530.008 53.4471 530.908 51.9818 531.731 50.4393C532.553 48.8968 533.247 47.4571 533.813 46.1203C534.43 46.1203 534.739 46.3517 534.739 46.8144C534.173 48.2027 533.453 49.7451 532.579 51.4419C531.756 53.0872 530.805 54.6554 529.725 56.1465C528.697 57.6375 527.54 58.8715 526.255 59.8484C524.969 60.8253 523.581 61.3138 522.09 61.3138C521.062 61.3138 519.982 60.9539 518.851 60.234C517.771 59.5142 517.231 58.1774 517.231 56.2236C517.231 55.658 517.283 55.0667 517.386 54.4497C517.488 53.7813 517.668 53.0615 517.925 52.2902C518.337 51.2619 518.825 50.1565 519.391 48.9739C519.956 47.7913 520.882 46.1717 522.167 44.1151C522.527 43.5495 522.733 43.1125 522.784 42.804C522.887 42.4955 522.939 42.2384 522.939 42.0327C522.939 41.4157 522.656 41.1072 522.09 41.1072C521.627 41.1072 520.933 41.3643 520.008 41.8785C519.134 42.3926 518.028 43.2924 516.691 44.5778C515.406 45.8118 513.864 47.56 512.064 49.8223C510.316 52.0846 508.285 55.4266 505.971 59.8484C505.611 60.5168 505.2 60.8768 504.737 60.9282C504.326 60.9796 503.735 61.031 502.963 61.0824C502.449 61.1338 501.961 61.1595 501.498 61.1595C501.035 61.211 500.65 61.3652 500.341 61.6223Z" fill="white"/>
<path d="M496.619 61.0053C494.716 61.0053 493.379 60.4654 492.608 59.3857C491.837 58.2545 491.451 56.9691 491.451 55.5295C491.451 54.7582 491.528 53.987 491.683 53.2157C491.888 52.3931 492.12 51.6475 492.377 50.9791L497.544 37.7909C497.698 37.3796 497.775 37.0196 497.775 36.7111C497.775 36.197 497.647 35.7599 497.39 35.4C497.133 34.9887 496.953 34.7059 496.85 34.5517L501.092 34.3974C501.863 34.346 502.403 34.4488 502.711 34.7059C503.071 34.9116 503.251 35.1687 503.251 35.4772C503.251 35.7857 503.071 36.3512 502.711 37.1739C502.197 38.4079 501.503 39.9504 500.629 41.8013C499.755 43.6523 498.881 45.5547 498.007 47.5085C497.184 49.4624 496.464 51.2876 495.847 52.9844C495.282 54.6811 494.999 55.9922 494.999 56.9177C494.999 57.5861 495.153 58.1517 495.462 58.6144C495.822 59.0772 496.413 59.3086 497.236 59.3086C498.315 59.3086 499.369 58.8972 500.398 58.0746C501.477 57.2005 502.48 56.095 503.406 54.7582C504.331 53.4214 505.179 51.9818 505.951 50.4393C506.773 48.8968 507.467 47.4571 508.033 46.1203C508.65 46.1203 508.959 46.3517 508.959 46.8144C508.444 48.0998 507.776 49.5652 506.953 51.2105C506.131 52.8558 505.179 54.424 504.1 55.9151C503.071 57.3547 501.914 58.563 500.629 59.5399C499.395 60.5168 498.058 61.0053 496.619 61.0053ZM503.483 29.6157C502.814 29.6157 502.223 29.3586 501.709 28.8445C501.246 28.3303 501.015 27.7133 501.015 26.9935C501.015 26.1194 501.375 25.3482 502.094 24.6798C502.814 23.9599 503.611 23.6 504.485 23.6C505.205 23.6 505.822 23.8314 506.336 24.2941C506.85 24.7569 507.108 25.3482 507.108 26.068C507.108 26.9935 506.748 27.8161 506.028 28.536C505.308 29.2558 504.46 29.6157 503.483 29.6157Z" fill="white"/>
<path d="M473.475 61.5452C471.881 61.5452 470.776 61.1338 470.159 60.3112C469.542 59.4885 469.234 58.4345 469.234 57.1491C469.234 55.8123 469.465 54.2955 469.928 52.5987C470.39 50.902 471.007 48.9996 471.779 46.8915C471.213 46.8915 470.93 46.6345 470.93 46.1203C471.342 45.092 471.779 43.9351 472.241 42.6497C472.756 41.3129 473.013 39.8218 473.013 38.1765C473.013 37.3539 472.91 36.6597 472.704 36.0942C472.498 35.5286 472.19 35.1944 471.779 35.0915C471.779 35.0915 472.036 35.0401 472.55 34.9373C473.115 34.8345 473.707 34.7316 474.324 34.6288C474.941 34.526 475.352 34.4745 475.558 34.4745C475.866 34.4231 476.149 34.3974 476.406 34.3974C476.663 34.346 476.895 34.3203 477.1 34.3203C477.614 34.3203 477.949 34.526 478.103 34.9373C478.308 35.3486 478.386 36.2484 478.334 37.6366C478.283 38.922 478.026 40.4902 477.563 42.3412C477.1 44.1408 476.612 45.709 476.098 47.0458C475.429 48.7939 474.812 50.5678 474.247 52.3674C473.681 54.1669 473.398 55.658 473.398 56.8406C473.398 57.8689 473.681 58.5373 474.247 58.8458C474.658 59.0001 475.018 59.0772 475.326 59.0772C476.509 59.0772 477.666 58.5116 478.797 57.3805C479.928 56.2493 480.982 54.8868 481.959 53.2929C482.987 51.6475 483.836 50.0794 484.504 48.5883C484.196 47.4057 484.041 45.9918 484.041 44.3464C484.041 42.5983 484.247 40.8244 484.658 39.0249C485.07 37.2253 485.712 35.7342 486.586 34.5517C487.461 33.3177 488.592 32.7007 489.98 32.7007C490.957 32.7007 491.445 33.1377 491.445 34.0118C491.445 34.2175 491.188 35.0915 490.674 36.634C490.211 38.1765 489.594 40.0018 488.823 42.1098C488.052 44.2179 487.229 46.2488 486.355 48.2027C486.149 48.614 485.969 49.0253 485.815 49.4367C486.021 50.3107 486.407 51.0306 486.972 51.5961C487.538 52.1103 488.232 52.3674 489.054 52.3674C490.083 52.3674 491.034 51.9046 491.908 50.9791C492.834 50.0022 493.785 48.3826 494.762 46.1203C495.379 46.1203 495.687 46.3517 495.687 46.8144C494.864 48.8711 493.862 50.5164 492.679 51.7504C491.548 52.9844 490.263 53.6014 488.823 53.6014C487.075 53.6014 485.815 52.7016 485.044 50.902C484.17 52.7016 483.142 54.424 481.959 56.0693C480.776 57.6632 479.465 58.9743 478.026 60.0027C476.637 61.031 475.121 61.5452 473.475 61.5452Z" fill="white"/>
<path d="M459.804 61.0053C457.901 61.0053 456.565 60.4654 455.793 59.3857C455.022 58.2545 454.637 56.9691 454.637 55.5295C454.637 54.7582 454.714 53.987 454.868 53.2157C455.074 52.3931 455.305 51.6475 455.562 50.9791L460.729 37.7909C460.884 37.3796 460.961 37.0196 460.961 36.7111C460.961 36.197 460.832 35.7599 460.575 35.4C460.318 34.9887 460.138 34.7059 460.035 34.5517L464.277 34.3974C465.048 34.346 465.588 34.4488 465.897 34.7059C466.257 34.9116 466.437 35.1687 466.437 35.4772C466.437 35.7857 466.257 36.3512 465.897 37.1739C465.383 38.4079 464.688 39.9504 463.814 41.8013C462.94 43.6523 462.066 45.5547 461.192 47.5085C460.369 49.4624 459.65 51.2876 459.033 52.9844C458.467 54.6811 458.184 55.9922 458.184 56.9177C458.184 57.5861 458.338 58.1517 458.647 58.6144C459.007 59.0772 459.598 59.3086 460.421 59.3086C461.501 59.3086 462.555 58.8972 463.583 58.0746C464.663 57.2005 465.665 56.095 466.591 54.7582C467.516 53.4214 468.365 51.9818 469.136 50.4393C469.959 48.8968 470.653 47.4571 471.218 46.1203C471.835 46.1203 472.144 46.3517 472.144 46.8144C471.63 48.0998 470.961 49.5652 470.139 51.2105C469.316 52.8558 468.365 54.424 467.285 55.9151C466.257 57.3547 465.1 58.563 463.814 59.5399C462.58 60.5168 461.244 61.0053 459.804 61.0053ZM466.668 29.6157C466 29.6157 465.408 29.3586 464.894 28.8445C464.431 28.3303 464.2 27.7133 464.2 26.9935C464.2 26.1194 464.56 25.3482 465.28 24.6798C466 23.9599 466.796 23.6 467.671 23.6C468.39 23.6 469.007 23.8314 469.522 24.2941C470.036 24.7569 470.293 25.3482 470.293 26.068C470.293 26.9935 469.933 27.8161 469.213 28.536C468.493 29.2558 467.645 29.6157 466.668 29.6157Z" fill="white"/>
<path d="M455.563 84.9909C455.048 84.9909 454.714 84.8881 454.56 84.6824C454.406 84.5282 454.329 84.3482 454.329 84.1426C455.254 83.9883 456.154 83.2942 457.028 82.0602C457.902 80.8776 458.339 79.4894 458.339 77.8955C458.339 75.3761 457.516 72.9338 455.871 70.5687C454.226 68.255 451.912 66.1212 448.93 64.1674C445.948 62.2136 442.452 60.5425 438.441 59.1543C434.482 57.7147 430.137 56.6606 425.407 55.9922C423.659 58.4602 421.679 60.7225 419.468 62.7791C417.309 64.8872 414.892 66.5582 412.219 67.7922C409.597 69.0776 406.743 69.7203 403.658 69.7203C400.419 69.7203 397.951 68.9748 396.254 67.4837C394.557 65.9927 393.709 64.2702 393.709 62.3164C393.709 60.5168 394.429 58.7173 395.868 56.9177C397.36 55.0667 399.596 53.5499 402.578 52.3674C405.612 51.1334 409.442 50.5164 414.07 50.5164C417.618 50.5164 421.217 50.8249 424.867 51.4419C426.153 49.1796 427.309 46.9173 428.338 44.6549C429.366 42.3926 430.266 40.2589 431.037 38.2536C425.947 38.048 421.936 37.2767 419.006 35.9399C416.075 34.5517 413.993 32.8292 412.759 30.7726C411.525 28.7159 410.908 26.6079 410.908 24.4484C410.908 21.7233 411.73 19.1525 413.376 16.736C415.021 14.268 417.258 12.2628 420.085 10.7203C422.913 9.17778 426.075 8.40654 429.572 8.40654C429.983 8.40654 430.24 8.56079 430.343 8.86929C430.446 9.17778 430.497 9.43487 430.497 9.64053C428.543 9.64053 426.641 10.0776 424.79 10.9516C422.99 11.8257 421.371 13.0083 419.931 14.4994C418.492 15.939 417.335 17.5586 416.461 19.3582C415.638 21.1578 415.227 23.0087 415.227 24.9111C415.227 26.7621 415.715 28.5874 416.692 30.387C417.669 32.1351 419.34 33.6005 421.705 34.783C424.07 35.9656 427.387 36.6083 431.654 36.7111C432.117 35.5286 432.502 34.4488 432.811 33.4719C433.171 32.4436 433.479 31.5695 433.736 30.8497C434.97 27.1477 436.282 23.4715 437.67 19.8209C439.109 16.1704 440.729 12.854 442.529 9.8719C444.38 6.88977 446.565 4.49891 449.084 2.69935C451.604 0.899782 454.611 0 458.108 0C460.37 0 462.118 0.642702 463.352 1.9281C464.638 3.21351 465.28 4.98737 465.28 7.24968C465.28 9.46057 464.766 11.9028 463.738 14.5765C462.71 17.1987 461.27 19.8209 459.419 22.4432C457.568 25.0654 455.383 27.5077 452.863 29.77C450.344 32.0323 447.593 33.909 444.611 35.4C441.629 36.8911 438.492 37.8166 435.202 38.1765C434.431 39.8218 433.454 41.9042 432.271 44.4236C431.089 46.8915 429.675 49.4366 428.029 52.0589C432.502 53.0872 436.719 54.4754 440.678 56.2236C444.688 57.9717 448.21 59.9513 451.244 62.1622C454.329 64.4245 456.745 66.8153 458.493 69.3347C460.242 71.9055 461.116 74.4506 461.116 76.97C461.116 79.2323 460.55 81.1347 459.419 82.6772C458.288 84.2197 457.002 84.9909 455.563 84.9909ZM458.108 3.93334C455.897 3.93334 453.815 4.91024 451.861 6.86406C449.907 8.76646 448.03 11.3116 446.231 14.4994C444.482 17.6357 442.76 21.132 441.063 24.9883C439.367 28.8445 437.67 32.675 435.973 36.4798C439.007 36.0684 441.835 35.143 444.457 33.7033C447.079 32.2636 449.47 30.5155 451.629 28.4589C453.789 26.3508 455.64 24.1142 457.182 21.749C458.725 19.3839 459.907 17.0702 460.73 14.8079C461.553 12.4941 461.964 10.4375 461.964 8.63792C461.964 7.19826 461.655 6.06711 461.038 5.24445C460.421 4.37037 459.445 3.93334 458.108 3.93334ZM395.637 63.3961C395.637 64.6815 396.331 65.787 397.719 66.7125C399.108 67.6894 401.087 68.1778 403.658 68.1778C407.463 68.1778 410.908 66.9439 413.993 64.4759C417.078 62.0593 419.828 59.1029 422.245 55.6066C419.52 55.3495 416.795 55.221 414.07 55.221C409.854 55.221 406.383 55.658 403.658 56.5321C400.933 57.3547 398.902 58.4088 397.565 59.6942C396.28 60.9282 395.637 62.1622 395.637 63.3961Z" fill="white"/>
</svg>
