<svg width="18" height="21" viewBox="0 0 18 21" fill="none" xmlns="http://www.w3.org/2000/svg">
<path d="M17.5011 15.7291C17.1959 16.4279 16.8346 17.0711 16.416 17.6624C15.8455 18.4686 15.3783 19.0266 15.0183 19.3364C14.4602 19.8451 13.8622 20.1055 13.2219 20.1204C12.7622 20.1204 12.2078 19.9907 11.5625 19.7278C10.915 19.4661 10.32 19.3364 9.77601 19.3364C9.20544 19.3364 8.59351 19.4661 7.93897 19.7278C7.28344 19.9907 6.75535 20.1278 6.35159 20.1414C5.73754 20.1673 5.12549 19.8994 4.51455 19.3364C4.12462 18.9994 3.6369 18.4216 3.05262 17.6032C2.42574 16.7291 1.91036 15.7156 1.5066 14.56C1.07419 13.3119 0.857422 12.1033 0.857422 10.9332C0.857422 9.59291 1.14968 8.43689 1.73508 7.46815C2.19515 6.69003 2.8072 6.07622 3.57324 5.62562C4.33927 5.17501 5.16697 4.94539 6.05833 4.9307C6.54606 4.9307 7.18564 5.0802 7.98045 5.37402C8.77302 5.66883 9.28193 5.81833 9.50505 5.81833C9.67186 5.81833 10.2372 5.64352 11.1956 5.29501C12.1019 4.97181 12.8668 4.83799 13.4934 4.8907C15.1914 5.0265 16.4671 5.68981 17.3155 6.88484C15.7969 7.79666 15.0457 9.07379 15.0606 10.7121C15.0743 11.9883 15.5415 13.0502 16.4597 13.8934C16.8757 14.2847 17.3404 14.5872 17.8574 14.802C17.7453 15.1242 17.627 15.4329 17.5011 15.7291ZM13.6068 0.54318C13.6068 1.54341 13.238 2.47732 12.503 3.34174C11.616 4.36936 10.5432 4.96317 9.37972 4.86947C9.3649 4.74947 9.3563 4.62318 9.3563 4.49047C9.3563 3.53025 9.77812 2.50263 10.5272 1.66241C10.9012 1.23699 11.3768 0.883256 11.9536 0.601079C12.5292 0.323112 13.0736 0.169391 13.5856 0.143066C13.6006 0.276781 13.6068 0.410518 13.6068 0.54318Z" fill="white"/>
</svg>
