<svg width="20" height="21" viewBox="0 0 20 21" fill="none" xmlns="http://www.w3.org/2000/svg">
<path d="M18.3432 3.65389C16.1682 1.5842 12.6281 1.5842 10.4524 3.65342L10 4.08311L9.54813 3.65361C7.37223 1.58412 3.83258 1.58436 1.65668 3.65361C0.58832 4.66979 0 6.01764 0 7.4485C0 8.87982 0.58832 10.2274 1.65684 11.244L9.51695 18.7063C9.65215 18.8349 9.82621 18.899 10 18.899C10.1738 18.899 10.3476 18.8347 10.483 18.706L18.3432 11.244C19.4114 10.2277 20 8.87986 20 7.44873C20 6.01764 19.4114 4.67002 18.3432 3.65389ZM17.3761 10.2265L10 17.2296L2.6241 10.2267C1.83695 9.47822 1.40352 8.49154 1.40352 7.44873C1.40352 6.40592 1.83695 5.41924 2.6241 4.67072C3.44516 3.88943 4.52352 3.49904 5.60211 3.49904C6.68094 3.49904 7.75977 3.8899 8.58082 4.67119L9.51648 5.55986C9.78734 5.8174 10.2124 5.8174 10.4833 5.55986L11.4192 4.67072C13.0615 3.10838 15.7336 3.10838 17.3759 4.67072C18.1628 5.41928 18.5965 6.40592 18.5965 7.44873C18.5965 8.49154 18.1628 9.47799 17.3761 10.2265Z" fill="#25793A"/>
</svg>
