<svg width="18" height="19" viewBox="0 0 18 19" fill="none" xmlns="http://www.w3.org/2000/svg">
<path d="M16.5722 11.9262C15.9756 11.402 15.2522 10.9491 14.4218 10.5801C14.0668 10.4224 13.6513 10.5823 13.4937 10.9371C13.336 11.292 13.4959 11.7074 13.8507 11.8652C14.551 12.1764 15.1544 12.5523 15.644 12.9825C16.2475 13.5129 16.5938 14.2808 16.5938 15.0898V16.3906C16.5938 16.7783 16.2783 17.0938 15.8906 17.0938H2.10938C1.72169 17.0938 1.40625 16.7783 1.40625 16.3906V15.0898C1.40625 14.2808 1.75246 13.5129 2.35602 12.9825C3.06642 12.3582 5.13625 10.9062 9 10.9062C11.8689 10.9062 14.2031 8.57207 14.2031 5.70312C14.2031 2.83418 11.8689 0.5 9 0.5C6.13106 0.5 3.79688 2.83418 3.79688 5.70312C3.79688 7.38033 4.59476 8.87447 5.83072 9.82657C3.56918 10.3237 2.16238 11.2806 1.42781 11.9262C0.520477 12.7234 0 13.8764 0 15.0898V16.3906C0 17.5538 0.946198 18.5 2.10938 18.5H15.8906C17.0538 18.5 18 17.5538 18 16.3906V15.0898C18 13.8764 17.4795 12.7234 16.5722 11.9262ZM5.20312 5.70312C5.20312 3.60954 6.90642 1.90625 9 1.90625C11.0936 1.90625 12.7969 3.60954 12.7969 5.70312C12.7969 7.79671 11.0936 9.5 9 9.5C6.90642 9.5 5.20312 7.79671 5.20312 5.70312Z" fill="#25793A"/>
</svg>
